<?xml version="1.0" encoding="UTF-8"?>
<!DOCTYPE svg PUBLIC "-//W3C//DTD SVG 1.1//EN" "http://www.w3.org/Graphics/SVG/1.1/DTD/svg11.dtd">
<!-- Creator: CorelDRAW -->
<svg xmlns="http://www.w3.org/2000/svg" xml:space="preserve" width="47.625mm" height="47.625mm" version="1.1" style="shape-rendering:geometricPrecision; text-rendering:geometricPrecision; image-rendering:optimizeQuality; fill-rule:evenodd; clip-rule:evenodd"
viewBox="0 0 3481.42 3481.42"
 xmlns:xlink="http://www.w3.org/1999/xlink"
 xmlns:xodm="http://www.corel.com/coreldraw/odm/2003">
 <defs>
  <style type="text/css">
   <![CDATA[
    .str0 {stroke:#FEFEFE;stroke-width:73.1;stroke-miterlimit:22.9256}
    .fil1 {fill:#FEFEFE;fill-rule:nonzero}
    .fil0 {fill:url(#id0)}
   ]]>
  </style>
  <linearGradient id="id0" gradientUnits="userSpaceOnUse" x1="2358.58" y1="3368.57" x2="810.17" y2="269.35">
   <stop offset="0" style="stop-opacity:1; stop-color:#B37F3B"/>
   <stop offset="1" style="stop-opacity:1; stop-color:#EDA335"/>
  </linearGradient>
 </defs>
 <g id="Camada_x0020_1">
  <metadata id="CorelCorpID_0Corel-Layer"/>
  <circle class="fil0" cx="1740.71" cy="1740.71" r="1740.71"/>
  <path class="fil1 str0" d="M1398.78 599.89c4.28,-14.01 8.82,-27.65 13.62,-40.92 9.67,-26.73 20.41,-51.92 32.3,-75.41 0.96,-1.87 1.92,-3.74 2.87,-5.59 4.94,-9.5 10.07,-18.7 15.4,-27.62 4.89,-8.2 9.93,-16.16 15.15,-23.87 4.41,-6.51 8.93,-12.85 13.57,-19 4.04,-5.35 8.18,-10.56 12.41,-15.63 3.8,-4.56 7.68,-9.01 11.64,-13.34 3.63,-3.97 7.32,-7.84 11.08,-11.62 3.47,-3.48 7.01,-6.87 10.6,-10.18 3.36,-3.09 6.76,-6.11 10.22,-9.05 3.26,-2.78 6.57,-5.49 9.92,-8.14 3.17,-2.49 6.38,-4.91 9.63,-7.28 3.11,-2.27 6.26,-4.47 9.45,-6.62 3.03,-2.04 6.09,-4.03 9.19,-5.97 2.98,-1.86 5.99,-3.67 9.03,-5.44 2.92,-1.69 5.87,-3.33 8.85,-4.93 2.87,-1.54 5.77,-3.03 8.71,-4.49 2.84,-1.4 5.69,-2.77 8.57,-4.09 2.79,-1.28 5.61,-2.52 8.45,-3.73 2.76,-1.16 5.53,-2.3 8.34,-3.4 2.73,-1.06 5.49,-2.08 8.27,-3.08 2.7,-0.96 5.42,-1.89 8.15,-2.8 2.66,-0.87 5.35,-1.72 8.06,-2.53 2.62,-0.79 5.29,-1.54 7.96,-2.27 2.62,-0.72 5.25,-1.41 7.9,-2.06 2.59,-0.64 5.19,-1.24 7.81,-1.83 2.57,-0.57 5.15,-1.12 7.76,-1.63 2.54,-0.51 5.11,-0.98 7.7,-1.43 1.18,-0.21 2.38,-0.42 3.57,-0.62 1.35,-0.23 2.72,-0.43 4.09,-0.64 2.51,-0.38 5.02,-0.75 7.57,-1.09 2.49,-0.33 4.99,-0.64 7.51,-0.92 2.48,-0.28 4.96,-0.53 7.47,-0.77 2.46,-0.23 4.93,-0.45 7.42,-0.64 2.44,-0.18 4.9,-0.34 7.37,-0.48 2.43,-0.14 4.88,-0.26 7.34,-0.35 2.41,-0.1 4.84,-0.17 7.27,-0.23 2.42,-0.05 4.84,-0.1 7.28,-0.11 2.39,-0.01 4.8,-0.01 7.21,0.01 2.38,0.02 4.77,0.07 7.18,0.13 2.36,0.06 4.74,0.14 7.13,0.23 2.35,0.1 4.72,0.2 7.09,0.34 2.35,0.13 4.71,0.28 7.08,0.44 2.32,0.15 4.67,0.33 7.02,0.52 2.32,0.19 4.66,0.4 7,0.62 2.33,0.22 4.67,0.45 7.02,0.71 2.3,0.25 4.62,0.51 6.94,0.79 2.3,0.28 4.6,0.57 6.92,0.88 2.28,0.3 4.58,0.62 6.89,0.95 2.28,0.34 4.58,0.67 6.88,1.03 2.27,0.36 4.55,0.73 6.83,1.11 2.27,0.38 4.53,0.77 6.81,1.18 2.26,0.4 4.53,0.82 6.81,1.26 2.26,0.42 4.52,0.86 6.81,1.32 2.24,0.45 4.48,0.91 6.74,1.38 2.24,0.47 4.48,0.95 6.74,1.45 2.22,0.49 4.46,0.99 6.7,1.51 2.22,0.51 4.45,1.04 6.68,1.57 2.21,0.53 4.44,1.07 6.67,1.63 2.21,0.56 4.43,1.11 6.66,1.69 2.2,0.57 4.41,1.15 6.62,1.75 2.21,0.59 4.43,1.18 6.65,1.8 2.19,0.61 4.39,1.22 6.6,1.85 2.18,0.62 4.37,1.26 6.57,1.91 2.18,0.64 4.36,1.29 6.56,1.95 2.17,0.66 4.35,1.32 6.54,2 2.17,0.67 4.35,1.36 6.54,2.05 2.16,0.69 4.33,1.38 6.51,2.09 2.16,0.7 4.33,1.41 6.49,2.14 2.17,0.72 4.35,1.45 6.54,2.2 2.14,0.73 4.3,1.48 6.45,2.23 2.15,0.75 4.29,1.51 6.45,2.27 2.14,0.77 4.29,1.54 6.45,2.32 2.13,0.77 4.28,1.56 6.42,2.35 2.13,0.79 4.27,1.59 6.41,2.39 2.13,0.8 4.26,1.62 6.4,2.44 2.13,0.81 4.25,1.64 6.4,2.48 2.13,0.83 4.26,1.67 6.4,2.52 2.12,0.84 4.23,1.69 6.36,2.54 2.11,0.86 4.23,1.72 6.36,2.6 2.11,0.86 4.22,1.74 6.34,2.62 2.1,0.87 4.2,1.75 6.32,2.65 2.11,0.89 4.21,1.78 6.32,2.69 2.1,0.89 4.2,1.81 6.3,2.73 2.09,0.91 4.19,1.83 6.29,2.75 2.1,0.93 4.2,1.86 6.31,2.8 2.09,0.94 4.19,1.87 6.28,2.82 2.08,0.94 4.17,1.89 6.26,2.85 2.08,0.95 4.16,1.91 6.24,2.88 2.08,0.96 4.17,1.93 6.25,2.91 2.07,0.97 4.14,1.96 6.23,2.94 2.07,0.99 4.14,1.97 6.22,2.98 2.07,0.99 4.14,1.98 6.21,2.99 2.08,1.01 4.15,2.02 6.24,3.04 2.05,1.01 4.12,2.03 6.19,3.06 2.05,1.02 4.12,2.05 6.18,3.08 2.06,1.03 4.12,2.07 6.18,3.11 2.05,1.04 4.11,2.09 6.17,3.14 2.05,1.05 4.09,2.09 6.16,3.15 2.05,1.06 4.1,2.12 6.16,3.19l1.15 0.59c1.81,0.94 3.37,2.16 4.66,3.57 1.68,1.84 2.92,4.01 3.65,6.35l0.04 0c0.26,0.86 0.45,1.73 0.58,2.62 0.48,3.42 -0.03,7.03 -1.73,10.28 -0.81,1.6 -1.86,3 -3.08,4.2 -1.94,1.9 -4.28,3.27 -6.8,4.06l0 0.04c-0.65,0.2 -1.31,0.37 -1.98,0.49 -2.34,0.43 -4.77,0.39 -7.14,-0.18 -1.3,-0.31 -2.58,-0.78 -3.81,-1.43l-2.51 -1.29c-2.05,-1.07 -4.11,-2.13 -6.15,-3.19 -2.06,-1.06 -4.11,-2.1 -6.16,-3.14 -2.06,-1.06 -4.12,-2.1 -6.17,-3.14 -2.07,-1.04 -4.13,-2.07 -6.18,-3.1 -2.06,-1.02 -4.12,-2.05 -6.18,-3.06 -2.09,-1.02 -4.17,-2.05 -6.25,-3.06 -2.07,-1.01 -4.14,-2.02 -6.2,-3.01 -2.08,-1 -4.15,-2 -6.22,-2.98 -2.08,-0.99 -4.15,-1.97 -6.22,-2.95 -2.08,-0.99 -4.17,-1.96 -6.24,-2.93 -2.09,-0.96 -4.17,-1.93 -6.24,-2.89 -2.1,-0.96 -4.18,-1.92 -6.26,-2.86 -2.1,-0.95 -4.19,-1.89 -6.28,-2.83 -2.11,-0.95 -4.21,-1.88 -6.31,-2.81 -2.11,-0.93 -4.2,-1.84 -6.29,-2.76 -2.1,-0.91 -4.2,-1.83 -6.29,-2.73 -2.12,-0.91 -4.23,-1.81 -6.32,-2.7 -2.11,-0.89 -4.23,-1.78 -6.32,-2.65 -2.12,-0.88 -4.23,-1.75 -6.34,-2.61 -2.13,-0.87 -4.25,-1.73 -6.36,-2.59 -2.12,-0.86 -4.25,-1.7 -6.36,-2.54 -2.14,-0.85 -4.28,-1.69 -6.41,-2.52 -2.13,-0.83 -4.27,-1.65 -6.39,-2.46 -2.14,-0.83 -4.28,-1.62 -6.4,-2.42 -2.15,-0.81 -4.28,-1.6 -6.42,-2.38 -2.14,-0.79 -4.29,-1.57 -6.43,-2.34 -2.16,-0.77 -4.31,-1.55 -6.45,-2.3 -2.16,-0.76 -4.31,-1.51 -6.45,-2.25 -2.16,-0.75 -4.32,-1.49 -6.47,-2.21 -2.19,-0.74 -4.36,-1.47 -6.54,-2.18 -2.17,-0.72 -4.34,-1.42 -6.51,-2.11 -2.18,-0.69 -4.35,-1.39 -6.52,-2.06 -2.19,-0.69 -4.37,-1.35 -6.55,-2.01 -2.19,-0.67 -4.37,-1.32 -6.55,-1.97 -2.2,-0.64 -4.39,-1.29 -6.57,-1.91 -2.21,-0.63 -4.4,-1.25 -6.59,-1.85 -2.22,-0.61 -4.42,-1.22 -6.62,-1.81 -2.23,-0.59 -4.45,-1.18 -6.66,-1.75 -2.23,-0.57 -4.44,-1.13 -6.65,-1.68 -2.23,-0.56 -4.46,-1.1 -6.67,-1.62 -2.24,-0.53 -4.47,-1.05 -6.69,-1.56 -2.24,-0.5 -4.48,-1.01 -6.71,-1.49 -2.25,-0.49 -4.5,-0.97 -6.73,-1.43 -2.27,-0.47 -4.52,-0.92 -6.76,-1.36 -2.27,-0.45 -4.52,-0.87 -6.78,-1.29 -2.29,-0.42 -4.57,-0.83 -6.84,-1.22 -2.28,-0.39 -4.56,-0.77 -6.83,-1.14 -2.3,-0.37 -4.58,-0.73 -6.85,-1.07 -2.3,-0.34 -4.6,-0.67 -6.88,-0.99 -2.32,-0.31 -4.63,-0.62 -6.92,-0.91 -2.32,-0.29 -4.63,-0.56 -6.93,-0.81 -2.33,-0.26 -4.66,-0.5 -6.97,-0.72 -2.34,-0.23 -4.67,-0.43 -7,-0.63 -2.37,-0.19 -4.73,-0.37 -7.08,-0.53 -2.37,-0.16 -4.72,-0.31 -7.06,-0.43 -2.38,-0.13 -4.74,-0.24 -7.1,-0.34 -2.39,-0.09 -4.77,-0.17 -7.15,-0.22 -2.41,-0.05 -4.79,-0.08 -7.17,-0.1 -2.42,-0.02 -4.82,-0.01 -7.21,0.01 -2.44,0.03 -4.86,0.07 -7.27,0.14 -2.45,0.07 -4.88,0.16 -7.3,0.28 -2.47,0.11 -4.93,0.25 -7.38,0.41 -2.48,0.16 -4.95,0.34 -7.39,0.54 -2.5,0.21 -4.99,0.45 -7.46,0.72 -2.51,0.26 -5.01,0.55 -7.49,0.86 -2.08,0.26 -4.14,0.53 -6.2,0.83 -0.45,0.07 -0.9,0.14 -1.35,0.2 -2.56,0.37 -5.1,0.78 -7.62,1.21 -2.57,0.45 -5.13,0.91 -7.68,1.4 -2.6,0.5 -5.18,1.04 -7.74,1.6 -2.63,0.58 -5.25,1.19 -7.85,1.83 -2.65,0.65 -5.29,1.33 -7.89,2.05 -2.68,0.73 -5.34,1.51 -7.97,2.3 -2.71,0.82 -5.39,1.67 -8.06,2.56 -2.74,0.91 -5.47,1.86 -8.17,2.84 -2.78,1.02 -5.53,2.08 -8.26,3.16 -2.81,1.13 -5.6,2.3 -8.37,3.5 -2.86,1.24 -5.69,2.54 -8.5,3.87 -2.92,1.39 -5.81,2.81 -8.68,4.3 -2.96,1.53 -5.88,3.1 -8.78,4.72 -3.01,1.7 -6,3.44 -8.95,5.23 -3.09,1.89 -6.14,3.83 -9.16,5.83 -3.17,2.09 -6.28,4.25 -9.36,6.47 -3.25,2.34 -6.45,4.74 -9.61,7.21 -3.36,2.64 -6.66,5.34 -9.92,8.12 -3.47,2.98 -6.89,6.03 -10.26,9.17 -3.65,3.41 -7.23,6.91 -10.75,10.51 -3.82,3.91 -7.57,7.95 -11.24,12.1 -4.08,4.61 -8.07,9.37 -11.96,14.26 -4.45,5.58 -8.76,11.36 -12.97,17.3 -5.01,7.08 -9.85,14.42 -14.53,21.99 -5.99,9.69 -11.7,19.77 -17.14,30.23l-0.39 0.76c-10.28,19.78 -19.67,40.89 -28.25,63.21 -8.3,21.59 -15.83,44.32 -22.67,68.09 -7.46,25.99 -14.09,53.22 -19.94,81.6 -3.33,16.14 -6.42,32.65 -9.27,49.52 -2.25,13.35 -4.36,26.9 -6.32,40.67 -1.69,11.84 -3.27,23.82 -4.76,35.96 -1.34,10.88 -2.59,21.88 -3.76,32.99 -0.25,2.3 -0.49,4.61 -0.72,6.91 -0.81,7.89 -1.58,15.86 -2.31,23.86 -0.89,9.68 -1.72,19.42 -2.5,29.25 -0.73,9.21 -1.42,18.49 -2.06,27.84 -0.61,8.88 -1.17,17.82 -1.7,26.81 -0.5,8.58 -0.97,17.22 -1.41,25.9 -0.42,8.33 -0.8,16.72 -1.16,25.15 -0.34,8.14 -0.66,16.32 -0.94,24.53 -0.28,7.95 -0.53,15.94 -0.77,23.96 -0.22,7.78 -0.42,15.59 -0.59,23.44 -0.17,7.67 -0.32,15.37 -0.45,23.09 -0.12,7.51 -0.23,15.06 -0.32,22.63 -0.08,7.4 -0.15,14.82 -0.2,22.26 -0.04,7.3 -0.08,14.61 -0.09,21.94 -0.02,7.21 -0.02,14.43 0,21.67 0.01,7.11 0.05,14.24 0.1,21.38 0.04,7.03 0.1,14.09 0.17,21.15 0.07,6.97 0.15,13.95 0.25,20.94 0.1,6.92 0.2,13.85 0.32,20.79 0.11,6.82 0.23,13.66 0.37,20.52 0.13,6.77 0.28,13.56 0.44,20.36 0.15,6.72 0.31,13.46 0.49,20.2l0.32 12.16 0.21 7.89 0.56 20.01 0.29 10.56 13.79 -31.18 1.75 -3.96c9.04,-20.44 17.86,-40.16 26.46,-59.16 8.95,-19.77 17.69,-38.77 26.21,-57.01 8.21,-17.57 16.22,-34.45 24.05,-50.61 7.54,-15.56 14.91,-30.48 22.13,-44.77 6.89,-13.65 13.64,-26.72 20.26,-39.22 2.95,-5.57 5.87,-11.02 8.76,-16.37 3.32,-6.11 6.6,-12.08 9.85,-17.9 5.82,-10.42 11.54,-20.39 17.16,-29.9 5.37,-9.06 10.64,-17.7 15.85,-25.94 4.96,-7.85 9.85,-15.33 14.68,-22.45 4.63,-6.83 9.2,-13.31 13.72,-19.47 4.3,-5.85 8.55,-11.39 12.75,-16.65 4.03,-5.02 8,-9.77 11.95,-14.25 2.07,-2.35 4.12,-4.62 6.18,-6.83 1.7,-1.83 3.4,-3.62 5.09,-5.36 3.61,-3.74 7.19,-7.27 10.75,-10.61 3.44,-3.24 6.86,-6.28 10.25,-9.14 3.29,-2.79 6.56,-5.39 9.81,-7.82 3.17,-2.38 6.31,-4.58 9.42,-6.63 3.05,-2 6.07,-3.85 9.08,-5.53 2.92,-1.64 5.82,-3.14 8.71,-4.49 2.81,-1.32 5.62,-2.52 8.41,-3.57 2.71,-1.02 5.41,-1.92 8.11,-2.7 2.62,-0.76 5.23,-1.4 7.84,-1.93 2.54,-0.51 5.08,-0.92 7.62,-1.21 2.47,-0.29 4.93,-0.48 7.4,-0.56 2.41,-0.08 4.8,-0.06 7.19,0.05 2.35,0.12 4.69,0.32 7.04,0.62 2.28,0.29 4.56,0.67 6.84,1.13 2.21,0.45 4.44,0.99 6.67,1.61 2.17,0.6 4.35,1.28 6.53,2.04 2.13,0.73 4.26,1.54 6.4,2.43 2.09,0.87 4.18,1.81 6.28,2.82 2.05,0.99 4.11,2.04 6.16,3.16 0.62,0.34 1.24,0.67 1.86,1.02 1.4,0.79 2.79,1.6 4.18,2.44 2,1.21 3.99,2.46 6,3.77 1.95,1.28 3.91,2.62 5.87,4.02 1.93,1.36 3.85,2.78 5.8,4.25 1.9,1.44 3.81,2.93 5.72,4.47 1.88,1.52 3.76,3.07 5.65,4.68 1.86,1.59 3.72,3.21 5.59,4.88 1.83,1.64 3.67,3.32 5.52,5.05 1.82,1.7 3.65,3.44 5.48,5.23 1.81,1.75 3.62,3.56 5.44,5.39 1.78,1.8 3.57,3.64 5.37,5.52 1.77,1.85 3.55,3.74 5.34,5.66 1.75,1.89 3.51,3.82 5.28,5.78 1.75,1.94 3.49,3.9 5.26,5.9 1.73,1.97 3.46,3.98 5.21,6.02 1.72,2 3.44,4.04 5.18,6.11 1.7,2.03 3.42,4.1 5.15,6.2 1.7,2.08 3.41,4.19 5.12,6.32 1.7,2.11 3.39,4.23 5.1,6.38 1.69,2.13 3.37,4.28 5.07,6.46 1.67,2.15 3.35,4.33 5.03,6.53 1.67,2.18 3.34,4.38 5.03,6.6 1.65,2.19 3.32,4.42 4.99,6.66 1.65,2.21 3.31,4.46 4.97,6.72 1.64,2.24 3.3,4.5 4.96,6.78 1.64,2.27 3.3,4.55 4.96,6.86 1.63,2.27 3.27,4.57 4.92,6.88 1.63,2.29 3.27,4.59 4.91,6.92 1.63,2.3 3.26,4.62 4.91,6.97 1.62,2.32 3.24,4.64 4.88,7 1.62,2.32 3.24,4.66 4.87,7.03 1.62,2.34 3.23,4.69 4.86,7.08 1.61,2.35 3.22,4.72 4.85,7.11 1.61,2.36 3.23,4.74 4.85,7.16 1.6,2.37 3.21,4.75 4.83,7.15l1.64 2.45c1.06,1.59 2.13,3.15 3.19,4.7 1.63,2.36 3.26,4.69 4.89,6.95 1.65,2.3 3.3,4.56 4.96,6.77 1.67,2.24 3.35,4.44 5.02,6.59 1.7,2.17 3.4,4.3 5.09,6.37 1.72,2.11 3.44,4.17 5.15,6.18 1.75,2.05 3.49,4.04 5.25,5.99 1.77,1.97 3.53,3.89 5.3,5.76 1.79,1.89 3.57,3.74 5.37,5.54 1.81,1.82 3.63,3.6 5.44,5.33 1.84,1.75 3.68,3.44 5.52,5.09 1.86,1.67 3.72,3.3 5.59,4.87 1.89,1.59 3.77,3.14 5.67,4.64 1.92,1.51 3.84,2.98 5.75,4.39 1.95,1.44 3.9,2.84 5.85,4.17 1.97,1.35 3.94,2.65 5.91,3.89 2,1.27 4,2.49 5.99,3.66 2.03,1.18 4.06,2.31 6.09,3.39 2.05,1.09 4.12,2.13 6.17,3.11 2.09,1.01 4.17,1.95 6.26,2.85 2.12,0.91 4.24,1.77 6.36,2.57 2.15,0.82 4.3,1.58 6.45,2.3 2.19,0.72 4.38,1.38 6.56,2 2.21,0.63 4.43,1.19 6.65,1.7 2.25,0.51 4.5,0.98 6.75,1.39 2.29,0.42 4.57,0.78 6.85,1.09 1.13,0.15 2.26,0.29 3.38,0.42 1.19,0.13 2.38,0.24 3.57,0.34 2.36,0.2 4.71,0.36 7.08,0.45 2.39,0.1 4.79,0.14 7.16,0.12 2.44,-0.02 4.87,-0.1 7.29,-0.23 2.49,-0.13 4.97,-0.33 7.44,-0.58 2.51,-0.26 5.02,-0.58 7.52,-0.94 2.57,-0.39 5.11,-0.83 7.65,-1.32 2.6,-0.51 5.19,-1.07 7.77,-1.7 2.65,-0.64 5.29,-1.34 7.92,-2.09 2.68,-0.77 5.37,-1.61 8.03,-2.49 2.73,-0.91 5.45,-1.88 8.17,-2.9 2.8,-1.05 5.58,-2.16 8.36,-3.33 2.84,-1.19 5.65,-2.44 8.45,-3.75 2.89,-1.33 5.75,-2.73 8.6,-4.17 2.93,-1.48 5.86,-3.02 8.76,-4.61 2.98,-1.64 5.94,-3.32 8.88,-5.06 3.03,-1.78 6.05,-3.62 9.04,-5.5 3.08,-1.94 6.15,-3.93 9.19,-5.95l1.03 -0.69c2.79,-1.87 5.56,-3.79 8.33,-5.73 3.18,-2.24 6.35,-4.52 9.52,-6.85 3.22,-2.36 6.42,-4.77 9.61,-7.21 3.27,-2.51 6.52,-5.04 9.74,-7.61 3.31,-2.62 6.59,-5.28 9.85,-7.95 2.86,-2.34 5.7,-4.7 8.51,-7.07l1.46 -1.24c3.42,-2.89 6.78,-5.78 10.1,-8.65 3.44,-2.98 6.83,-5.94 10.18,-8.88 3.46,-3.06 6.86,-6.08 10.22,-9.08 3.49,-3.11 6.9,-6.18 10.29,-9.23l8.41 -7.58 0.29 -0.29 0.04 0.04 1.6 -1.43c3.47,-3.14 6.91,-6.23 10.29,-9.26 3.46,-3.11 6.88,-6.16 10.24,-9.13 3.44,-3.05 6.83,-6.02 10.18,-8.89 3.4,-2.93 6.75,-5.77 10.04,-8.5 3.33,-2.76 6.62,-5.42 9.85,-7.95 3.26,-2.56 6.47,-4.99 9.63,-7.28 3.17,-2.3 6.3,-4.46 9.37,-6.46 3.08,-2.01 6.1,-3.86 9.08,-5.53 2.95,-1.66 5.84,-3.15 8.68,-4.46 2.83,-1.29 5.6,-2.41 8.33,-3.32 2.68,-0.9 5.32,-1.61 7.92,-2.12 2.54,-0.5 5.05,-0.8 7.51,-0.89l0.13 -0.01c2.41,-0.09 4.74,-0.01 7,0.23 2.35,0.25 4.61,0.67 6.8,1.27 2.23,0.62 4.37,1.44 6.42,2.46 2.08,1.03 4.07,2.27 5.97,3.72 1.93,1.49 3.77,3.21 5.5,5.16 1.76,1.99 3.42,4.23 4.97,6.71l0.43 0.71c1.41,2.35 2.74,4.9 3.99,7.67 1.39,3.09 2.68,6.45 3.87,10.1 1.19,3.66 2.28,7.61 3.26,11.85 0.99,4.28 1.87,8.85 2.64,13.74 0.77,4.95 1.43,10.22 1.98,15.81 0.54,5.61 0.96,11.56 1.26,17.86 0.11,2.24 0.2,4.52 0.28,6.86 0.15,4.28 0.24,8.66 0.28,13.13 0.06,7.22 -0.01,14.68 -0.23,22.35 -0.23,8.13 -0.61,16.51 -1.14,25.12 -0.57,9.16 -1.3,18.59 -2.19,28.26 -0.96,10.37 -2.11,21.02 -3.42,31.94 -1.43,11.86 -3.08,24.03 -4.93,36.48 -2.03,13.74 -4.31,27.81 -6.81,42.21 -2.81,16.13 -5.9,32.65 -9.26,49.5 -3.5,17.54 -7.3,35.44 -11.35,53.65l-1.45 6.44c-5.74,25.45 -12,51.48 -18.72,77.93 -9.97,39.27 -20.96,79.48 -32.76,120.11 -21.17,72.82 -44.96,147.01 -70.3,219.67 -11.34,32.51 -23,64.74 -34.91,96.41 -15.25,40.6 -30.87,80.3 -46.67,118.57 -10.85,26.26 -21.76,51.84 -32.7,76.57 -8.92,20.16 -17.85,39.76 -26.75,58.69 -7.73,16.45 -15.45,32.42 -23.12,47.82l-2.34 4.69c-6.11,12.18 -12.19,23.98 -18.22,35.39 -6.24,11.79 -12.42,23.15 -18.55,34.06 -5.7,10.14 -11.35,19.88 -16.92,29.2 -5.27,8.79 -10.48,17.19 -15.62,25.19 -4.86,7.56 -9.66,14.76 -14.39,21.57 -4.51,6.49 -8.95,12.62 -13.33,18.41 -4.2,5.53 -8.33,10.74 -12.4,15.59 -3.92,4.66 -7.77,9.01 -11.55,13.03 -3.66,3.87 -7.24,7.42 -10.77,10.65 -2.92,2.67 -5.77,5.12 -8.6,7.34l-1.43 1.11c-3.25,2.49 -6.4,4.75 -9.46,6.77 -3.11,2.05 -6.12,3.85 -9.05,5.42 -2.93,1.56 -5.78,2.9 -8.54,4.01 -2.79,1.11 -5.48,1.99 -8.09,2.64 -2.63,0.65 -5.18,1.07 -7.63,1.26 -1.25,0.1 -2.47,0.14 -3.67,0.12 -1.18,-0.01 -2.35,-0.09 -3.5,-0.23 -2.3,-0.26 -4.54,-0.76 -6.73,-1.48 -2.15,-0.71 -4.25,-1.64 -6.29,-2.76 -2.02,-1.12 -3.98,-2.44 -5.9,-3.97 -1.89,-1.51 -3.74,-3.2 -5.53,-5.09 -1.51,-1.58 -2.98,-3.28 -4.42,-5.12 -0.26,-0.33 -0.51,-0.67 -0.76,-0.99 -1.68,-2.26 -3.25,-4.74 -4.74,-7.44 -1.51,-2.76 -2.92,-5.73 -4.24,-8.93 -1.35,-3.25 -2.6,-6.73 -3.76,-10.41 -1.18,-3.74 -2.27,-7.7 -3.27,-11.85 -1.02,-4.21 -1.95,-8.63 -2.81,-13.24 -0.86,-4.66 -1.64,-9.51 -2.36,-14.54 -0.69,-4.85 -1.32,-9.87 -1.89,-15.04l-0.09 -0.8c-0.59,-5.48 -1.11,-11.13 -1.59,-16.9 -0.47,-5.83 -0.88,-11.78 -1.26,-17.88 -0.37,-6.1 -0.7,-12.33 -0.99,-18.69 -0.29,-6.36 -0.54,-12.84 -0.77,-19.42 -0.23,-6.52 -0.42,-13.14 -0.6,-19.85 -0.18,-6.65 -0.34,-13.38 -0.49,-20.19 -0.15,-6.51 -0.29,-13.09 -0.42,-19.72l-0.01 -0.64c-0.14,-6.76 -0.28,-13.58 -0.43,-20.45 -0.14,-6.71 -0.3,-13.46 -0.48,-20.23 -0.17,-6.64 -0.35,-13.3 -0.56,-19.98 -0.2,-6.54 -0.42,-13.09 -0.67,-19.63 -0.25,-6.41 -0.52,-12.81 -0.83,-19.2 -0.29,-6.26 -0.63,-12.51 -0.99,-18.73 -0.36,-6.07 -0.75,-12.12 -1.18,-18.12 -0.42,-5.88 -0.88,-11.72 -1.39,-17.5 -0.49,-5.67 -1.03,-11.27 -1.61,-16.82 -0.57,-5.43 -1.18,-10.81 -1.85,-16.12 -0.65,-5.2 -1.35,-10.34 -2.09,-15.4 -0.48,-3.26 -0.99,-6.49 -1.51,-9.69 -0.28,-1.65 -0.56,-3.3 -0.84,-4.94 -0.82,-4.69 -1.68,-9.31 -2.6,-13.83 -0.91,-4.45 -1.86,-8.82 -2.88,-13.09 -0.99,-4.17 -2.03,-8.25 -3.14,-12.24 -1.08,-3.9 -2.21,-7.72 -3.41,-11.44 -1.17,-3.65 -2.39,-7.21 -3.67,-10.67 -1.25,-3.38 -2.56,-6.67 -3.93,-9.87 -1.34,-3.12 -2.73,-6.16 -4.18,-9.09 -1.43,-2.87 -2.91,-5.65 -4.44,-8.33 -1.51,-2.63 -3.08,-5.16 -4.71,-7.6 -1.59,-2.37 -3.24,-4.64 -4.94,-6.81 -1.67,-2.13 -3.4,-4.16 -5.19,-6.09 -1.75,-1.89 -3.56,-3.68 -5.42,-5.37 -1.83,-1.65 -3.72,-3.2 -5.67,-4.65 -1.91,-1.43 -3.87,-2.76 -5.88,-3.98 -1.99,-1.2 -4.04,-2.29 -6.13,-3.28 -1.49,-0.71 -3.02,-1.37 -4.58,-1.97 -0.59,-0.23 -1.17,-0.44 -1.76,-0.66 -2.19,-0.83 -4.34,-1.59 -6.46,-2.3 -2.21,-0.73 -4.39,-1.41 -6.54,-2.02 -2.25,-0.64 -4.47,-1.21 -6.64,-1.73 -2.3,-0.53 -4.54,-1 -6.75,-1.4 -2.35,-0.41 -4.63,-0.75 -6.88,-1 -2.4,-0.28 -4.74,-0.47 -7.02,-0.57 -2.46,-0.12 -4.86,-0.13 -7.2,-0.06 -2.53,0.09 -5,0.28 -7.4,0.57 -2.63,0.32 -5.19,0.75 -7.67,1.32 -2.76,0.62 -5.41,1.4 -7.98,2.29 -2.91,1.03 -5.71,2.22 -8.39,3.57 -3.17,1.59 -6.16,3.41 -9.01,5.42 -3.57,2.51 -6.9,5.33 -10.01,8.41 -4.48,4.43 -8.51,9.39 -12.13,14.75 -5.72,8.5 -10.42,17.99 -14.28,27.93 -6.98,18.04 -11.01,37.6 -13.32,54.99 -1.46,11.05 -2.24,21.24 -2.63,29.58 -0.56,11.87 -0.36,20.05 -0.3,21.81l-0.04 0 0 0.08 0 0.04 0.04 0.24 0.01 0.38c0.06,3.93 -1.28,7.62 -3.5,10.53 -0.31,0.42 -0.66,0.81 -1.01,1.2 -2.21,2.35 -5.04,4.05 -8.22,4.85 -1.04,0.26 -2.1,0.43 -3.19,0.49l0 -0.04 -0.25 0.04 -0.04 0c-1.3,0.04 -2.57,-0.06 -3.79,-0.29 -2.31,-0.44 -4.47,-1.35 -6.34,-2.63 -0.69,-0.48 -1.36,-1.01 -1.98,-1.59 -1.32,-1.2 -2.44,-2.62 -3.31,-4.2 -1.18,-2.16 -1.9,-4.62 -2.02,-7.21l0 -0.08 -0.04 -0.24c-0.01,-0.36 -0.1,-3.11 -0.09,-7.72 0.01,-5.6 0.17,-13.95 0.82,-24.12 0.58,-9.14 1.55,-19.75 3.16,-31.16 2.89,-20.54 7.84,-43.66 16.24,-65.4 4.34,-11.21 9.66,-22.03 16.15,-31.91 3.79,-5.77 7.97,-11.21 12.6,-16.2 3.27,-3.53 6.77,-6.83 10.5,-9.88 3.01,-2.46 6.18,-4.74 9.5,-6.83 2.84,-1.79 5.78,-3.44 8.87,-4.94 2.7,-1.31 5.5,-2.5 8.39,-3.57 2.61,-0.96 5.29,-1.82 8.07,-2.57 2.53,-0.68 5.13,-1.26 7.8,-1.76 2.47,-0.45 4.99,-0.83 7.59,-1.13 2.41,-0.27 4.88,-0.45 7.4,-0.57 2.37,-0.11 4.79,-0.14 7.25,-0.11 2.34,0.04 4.71,0.13 7.13,0.29 2.3,0.15 4.63,0.37 7,0.64 2.27,0.27 4.55,0.58 6.9,0.96 2.23,0.37 4.5,0.78 6.8,1.25 2.21,0.45 4.44,0.95 6.72,1.5 2.18,0.53 4.39,1.09 6.64,1.71 2.16,0.6 4.36,1.26 6.57,1.94 2.14,0.67 4.31,1.37 6.5,2.12 2.13,0.73 4.28,1.51 6.46,2.32 1.07,0.4 2.13,0.8 3.22,1.21 1.07,0.42 2.12,0.86 3.17,1.29 2.12,0.91 4.2,1.88 6.24,2.92 2.08,1.06 4.11,2.19 6.09,3.38 2.02,1.22 4,2.51 5.93,3.87 1.97,1.38 3.89,2.83 5.77,4.36 1.91,1.54 3.77,3.17 5.59,4.85 1.86,1.72 3.66,3.52 5.42,5.38 1.81,1.91 3.55,3.89 5.26,5.94 1.73,2.09 3.42,4.25 5.06,6.47 1.67,2.28 3.3,4.62 4.87,7.03 1.61,2.47 3.17,5.01 4.67,7.62 1.54,2.67 3.04,5.42 4.48,8.22 1.48,2.87 2.9,5.82 4.27,8.84 1.4,3.08 2.76,6.24 4.06,9.47 1.34,3.31 2.62,6.7 3.85,10.15 1.26,3.52 2.47,7.11 3.63,10.78 1.18,3.75 2.32,7.57 3.4,11.45 1.11,3.98 2.17,8.03 3.18,12.14 1.03,4.22 2.01,8.49 2.94,12.84 0.37,1.74 0.75,3.49 1.1,5.26 0.56,2.73 1.09,5.48 1.62,8.25 0.88,4.69 1.7,9.42 2.49,14.21 0.8,4.93 1.55,9.9 2.24,14.92 0.72,5.18 1.4,10.4 2.02,15.67 0.64,5.39 1.24,10.83 1.78,16.31 0.56,5.63 1.08,11.29 1.56,17 0.49,5.84 0.94,11.73 1.34,17.62 0.42,6.06 0.8,12.14 1.14,18.24 0.35,6.28 0.67,12.57 0.96,18.87 0.29,6.43 0.55,12.87 0.78,19.31 0.24,6.59 0.45,13.16 0.64,19.72 0.2,6.7 0.37,13.39 0.53,20.05 0.17,6.81 0.32,13.59 0.47,20.32l0.29 13.77 0.13 6.61c0.14,6.86 0.29,13.65 0.44,20.35 0.15,6.83 0.31,13.57 0.5,20.18 0.18,6.77 0.39,13.41 0.61,19.91 0.23,6.6 0.48,13.05 0.77,19.31 0.3,6.41 0.63,12.63 1.02,18.63 0.34,5.52 0.73,10.86 1.15,15.98l0.15 1.74c0.5,5.75 1.07,11.29 1.71,16.56 0.65,5.31 1.37,10.35 2.18,15.12 0.81,4.8 1.72,9.31 2.72,13.51 1,4.22 2.11,8.11 3.33,11.65 1.24,3.57 2.57,6.79 4.04,9.63 1.26,2.44 2.62,4.6 4.07,6.45l0 0.04c0.23,0.29 0.46,0.57 0.7,0.83 1.68,1.83 3.71,2.95 6.1,3.33 2.2,0.34 4.71,0.04 7.54,-0.96 0.8,-0.28 1.63,-0.62 2.49,-1.01 1.79,-0.81 3.87,-1.96 6.21,-3.47 2.77,-1.78 5.92,-4.06 9.5,-6.85l0.29 -0.22c3.21,-2.52 6.48,-5.37 9.82,-8.52 3.57,-3.37 7.22,-7.08 10.92,-11.15 3.87,-4.25 7.83,-8.87 11.84,-13.84 4.19,-5.18 8.44,-10.75 12.76,-16.67 4.54,-6.24 9.14,-12.87 13.82,-19.88 4.95,-7.43 9.98,-15.29 15.07,-23.57 5.42,-8.79 10.9,-18.06 16.45,-27.74 5.97,-10.41 12,-21.32 18.09,-32.68 6.65,-12.41 13.36,-25.36 20.13,-38.81 2.15,-4.28 4.31,-8.62 6.48,-13.01 5.4,-10.94 10.83,-22.19 16.29,-33.72 8.79,-18.59 17.63,-37.92 26.5,-57.88 10.75,-24.23 21.53,-49.39 32.27,-75.3 15.27,-36.85 30.45,-75.22 45.34,-114.56 13.67,-36.11 27.1,-73.05 40.13,-110.4 26.84,-76.98 51.95,-155.65 73.96,-232.41 11.1,-38.68 21.41,-76.86 30.76,-114.11 6,-23.88 11.61,-47.38 16.78,-70.36l1.16 -5.19c4.45,-19.97 8.56,-39.55 12.3,-58.66 3.23,-16.45 6.18,-32.55 8.85,-48.26 2.38,-13.97 4.52,-27.61 6.42,-40.91 1.73,-12.1 3.25,-23.9 4.57,-35.39 1.21,-10.61 2.25,-20.95 3.11,-31.01 0.79,-9.39 1.42,-18.52 1.87,-27.39 0.43,-8.3 0.71,-16.36 0.84,-24.17 0.12,-7.38 0.1,-14.54 -0.07,-21.46 -0.04,-1.78 -0.09,-3.56 -0.15,-5.31 -0.17,-5.07 -0.37,-9.79 -0.58,-14.19 -0.34,-6.75 -0.75,-12.75 -1.21,-18.03 -0.55,-6.29 -1.18,-11.56 -1.91,-15.93 -0.11,-0.7 -0.23,-1.38 -0.35,-2.04 -0.73,-4.07 -1.65,-7.5 -2.75,-10.34 -1.3,-3.38 -2.85,-5.91 -4.64,-7.68 -1.83,-1.81 -3.9,-2.83 -6.2,-3.13 -0.64,-0.09 -1.29,-0.12 -1.96,-0.1 -1.72,0.05 -3.57,0.36 -5.53,0.89 -2.57,0.7 -5.34,1.81 -8.29,3.27 -2.81,1.39 -5.79,3.1 -8.92,5.11 -2.98,1.92 -6.12,4.09 -9.38,6.51 -2.29,1.7 -4.65,3.52 -7.08,5.43l0.04 0c-0.89,0.71 -1.8,1.43 -2.71,2.17 -3.21,2.59 -6.53,5.34 -9.94,8.23 -3.3,2.79 -6.68,5.7 -10.15,8.73 -3.33,2.92 -6.75,5.93 -10.22,9.04 -3.36,2.99 -6.79,6.07 -10.27,9.21 -3.03,2.73 -6.1,5.5 -9.21,8.3l-1.09 0.99c-3.4,3.06 -6.83,6.15 -10.31,9.28 -3.38,3.04 -6.81,6.12 -10.28,9.2 -3.36,2.99 -6.76,5.99 -10.2,9.01 -3.34,2.93 -6.72,5.86 -10.12,8.78 -3.33,2.85 -6.7,5.69 -10.1,8.53l-0.07 0.06c-3.26,2.75 -6.56,5.48 -9.88,8.18 -3.25,2.66 -6.53,5.29 -9.83,7.91 -3.22,2.54 -6.46,5.06 -9.74,7.56 -3.18,2.43 -6.38,4.82 -9.61,7.19 -3.14,2.3 -6.29,4.58 -9.47,6.81 -3.09,2.18 -6.21,4.32 -9.35,6.44l-0.03 0.02c-3.06,2.04 -6.12,4.05 -9.2,6.02 -3.01,1.93 -6.05,3.82 -9.09,5.68 -2.99,1.81 -5.99,3.59 -9.01,5.32 -2.95,1.69 -5.9,3.34 -8.87,4.94 -2.9,1.56 -5.81,3.09 -8.73,4.57 -2.87,1.45 -5.73,2.84 -8.6,4.2 -2.82,1.33 -5.65,2.61 -8.49,3.84 -2.79,1.21 -5.58,2.37 -8.38,3.48 -2.74,1.09 -5.49,2.13 -8.25,3.11 -2.7,0.98 -5.42,1.9 -8.14,2.77 -2.68,0.86 -5.36,1.67 -8.05,2.43 -2.63,0.74 -5.26,1.43 -7.9,2.08 -2.6,0.63 -5.19,1.21 -7.79,1.74 -2.56,0.52 -5.12,0.99 -7.69,1.42 -2.51,0.4 -5.04,0.77 -7.57,1.08 -2.49,0.31 -4.97,0.56 -7.46,0.77 -2.46,0.2 -4.91,0.36 -7.36,0.45 -2.43,0.1 -4.87,0.15 -7.3,0.15 -2.38,0 -4.77,-0.05 -7.16,-0.15 -2.35,-0.1 -4.7,-0.25 -7.05,-0.45 -1.04,-0.09 -2.08,-0.18 -3.11,-0.29 -1.28,-0.13 -2.57,-0.29 -3.86,-0.45 -2.28,-0.3 -4.57,-0.63 -6.86,-1.03 -2.26,-0.39 -4.52,-0.83 -6.78,-1.32 -2.22,-0.48 -4.46,-1 -6.69,-1.58 -2.19,-0.57 -4.39,-1.19 -6.59,-1.86 -2.17,-0.66 -4.35,-1.37 -6.53,-2.12 -2.14,-0.75 -4.28,-1.53 -6.42,-2.37 -2.11,-0.83 -4.23,-1.7 -6.35,-2.62 -2.08,-0.91 -4.17,-1.86 -6.25,-2.87 -2.06,-0.99 -4.12,-2.02 -6.18,-3.1 -2.03,-1.07 -4.06,-2.19 -6.1,-3.35 -2,-1.14 -4.01,-2.33 -6.02,-3.57 -1.99,-1.22 -3.96,-2.49 -5.95,-3.79 -1.97,-1.3 -3.93,-2.64 -5.89,-4.03 -1.94,-1.37 -3.87,-2.77 -5.81,-4.23 -1.91,-1.43 -3.82,-2.92 -5.73,-4.44 -1.89,-1.51 -3.78,-3.06 -5.67,-4.65 -1.87,-1.57 -3.74,-3.19 -5.6,-4.85 -1.85,-1.64 -3.69,-3.33 -5.53,-5.04 -1.82,-1.71 -3.64,-3.45 -5.46,-5.24 -1.81,-1.77 -3.61,-3.58 -5.41,-5.44 -1.79,-1.84 -3.57,-3.71 -5.37,-5.64 -1.76,-1.89 -3.52,-3.83 -5.28,-5.8 -1.73,-1.95 -3.48,-3.95 -5.21,-5.99 -1.73,-2.01 -3.44,-4.07 -5.17,-6.16 -1.7,-2.07 -3.41,-4.19 -5.1,-6.33 -1.68,-2.13 -3.36,-4.3 -5.04,-6.51 -1.67,-2.18 -3.33,-4.4 -5,-6.67 -1.64,-2.24 -3.29,-4.51 -4.93,-6.83 -1.64,-2.3 -3.27,-4.64 -4.91,-7.02 -1.08,-1.59 -2.17,-3.18 -3.26,-4.8l-1.56 -2.33 -4.83 -7.17c-1.62,-2.4 -3.23,-4.78 -4.84,-7.13 -1.62,-2.39 -3.24,-4.76 -4.85,-7.1 -1.63,-2.38 -3.25,-4.74 -4.86,-7.08 -1.63,-2.37 -3.25,-4.71 -4.87,-7.03 -1.63,-2.35 -3.26,-4.69 -4.88,-7 -1.65,-2.35 -3.29,-4.69 -4.92,-6.99 -1.64,-2.33 -3.28,-4.63 -4.91,-6.91 -1.65,-2.31 -3.29,-4.59 -4.93,-6.85 -1.66,-2.3 -3.31,-4.56 -4.94,-6.8 -1.67,-2.28 -3.33,-4.53 -4.98,-6.75 -1.67,-2.25 -3.33,-4.48 -4.99,-6.67 -1.67,-2.23 -3.35,-4.44 -5.01,-6.61 -1.69,-2.21 -3.36,-4.39 -5.04,-6.54 -1.7,-2.19 -3.4,-4.35 -5.08,-6.47 -1.71,-2.16 -3.41,-4.28 -5.1,-6.37 -1.72,-2.12 -3.42,-4.2 -5.12,-6.26 -1.73,-2.09 -3.45,-4.14 -5.17,-6.16 -1.73,-2.05 -3.46,-4.07 -5.2,-6.05 -1.75,-2.02 -3.49,-4 -5.23,-5.93 -1.77,-1.98 -3.54,-3.9 -5.29,-5.8 -1.78,-1.93 -3.56,-3.81 -5.32,-5.65 -1.81,-1.89 -3.61,-3.72 -5.4,-5.51 -1.83,-1.83 -3.64,-3.6 -5.45,-5.33 -1.84,-1.75 -3.68,-3.47 -5.5,-5.13 -1.86,-1.7 -3.72,-3.34 -5.56,-4.93 -1.89,-1.63 -3.77,-3.19 -5.64,-4.71 -1.92,-1.55 -3.82,-3.05 -5.73,-4.47 -1.94,-1.47 -3.87,-2.87 -5.81,-4.21 -0.74,-0.51 -1.48,-1.02 -2.23,-1.53 -1.23,-0.82 -2.45,-1.62 -3.67,-2.39 -2.02,-1.28 -4.04,-2.5 -6.04,-3.64 -2.05,-1.17 -4.08,-2.27 -6.11,-3.3 -2.08,-1.05 -4.16,-2.03 -6.24,-2.93 -2.13,-0.93 -4.25,-1.78 -6.37,-2.54 -2.18,-0.78 -4.34,-1.48 -6.51,-2.08 -2.23,-0.63 -4.46,-1.16 -6.68,-1.6 -2.29,-0.45 -4.58,-0.81 -6.85,-1.06 -2.36,-0.26 -4.72,-0.41 -7.08,-0.45 -2.44,-0.04 -4.88,0.04 -7.32,0.25 -2.51,0.21 -5.04,0.55 -7.54,1.02 -2.62,0.5 -5.24,1.13 -7.86,1.91 -2.73,0.81 -5.45,1.78 -8.17,2.9 -2.85,1.18 -5.7,2.54 -8.56,4.06 -3,1.6 -5.99,3.4 -9.01,5.39 -3.17,2.1 -6.35,4.4 -9.53,6.94 -3.36,2.67 -6.74,5.58 -10.12,8.75 -3.52,3.29 -7.06,6.85 -10.62,10.68l-0.26 0.29c-3.85,4.14 -7.72,8.55 -11.63,13.25 -4.09,4.9 -8.22,10.1 -12.41,15.6 -4.38,5.77 -8.8,11.86 -13.3,18.3 -4.71,6.76 -9.5,13.89 -14.34,21.4 -5.08,7.88 -10.24,16.16 -15.48,24.87 -5.5,9.15 -11.11,18.76 -16.81,28.85 -5.99,10.58 -12.08,21.69 -18.3,33.32 -4.35,8.14 -8.76,16.53 -13.23,25.19 -2.27,4.39 -4.55,8.84 -6.85,13.36 -7.11,14 -14.39,28.64 -21.83,43.94 -7.76,15.93 -15.69,32.57 -23.83,49.93 -8.43,17.98 -17.07,36.73 -25.95,56.27 -9.09,20.04 -18.44,40.9 -28.04,62.61 -9.77,22.07 -19.8,45.02 -30.12,68.86 -4.67,10.77 -9.39,21.72 -14.18,32.86l-0.74 1.74 0.07 2.02 0.29 7.13c0.26,6.43 0.52,12.85 0.79,19.28 0.27,6.39 0.55,12.79 0.83,19.19 0.28,6.37 0.56,12.74 0.86,19.12 0.29,6.35 0.58,12.68 0.88,19.03 0.29,6.32 0.59,12.65 0.9,18.97 0.3,6.32 0.61,12.64 0.92,18.96 0.31,6.28 0.62,12.56 0.94,18.85 0.31,6.26 0.64,12.52 0.96,18.79l0.96 18.74 0.08 1.49 0.91 17.24 0.99 18.68 1 18.65 1.02 18.63 1.03 18.64 1.02 18.57 1.04 18.59 1.04 18.54 1.04 18.54 0.8 14.41 0.04 0.58 0.2 3.55 1.04 18.56 1.04 18.55 1.04 18.6 1.03 18.58 1.03 18.59 1.02 18.6 1.01 18.63 1.01 18.68 0.98 18.7 0.98 18.74 0.96 18.83c0.31,6.29 0.63,12.57 0.94,18.84 0.31,6.3 0.61,12.6 0.92,18.88 0.31,6.33 0.61,12.65 0.91,18.96 0.29,6.35 0.59,12.68 0.88,19.01 0.29,6.37 0.58,12.73 0.86,19.09 0.29,6.4 0.57,12.79 0.83,19.17 0.28,6.43 0.55,12.85 0.81,19.26 0.26,6.48 0.52,12.93 0.77,19.39 0.25,6.5 0.49,12.99 0.73,19.46 0.24,6.54 0.48,13.07 0.7,19.58 0.23,6.58 0.45,13.14 0.66,19.69 0.21,6.62 0.42,13.23 0.61,19.82 0.2,6.68 0.39,13.34 0.56,19.99 0.18,6.73 0.36,13.44 0.52,20.12 0.16,6.78 0.31,13.55 0.45,20.29 0.14,6.86 0.28,13.7 0.39,20.52 0.12,6.92 0.23,13.82 0.33,20.69 0.1,7 0.18,13.97 0.25,20.91 0.07,7.08 0.13,14.14 0.18,21.16 0.04,7.19 0.07,14.33 0.07,21.46 0.01,7.28 0,14.53 -0.02,21.75 -0.03,7.4 -0.08,14.75 -0.15,22.08 -0.06,7.51 -0.15,15.01 -0.26,22.45 -0.11,7.67 -0.23,15.31 -0.39,22.9 -0.16,7.84 -0.34,15.62 -0.56,23.36 -0.22,8.03 -0.48,16.01 -0.75,23.94 -0.29,8.24 -0.6,16.43 -0.95,24.55 -0.37,8.51 -0.78,16.94 -1.22,25.33 -0.46,8.81 -0.96,17.55 -1.51,26.21 -0.58,9.21 -1.21,18.33 -1.89,27.37 -0.72,9.65 -1.49,19.21 -2.33,28.67 -0.91,10.31 -1.89,20.49 -2.95,30.56 -1.17,11.16 -2.43,22.19 -3.78,33.04 -1.56,12.54 -3.27,24.85 -5.09,36.97 -2.24,14.88 -4.66,29.42 -7.31,43.62 -4.03,21.67 -8.55,42.54 -13.59,62.51 -7.02,27.79 -15.04,53.9 -24.2,78.13 -3.41,9.02 -6.91,17.73 -10.5,26.13 -7.4,17.35 -15.15,33.36 -23.21,48.07 -5.33,9.73 -10.79,18.89 -16.36,27.48 -4.54,7 -9.14,13.62 -13.82,19.87 -2.97,3.96 -5.97,7.78 -8.99,11.44 -1.13,1.37 -2.24,2.7 -3.38,4.03 -3.76,4.39 -7.55,8.55 -11.37,12.49 -3.52,3.63 -7.07,7.06 -10.64,10.3 -3.34,3.03 -6.7,5.88 -10.08,8.57 -3.18,2.54 -6.38,4.93 -9.59,7.17 -3.06,2.13 -6.13,4.13 -9.21,5.99 -2.95,1.78 -5.91,3.44 -8.87,4.96 -2.85,1.48 -5.71,2.83 -8.57,4.07 -2.77,1.2 -5.54,2.3 -8.3,3.27 -2.46,0.88 -4.92,1.67 -7.38,2.36l-0.68 0.2c-2.63,0.74 -5.25,1.38 -7.86,1.93 -2.57,0.54 -5.12,0.99 -7.67,1.36 -2.51,0.37 -5,0.63 -7.49,0.83 -2.45,0.18 -4.89,0.29 -7.32,0.31 -2.4,0.02 -4.78,-0.03 -7.16,-0.16 -2.35,-0.12 -4.69,-0.33 -7.02,-0.61 -2.3,-0.27 -4.58,-0.61 -6.86,-1.04 -1.78,-0.33 -3.57,-0.69 -5.34,-1.12 -0.47,-0.1 -0.94,-0.22 -1.4,-0.34 -2.21,-0.55 -4.41,-1.17 -6.59,-1.86 -2.16,-0.68 -4.32,-1.43 -6.47,-2.24 -2.12,-0.8 -4.24,-1.67 -6.35,-2.61 -2.08,-0.94 -4.16,-1.93 -6.23,-2.98 -2.04,-1.05 -4.08,-2.16 -6.1,-3.33 -2,-1.16 -4,-2.39 -5.99,-3.68 -1.97,-1.27 -3.93,-2.61 -5.88,-4.01 -1.94,-1.39 -3.86,-2.84 -5.77,-4.34 -1.18,-0.92 -2.35,-1.87 -3.52,-2.84 -0.71,-0.6 -1.43,-1.21 -2.14,-1.82 -1.86,-1.61 -3.71,-3.27 -5.56,-5.01 -1.82,-1.72 -3.63,-3.49 -5.43,-5.34 -1.79,-1.83 -3.57,-3.71 -5.34,-5.66 -1.75,-1.94 -3.49,-3.93 -5.21,-5.99 -1.73,-2.05 -3.43,-4.15 -5.12,-6.32 -1.68,-2.16 -3.35,-4.37 -5.01,-6.64 -1.64,-2.27 -3.27,-4.59 -4.9,-6.97 -1.61,-2.38 -3.2,-4.81 -4.78,-7.3 -0.52,-0.83 -1.05,-1.65 -1.56,-2.49 -1.05,-1.7 -2.09,-3.41 -3.12,-5.15 -1.54,-2.6 -3.06,-5.25 -4.56,-7.95 -1.51,-2.71 -2.99,-5.48 -4.45,-8.3 -1.47,-2.82 -2.91,-5.7 -4.33,-8.64 -1.43,-2.95 -2.84,-5.94 -4.23,-8.99 -1.39,-3.07 -2.76,-6.18 -4.1,-9.35 -1.35,-3.19 -2.68,-6.43 -3.98,-9.73 -1.3,-3.3 -2.59,-6.67 -3.85,-10.1 -1.13,-3.07 -2.24,-6.18 -3.33,-9.34l-0.39 -1.15c-1.22,-3.57 -2.42,-7.2 -3.59,-10.88 -1.18,-3.71 -2.33,-7.47 -3.46,-11.3 -1.13,-3.85 -2.24,-7.76 -3.31,-11.73 -1.08,-4 -2.14,-8.06 -3.16,-12.17 -1.04,-4.15 -2.04,-8.36 -3.02,-12.62 -0.98,-4.31 -1.93,-8.67 -2.86,-13.1 -0.93,-4.47 -1.82,-9 -2.69,-13.59 -0.87,-4.64 -1.71,-9.36 -2.51,-14.13 -0.82,-4.82 -1.59,-9.72 -2.34,-14.67 -0.75,-5.01 -1.47,-10.09 -2.14,-15.23 -0.69,-5.2 -1.34,-10.48 -1.94,-15.83 -0.61,-5.43 -1.19,-10.94 -1.72,-16.51 -0.55,-5.65 -1.04,-11.39 -1.5,-17.19 -0.46,-5.9 -0.88,-11.87 -1.25,-17.92 -0.38,-6.17 -0.71,-12.42 -0.98,-18.73 -0.29,-6.45 -0.53,-12.98 -0.7,-19.59 -0.18,-6.77 -0.31,-13.62 -0.38,-20.54 -0.07,-7.1 -0.09,-14.28 -0.04,-21.56 0.05,-7.49 0.17,-15.07 0.35,-22.74 0.19,-7.91 0.45,-15.92 0.78,-24.02 0.34,-8.39 0.76,-16.88 1.26,-25.48 0.52,-8.95 1.13,-18.01 1.83,-27.17 0.72,-9.6 1.56,-19.31 2.49,-29.15 0.97,-10.36 2.06,-20.85 3.26,-31.48 1.27,-11.28 2.67,-22.71 4.2,-34.28 0.9,-6.77 1.83,-13.59 2.82,-20.45 0.83,-5.8 1.7,-11.63 2.6,-17.49 2.15,-14.05 4.49,-28.3 7.02,-42.76 2.86,-16.29 5.96,-32.84 9.31,-49.64 3.97,-19.85 8.28,-40.04 12.96,-60.6 6.22,-27.31 13.1,-55.24 20.66,-83.78 28.03,-105.81 65.42,-219.95 113.8,-341.94 5.9,-14.88 11.97,-29.87 18.19,-44.98 6.97,-16.89 13.86,-33.58 20.68,-50.1 12.51,-30.29 24.78,-59.96 36.86,-89.1 12.27,-29.58 24.33,-58.62 36.24,-87.22l1.94 -4.67c11.36,-27.24 22.43,-53.68 33.24,-79.34 11.56,-27.5 22.82,-54.11 33.77,-79.83 5.65,-13.27 11.22,-26.3 16.71,-39.09l0.74 -1.78 -0.07 -1.94 -0.33 -8.42c-0.25,-6.5 -0.49,-12.99 -0.72,-19.47 -0.24,-6.54 -0.48,-13.07 -0.7,-19.59 -0.23,-6.58 -0.44,-13.14 -0.66,-19.7 -0.21,-6.62 -0.41,-13.22 -0.61,-19.82 -0.2,-6.69 -0.39,-13.36 -0.57,-20.02 -0.18,-6.72 -0.35,-13.41 -0.52,-20.11 -0.17,-6.76 -0.32,-13.52 -0.47,-20.26 -0.15,-6.82 -0.29,-13.63 -0.42,-20.42 -0.12,-6.88 -0.25,-13.76 -0.35,-20.61 -0.11,-6.95 -0.2,-13.89 -0.29,-20.8 -0.09,-7.02 -0.16,-14.02 -0.22,-21 -0.07,-7.11 -0.11,-14.2 -0.15,-21.27 -0.03,-7.21 -0.05,-14.39 -0.06,-21.56 0,-7.27 0.01,-14.53 0.04,-21.76 0.03,-7.38 0.07,-14.74 0.14,-22.07 0.06,-7.49 0.14,-14.97 0.24,-22.42 0.1,-7.61 0.23,-15.2 0.37,-22.76 0.15,-7.76 0.31,-15.48 0.5,-23.17 0.2,-7.92 0.42,-15.8 0.66,-23.66 0.25,-8.08 0.53,-16.13 0.83,-24.14 0.31,-8.3 0.65,-16.58 1.02,-24.81 0.38,-8.5 0.79,-16.97 1.24,-25.38 0.47,-8.78 0.96,-17.51 1.5,-26.19 0.56,-9.08 1.15,-18.1 1.81,-27.07 0.67,-9.44 1.39,-18.84 2.16,-28.16l0.56 -6.64c0.65,-7.68 1.34,-15.31 2.05,-22.9 0.99,-10.49 2.05,-20.88 3.17,-31.19 1.23,-11.26 2.54,-22.41 3.93,-33.43 1.56,-12.43 3.23,-24.71 5.01,-36.83 2.06,-14.09 4.28,-27.98 6.64,-41.64 3.01,-17.41 6.28,-34.45 9.81,-51.12 6.9,-32.61 14.81,-63.77 23.85,-93.31zm-56.81 2316.86c4.61,-18.91 8.76,-38.62 12.46,-59.12 2.49,-13.79 4.78,-27.94 6.89,-42.4 1.73,-11.83 3.33,-23.87 4.82,-36.13 1.29,-10.67 2.49,-21.51 3.6,-32.49 1,-9.93 1.95,-19.98 2.81,-30.15 0.8,-9.35 1.54,-18.81 2.22,-28.36 0.64,-8.92 1.24,-17.93 1.78,-27.02 0.51,-8.61 1,-17.28 1.44,-26.04 0.42,-8.28 0.78,-16.65 1.13,-25.06 0.32,-8.06 0.63,-16.18 0.89,-24.36 0.26,-7.88 0.5,-15.79 0.69,-23.77 0.2,-7.68 0.36,-15.41 0.5,-23.18 0.14,-7.53 0.26,-15.1 0.35,-22.72 0.09,-7.41 0.16,-14.85 0.22,-22.33 0.04,-7.3 0.08,-14.62 0.1,-21.97 0.01,-7.19 0.01,-14.41 -0.01,-21.67 -0.03,-7.08 -0.07,-14.19 -0.12,-21.32 -0.05,-6.99 -0.12,-14.01 -0.2,-21.05 -0.08,-6.92 -0.17,-13.87 -0.28,-20.84 -0.11,-6.84 -0.23,-13.72 -0.35,-20.61 -0.13,-6.78 -0.27,-13.59 -0.42,-20.41 -0.15,-6.73 -0.31,-13.47 -0.48,-20.24 -0.18,-6.67 -0.35,-13.36 -0.54,-20.07 -0.18,-6.63 -0.38,-13.28 -0.58,-19.94 -0.2,-6.57 -0.42,-13.17 -0.63,-19.78 -0.22,-6.53 -0.45,-13.08 -0.68,-19.65 -0.23,-6.48 -0.47,-12.99 -0.72,-19.51 -0.24,-6.46 -0.49,-12.92 -0.75,-19.42 -0.25,-6.43 -0.51,-12.87 -0.77,-19.32 -0.27,-6.4 -0.54,-12.81 -0.82,-19.22 -0.28,-6.37 -0.56,-12.75 -0.84,-19.15 -0.29,-6.36 -0.58,-12.73 -0.88,-19.11 -0.29,-6.32 -0.59,-12.65 -0.89,-18.98 -0.3,-6.3 -0.61,-12.61 -0.91,-18.93 -0.31,-6.27 -0.62,-12.57 -0.94,-18.87l-0.96 -18.81 -0.96 -18.76 -0.98 -18.73 -0.99 -18.69 -1.01 -18.68 -1.02 -18.62 -1.02 -18.61 -1.04 -18.57 -1.03 -18.55 -1.04 -18.55 -1.05 -18.56 -0.81 -14.5 0 -0.54 -0.1 -1.7 -0.11 -1.86 -1.04 -18.58 -1.05 -18.55 -1.04 -18.55 -1.03 -18.56 -1.04 -18.59 -1.02 -18.59 -1.02 -18.63 -1 -18.64 -1 -18.75 -0.98 -18.71c-0.32,-6.26 -0.64,-12.52 -0.96,-18.77 -0.32,-6.28 -0.64,-12.56 -0.95,-18.82 -0.31,-6.29 -0.62,-12.59 -0.94,-18.86l-0.37 -7.59 -0.55 -11.32 -0.91 -18.95 -0.37 -7.72 -14.77 35.02 -5.51 13.09c-11.65,27.71 -23.36,55.64 -35.17,83.94 -8.14,19.53 -16.35,39.24 -24.6,59.16 -3.78,9.09 -7.65,18.4 -11.59,27.91 -11.62,28.03 -23.95,57.84 -36.89,89.19 -7.7,18.65 -15.63,37.85 -23.76,57.56 -4.94,11.99 -9.77,23.9 -14.51,35.74 -51.56,128.93 -90.74,248.78 -119.48,358.98 -7.12,27.32 -13.6,54.03 -19.47,80.15 -4.5,20.04 -8.65,39.74 -12.45,59.07 -3.22,16.41 -6.18,32.57 -8.91,48.47 -2.43,14.18 -4.68,28.15 -6.73,41.92l-0.48 3.21c-1.69,11.46 -3.23,22.76 -4.66,33.93 -1.46,11.37 -2.79,22.59 -3.99,33.66 -1.12,10.39 -2.13,20.67 -3.03,30.8 -0.86,9.63 -1.62,19.13 -2.28,28.51 -0.63,8.98 -1.18,17.85 -1.64,26.61 -0.44,8.42 -0.8,16.74 -1.09,24.95 -0.28,7.93 -0.48,15.78 -0.61,23.51 -0.12,7.51 -0.18,14.91 -0.18,22.23 0.01,7.11 0.07,14.14 0.2,21.07 0.12,6.78 0.3,13.47 0.53,20.08 0.23,6.45 0.53,12.81 0.86,19.1 0.33,6.16 0.71,12.26 1.13,18.27 0.42,5.9 0.89,11.72 1.4,17.46 0.5,5.66 1.05,11.24 1.64,16.74 0.58,5.43 1.21,10.79 1.87,16.07 0.66,5.2 1.35,10.33 2.09,15.4 0.73,5 1.49,9.93 2.3,14.8 0.79,4.81 1.61,9.56 2.48,14.24 0.85,4.63 1.73,9.19 2.65,13.68 0.91,4.44 1.86,8.82 2.84,13.15 0.97,4.28 1.97,8.49 3,12.65 1.02,4.12 2.08,8.19 3.16,12.19 1.07,3.97 2.18,7.88 3.31,11.73 1.13,3.83 2.28,7.6 3.46,11.29 1.17,3.68 2.37,7.3 3.6,10.86l0.04 0.09c1.21,3.52 2.46,6.96 3.71,10.34 1.27,3.4 2.57,6.74 3.88,10.01 1.32,3.27 2.65,6.48 4.01,9.61 1.37,3.14 2.75,6.21 4.15,9.23 1.4,3.01 2.83,5.96 4.28,8.84 1.45,2.88 2.92,5.7 4.4,8.45 1.48,2.76 3,5.45 4.52,8.07 0.79,1.35 1.58,2.68 2.38,3.99 0.76,1.24 1.52,2.48 2.29,3.68 1.58,2.51 3.17,4.93 4.78,7.3 1.62,2.38 3.26,4.69 4.92,6.92 1.66,2.24 3.33,4.43 5.03,6.54 1.71,2.13 3.43,4.18 5.17,6.16 1.75,2 3.51,3.93 5.29,5.78 1.79,1.86 3.6,3.66 5.42,5.38 1.84,1.74 3.69,3.4 5.56,4.99l0.96 0.82c1.56,1.3 3.14,2.55 4.73,3.75 1.93,1.45 3.87,2.83 5.84,4.12 1.98,1.31 3.98,2.54 5.99,3.68 2.03,1.15 4.08,2.23 6.15,3.22 2.08,1 4.19,1.91 6.3,2.73 2.14,0.83 4.31,1.57 6.47,2.22 1.24,0.37 2.49,0.72 3.73,1.03 0.97,0.24 1.94,0.47 2.92,0.67 2.27,0.48 4.55,0.86 6.83,1.15 2.34,0.29 4.69,0.47 7.02,0.55 2.42,0.08 4.83,0.04 7.25,-0.1 2.5,-0.14 4.99,-0.41 7.49,-0.8 2.58,-0.4 5.17,-0.94 7.74,-1.59 0.81,-0.21 1.62,-0.43 2.42,-0.66 1.87,-0.54 3.75,-1.14 5.62,-1.81 2.78,-0.99 5.56,-2.11 8.33,-3.38 2.9,-1.32 5.8,-2.79 8.68,-4.41 3.03,-1.7 6.07,-3.57 9.08,-5.62 3.19,-2.15 6.38,-4.5 9.56,-7.02 3.38,-2.71 6.77,-5.64 10.14,-8.78 3.64,-3.41 7.27,-7.06 10.87,-10.99 3.98,-4.33 7.94,-8.98 11.86,-13.95l1.35 -1.73c4.02,-5.17 8,-10.69 11.95,-16.55 5.33,-7.92 10.59,-16.48 15.76,-25.67 7.53,-13.4 14.87,-28.16 21.94,-44.27 4.37,-9.95 8.64,-20.42 12.8,-31.4 9.52,-25.2 17.77,-52.59 24.91,-81.9z"/>
 </g>
</svg>
