<?xml version="1.0" encoding="UTF-8"?>
<!DOCTYPE svg PUBLIC "-//W3C//DTD SVG 1.1//EN" "http://www.w3.org/Graphics/SVG/1.1/DTD/svg11.dtd">
<!-- Creator: CorelDRAW -->
<svg xmlns="http://www.w3.org/2000/svg" xml:space="preserve" width="15.8646mm" height="29.7947mm" version="1.1" style="shape-rendering:geometricPrecision; text-rendering:geometricPrecision; image-rendering:optimizeQuality; fill-rule:evenodd; clip-rule:evenodd"
viewBox="0 0 40581.35 76214.29"
 xmlns:xlink="http://www.w3.org/1999/xlink"
 xmlns:xodm="http://www.corel.com/coreldraw/odm/2003">
 <defs>
  <style type="text/css">
   <![CDATA[
    .fil0 {fill:url(#id0);fill-rule:nonzero}
   ]]>
  </style>
  <linearGradient id="id0" gradientUnits="userSpaceOnUse" x1="7393.33" y1="25643.76" x2="37871.68" y2="33343.29">
   <stop offset="0" style="stop-opacity:1; stop-color:#EDA335"/>
   <stop offset="1" style="stop-opacity:1; stop-color:#B37F3B"/>
  </linearGradient>
 </defs>
 <g id="Camada_x0020_1">
  <metadata id="CorelCorpID_0Corel-Layer"/>
  <path class="fil0" d="M11430.6 8545.96c110.76,-362.98 228.43,-716.75 352.75,-1060.28 250.68,-692.7 528.73,-1345.5 837.23,-1954.04 24.56,-48.6 49.37,-96.95 74.44,-145.04 127.9,-246.08 260.91,-484.48 398.79,-715.72 126.62,-212.57 257.33,-419 392.65,-618.52 114.09,-168.83 231.24,-333.05 351.72,-492.41 104.88,-138.39 212.06,-273.45 321.54,-404.93 98.74,-118.18 199.27,-233.54 301.84,-345.84 94.13,-102.83 189.8,-203.1 287.26,-300.82 90.04,-90.04 181.62,-178.04 274.47,-263.73 86.97,-80.32 175.48,-158.34 264.75,-234.57 84.67,-72.14 170.36,-142.48 257.33,-210.78 82.11,-64.46 165.25,-127.39 249.4,-188.78 80.83,-58.58 162.43,-115.88 245.05,-171.64 78.53,-52.69 157.83,-104.37 238.15,-154.5 77,-48.35 155.01,-95.16 233.8,-140.94 75.72,-43.74 152.2,-86.2 229.2,-127.64 74.44,-39.9 149.64,-78.53 225.61,-116.39 73.41,-36.32 147.6,-71.62 222.29,-105.9 72.39,-33.25 145.29,-65.48 218.96,-96.69 71.37,-30.18 143.5,-59.86 216.15,-87.99 70.6,-27.63 142.22,-54.23 214.36,-80.06 69.83,-25.07 140.18,-49.11 211.03,-72.39 69.07,-22.77 138.64,-44.76 208.73,-65.74 68.04,-20.46 136.85,-39.9 206.17,-58.83 67.79,-18.42 136.08,-36.58 204.89,-53.46 67.02,-16.63 134.55,-31.97 202.59,-47.32 66.51,-14.84 133.27,-28.91 200.8,-42.46 66,-13.05 132.5,-25.32 199.52,-36.83 30.7,-5.63 61.39,-11.26 92.6,-16.12 35.04,-5.88 70.6,-11.26 105.9,-16.63 64.97,-9.98 130.2,-19.7 196.2,-28.39 64.21,-8.44 129.18,-16.37 194.41,-23.79 64.21,-7.16 128.92,-13.81 193.89,-19.95 63.69,-5.88 127.64,-11.51 192.1,-16.37 63.18,-4.6 126.88,-8.7 190.83,-12.28 63.18,-3.84 126.36,-6.65 190.31,-9.21 62.41,-2.56 125.34,-4.35 188.52,-5.88 62.41,-1.28 125.34,-2.56 188.78,-2.81 61.9,-0.26 124.06,-0.26 186.48,0.26 61.9,0.51 123.81,1.79 186.22,3.33 61.14,1.53 122.78,3.58 184.43,5.88 61.14,2.56 122.53,5.37 183.92,8.7 60.88,3.33 122.02,7.16 183.41,11.26 60.37,4.09 121.25,8.7 182.13,13.56 60.37,4.86 120.74,10.49 181.62,16.12 60.37,5.63 120.99,11.77 181.87,18.42 59.6,6.39 119.71,13.3 179.83,20.46 59.6,7.16 119.2,14.84 179.31,22.77 59.09,7.67 118.69,15.86 178.29,24.56 59.35,8.7 118.69,17.39 178.29,26.86 58.83,9.21 117.92,18.67 177.27,28.65 58.58,9.72 117.41,19.95 176.5,30.44 58.58,10.49 117.41,21.23 176.24,32.49 58.58,11 117.41,22.51 176.5,34.28 57.81,11.77 116.13,23.53 174.71,35.81 57.81,12.28 116.13,24.81 174.45,37.6 57.81,12.79 115.62,25.84 173.69,39.14 57.55,13.3 115.36,26.86 173.18,40.67 57.55,13.81 115.11,27.88 172.92,42.21 57.3,14.32 114.6,28.91 172.41,43.74 57.04,14.84 114.34,29.67 171.64,45.28 57.3,15.35 114.6,30.7 172.15,46.56 57.04,15.6 114.09,31.72 171.38,48.09 56.28,15.86 113.32,32.49 170.11,49.37 56.28,16.37 113.06,33.25 170.11,50.39 56.02,17.14 112.55,34.28 169.34,51.93 56.28,17.39 112.55,35.3 169.34,53.21 56.02,17.91 112.3,35.81 168.57,54.23 56.02,18.42 112.04,36.58 168.32,55.51 56.28,18.67 112.55,37.86 169.08,57.04 55.76,18.93 111.53,38.37 167.55,57.81 55.51,19.44 111.27,39.14 167.04,58.83 55.76,19.95 111.27,39.9 167.04,60.11 55.51,20.21 111.02,40.42 166.52,60.88 55.25,20.72 110.76,41.18 166.01,62.16 55.25,20.72 110.5,41.95 165.76,63.18 55.25,21.23 110.25,42.46 165.76,64.21 55.25,21.49 110.5,43.23 166.01,65.23 54.74,22 109.74,44 164.73,66 54.74,22.25 109.74,44.76 164.73,67.27 54.49,22.51 109.23,45.02 164.22,68.04 54.23,22.51 108.97,45.28 163.71,68.55 54.49,23.02 109.23,46.04 163.97,69.58 54.23,23.28 108.71,47.07 163.2,70.6 54.23,23.79 108.46,47.58 162.94,71.37 54.49,24.05 108.97,48.09 163.71,72.65 54.23,24.3 108.2,48.35 162.69,73.16 53.97,24.3 107.95,49.11 162.18,73.93 53.97,24.56 107.69,49.37 161.92,74.44 53.97,25.07 107.95,50.14 161.92,75.46 53.72,25.07 107.44,50.65 161.41,76.23 53.46,25.58 107.18,51.16 161.15,77 53.72,25.58 107.18,51.42 160.9,77.51 53.72,26.09 107.69,52.18 161.92,78.79 53.21,26.09 106.67,52.69 160.39,79.04 53.21,26.6 106.67,52.95 160.13,79.81 53.21,26.86 106.67,53.46 160.13,80.58 53.21,26.86 106.41,53.97 159.87,81.34 52.95,26.86 106.16,54.23 159.62,81.6 52.95,27.37 106.16,55 159.62,82.62l29.67 15.35c46.81,24.3 87.23,55.76 120.99,92.6 43.49,47.83 75.46,104.11 94.39,164.48l1.02 0c6.65,22.25 11.77,45.02 14.84,68.04 12.53,88.51 -0.77,182.13 -44.76,266.29 -21.23,41.44 -48.35,77.76 -80.06,108.97 -50.14,49.11 -111.02,84.92 -175.99,105.13l0 1.28c-16.88,5.12 -34.02,9.21 -51.42,12.53 -60.62,11.26 -123.81,10.23 -185.2,-4.6 -33.51,-8.19 -66.76,-20.21 -98.74,-37.09l-64.72 -33.25c-53.21,-27.63 -106.41,-55.51 -159.36,-82.62 -53.46,-27.37 -106.67,-54.23 -159.62,-81.34 -53.46,-27.37 -106.92,-54.23 -160.13,-81.09 -53.46,-26.86 -106.92,-53.72 -160.13,-80.32 -53.46,-26.6 -106.92,-53.21 -160.13,-79.55 -53.97,-26.6 -107.95,-52.95 -161.66,-79.04 -53.72,-26.35 -107.44,-52.44 -160.9,-78.02 -53.72,-26.09 -107.44,-51.93 -160.9,-77.51 -53.97,-25.58 -107.69,-51.16 -161.41,-76.23 -53.97,-25.58 -107.95,-50.9 -161.66,-75.97 -54.23,-25.07 -108.2,-49.88 -161.92,-74.69 -54.23,-24.81 -108.2,-49.62 -162.18,-74.18 -54.23,-24.56 -108.46,-49.11 -162.69,-73.41 -54.74,-24.56 -108.97,-48.6 -163.46,-72.65 -54.49,-24.05 -108.71,-47.83 -162.94,-71.37 -54.49,-23.79 -108.97,-47.32 -163.2,-70.6 -54.74,-23.53 -109.48,-46.81 -163.71,-69.83 -55,-23.28 -109.48,-46.04 -163.97,-68.81 -55,-22.77 -109.48,-45.53 -164.22,-67.79 -55,-22.51 -109.99,-44.76 -164.73,-67.02 -55,-22 -109.99,-44.25 -164.99,-66 -55.25,-21.74 -110.76,-43.74 -166.01,-65.23 -55.25,-21.49 -110.5,-42.72 -165.5,-63.95 -55.51,-21.23 -110.76,-41.95 -166.01,-62.67 -55.51,-20.98 -110.76,-41.44 -166.27,-61.65 -55.51,-20.46 -111.27,-40.67 -166.52,-60.62 -55.76,-20.21 -111.53,-40.16 -167.29,-59.6 -55.76,-19.7 -111.53,-39.39 -167.29,-58.32 -56.02,-19.44 -111.78,-38.63 -167.55,-57.3 -56.53,-19.18 -113.06,-38.11 -169.34,-56.53 -56.28,-18.42 -112.55,-36.58 -168.57,-54.49 -56.28,-18.16 -112.81,-36.07 -168.83,-53.72 -56.79,-17.65 -113.32,-34.79 -169.85,-51.93 -56.79,-17.39 -113.32,-34.28 -169.59,-50.9 -57.04,-16.88 -113.83,-33.25 -170.36,-49.62 -57.3,-16.12 -114.09,-32.23 -170.87,-47.83 -57.3,-15.86 -114.6,-31.46 -171.38,-46.81 -57.81,-15.35 -115.36,-30.7 -172.66,-45.28 -57.81,-15.09 -114.85,-29.42 -172.15,-43.74 -58.07,-14.32 -115.62,-28.39 -173.18,-41.95 -58.07,-13.81 -115.62,-27.37 -173.18,-40.42 -58.32,-13.3 -116.13,-26.35 -173.94,-38.88 -58.32,-12.53 -116.39,-25.07 -174.45,-37.09 -58.58,-12.02 -117.16,-23.79 -175.22,-35.3 -58.83,-11.51 -117.41,-22.51 -175.48,-33.25 -59.6,-11 -118.69,-21.74 -177.27,-31.97 -59.35,-9.98 -118.43,-19.95 -177.27,-29.42 -59.6,-9.72 -118.69,-18.93 -177.52,-27.63 -59.6,-8.95 -119.2,-17.39 -178.29,-25.58 -60.11,-8.19 -119.97,-16.12 -179.31,-23.53 -60.11,-7.42 -119.97,-14.32 -179.57,-20.98 -60.62,-6.65 -120.74,-12.79 -180.59,-18.67 -60.88,-5.88 -121.25,-11.26 -181.36,-16.37 -61.39,-4.86 -122.53,-9.46 -183.41,-13.81 -61.39,-4.35 -122.27,-7.93 -182.9,-11.26 -61.65,-3.33 -123.04,-6.14 -183.92,-8.7 -62.16,-2.3 -123.81,-4.35 -185.2,-5.63 -62.41,-1.28 -124.32,-2.05 -185.97,-2.56 -62.67,-0.26 -124.83,-0.26 -186.73,0.26 -63.18,0.77 -125.85,1.79 -188.27,3.58 -63.44,1.79 -126.62,4.35 -189.29,7.16 -63.95,3.07 -127.64,6.39 -191.08,10.74 -64.21,4.09 -128.15,8.7 -191.34,14.07 -64.97,5.37 -129.18,11.51 -193.38,18.42 -65.23,6.91 -129.69,14.32 -194.15,22.25 -53.72,6.91 -107.44,13.81 -160.64,21.49 -11.77,1.79 -23.28,3.58 -35.04,5.37 -66.25,9.72 -132.25,20.21 -197.48,31.46 -66.76,11.51 -133.02,23.53 -199.01,36.32 -67.27,13.05 -134.04,26.86 -200.55,41.44 -68.3,15.09 -136.08,30.95 -203.36,47.32 -68.81,16.88 -137.11,34.53 -204.64,52.95 -69.32,18.93 -138.39,39.14 -206.68,59.86 -70.09,20.98 -139.67,42.97 -208.73,66 -71.11,23.79 -141.71,48.09 -211.55,73.67 -72.14,26.35 -143.25,53.72 -214.1,81.86 -72.9,29.16 -145.04,59.35 -216.92,90.55 -73.93,32.23 -147.6,65.74 -220.24,100.27 -75.72,35.81 -150.67,72.9 -224.85,111.27 -76.48,39.65 -152.46,80.58 -227.4,122.53 -78.27,44 -155.53,89.02 -232.01,135.57 -80.06,48.86 -159.11,99.25 -237.38,150.92 -81.86,54.23 -162.69,110.25 -242.5,167.55 -84.16,60.62 -167.04,123.04 -248.89,186.99 -86.97,68.3 -172.66,138.39 -257.08,210.52 -90.04,77 -178.8,156.04 -265.77,237.64 -94.39,88.25 -187.24,178.8 -278.31,272.17 -99.25,101.55 -196.2,206.17 -291.1,313.61 -105.9,119.71 -209.24,242.75 -310.03,369.63 -115.36,144.78 -227.15,294.17 -336.12,448.16 -129.69,183.66 -255.03,373.72 -376.28,569.92 -155.01,251.19 -303.12,512.36 -444.32,783.51l-9.98 19.7c-266.29,512.62 -509.81,1059.26 -732.09,1637.88 -215.13,559.43 -410.04,1148.28 -587.31,1764.5 -193.38,673.26 -365.02,1379.01 -516.71,2114.43 -86.46,418.23 -166.27,846.18 -240.19,1283.08 -58.32,345.84 -112.81,697.05 -163.97,1053.63 -43.74,306.7 -84.92,617.5 -123.29,931.87 -34.53,281.89 -67.02,566.85 -97.46,854.88 -6.14,59.35 -12.53,119.2 -18.67,179.06 -20.98,204.64 -40.93,410.81 -59.86,618.26 -23.02,250.68 -44.51,503.15 -64.72,757.93 -18.93,238.66 -36.83,479.11 -53.46,721.35 -15.6,230.22 -30.18,461.72 -44,694.75 -13.3,222.29 -25.32,446.11 -36.58,671.21 -11,215.89 -20.98,433.07 -30.18,651.52 -8.95,210.78 -17.14,422.83 -24.56,635.91 -7.16,205.66 -13.81,412.86 -19.7,620.57 -5.63,201.57 -11,403.91 -15.35,607.26 -4.35,198.76 -8.44,398.28 -11.77,598.57 -3.07,194.66 -5.88,390.35 -8.19,586.55 -2.05,191.59 -3.84,383.7 -5.12,576.57 -1.02,189.03 -2.05,378.58 -2.3,568.64 -0.51,186.99 -0.51,373.98 0,561.73 0.51,184.17 1.28,368.86 2.56,554.06 1.02,182.13 2.3,365.02 4.35,547.92 1.79,180.59 3.84,361.44 6.39,542.8 2.3,179.06 5.12,358.63 8.19,538.46 3.07,177.01 6.14,354.28 9.72,531.8 3.58,175.48 7.42,351.47 11.26,527.46 4.09,174.45 8.44,348.91 12.79,523.62l8.44 315.14 5.63 204.38 14.32 518.5 7.42 273.45 357.35 -807.81 45.53 -102.83c234.31,-529.76 462.74,-1040.59 685.54,-1533 232.26,-512.11 458.39,-1004.52 679.4,-1477.23 212.57,-455.06 420.28,-892.48 623.12,-1311.48 195.17,-403.14 386.26,-789.9 573.24,-1160.3 178.55,-353.51 353.51,-692.19 525.15,-1016.29 76.23,-144.27 151.94,-285.47 226.89,-423.86 85.95,-158.59 171.13,-313.1 255.29,-464.02 150.92,-270.12 299.03,-528.48 444.83,-774.56 138.9,-234.82 275.75,-458.65 410.56,-672.24 128.67,-203.36 255.29,-397.25 380.37,-581.68 119.97,-176.76 238.4,-344.82 355.82,-504.43 111.02,-151.43 221.27,-295.19 330.24,-431.28 104.11,-129.95 207.45,-253.24 309.77,-369.12 53.46,-60.88 106.92,-119.71 159.87,-177.01 44.25,-47.58 87.99,-93.62 131.99,-138.9 93.62,-96.69 186.48,-188.27 278.56,-274.73 89.02,-83.9 177.52,-162.69 265.52,-237.12 85.44,-71.88 170.11,-139.41 254.26,-202.59 81.86,-61.39 163.46,-118.69 244.29,-171.64 78.79,-51.93 157.32,-99.76 235.08,-143.5 75.72,-42.46 150.67,-81.34 225.61,-116.39 72.9,-34.28 145.55,-65.23 217.94,-92.6 70.34,-26.6 140.18,-49.88 210.01,-70.09 68.04,-19.7 135.83,-36.32 203.36,-49.88 66,-13.3 131.74,-24.05 197.48,-31.46 63.95,-7.42 127.9,-12.28 191.59,-14.58 62.16,-2.05 124.32,-1.53 186.48,1.53 60.62,2.81 121.5,8.44 182.38,16.12 59.09,7.42 118.18,17.14 177.27,29.16 57.55,11.77 115.11,25.58 172.92,41.44 56.28,15.6 112.81,33.25 169.08,52.95 55.25,18.93 110.5,39.9 165.76,62.93 54.23,22.51 108.46,47.07 162.94,73.16 52.95,25.58 106.16,52.69 159.36,81.6 16.37,8.95 32.23,17.65 48.35,26.6 36.32,20.46 72.39,41.7 108.46,63.44 51.93,31.21 103.6,63.44 155.53,97.71 50.65,33 101.3,68.04 152.2,104.11 49.88,35.3 99.76,72.14 150.15,109.99 49.11,37.35 98.48,75.97 148.11,116.13 48.86,39.14 97.71,79.55 146.57,121.25 48.09,40.93 96.44,82.88 144.78,126.36 47.58,42.46 95.16,86.2 143.25,130.71 47.07,44.25 94.39,89.53 141.97,135.57 46.81,45.53 93.88,92.34 140.94,139.92 46.3,46.56 92.6,94.13 139.15,142.99 45.79,48.09 92.09,96.95 138.39,146.57 45.28,49.11 90.81,98.99 136.85,149.9 45.02,50.14 90.3,100.78 135.83,152.71 45.02,51.16 90.04,103.09 135.06,156.04 44.76,51.93 89.53,104.62 134.29,158.34 44.25,52.69 88.76,106.41 133.27,160.64 44.25,53.72 88.51,108.46 133.02,163.71 43.74,54.49 87.74,109.74 131.99,165.5 43.49,55 87.23,110.76 131.22,167.29 43.23,55.76 86.72,112.04 130.46,169.08 42.97,56.53 86.46,113.57 129.95,171.13 42.97,57.04 86.2,114.34 129.43,172.66 42.72,57.3 85.69,115.62 128.67,173.94 42.72,58.07 85.44,116.39 128.41,175.73 42.72,58.58 85.69,117.92 128.67,177.78 42.21,58.83 84.92,118.18 127.64,178.04 42.21,59.35 84.41,118.95 127.13,179.31 41.95,59.6 84.41,119.97 126.88,180.59 41.95,60.11 84.16,120.48 126.36,181.36 41.95,60.37 83.9,120.99 126.11,182.38 41.95,60.62 83.9,121.76 126.11,183.41 41.7,60.88 83.39,122.27 125.6,183.92 41.7,61.39 83.65,123.04 125.6,185.45 41.7,61.39 83.39,123.29 125.34,185.45l42.46 63.44c27.63,41.18 55.25,81.6 82.88,121.76 42.21,61.14 84.41,121.25 126.88,180.08 42.72,59.6 85.44,118.18 128.41,175.48 43.23,58.07 86.72,114.85 129.95,170.62 44,56.28 87.99,111.27 131.99,165.25 44.51,54.49 89.02,107.95 133.53,160.13 45.28,52.95 90.55,104.37 135.83,155.01 45.79,51.16 91.58,100.78 137.36,149.39 46.56,49.11 92.85,96.69 139.15,143.5 46.81,47.07 93.88,93.11 140.69,137.88 47.83,45.28 95.41,89.27 143.25,131.99 48.35,43.49 96.44,85.44 144.78,126.11 48.86,41.44 97.97,81.6 146.83,120.23 49.62,39.39 99.51,77.25 149.13,113.83 50.65,37.35 101.04,73.41 151.69,108.2 50.9,35.04 102.06,68.55 152.97,101.04 51.93,32.74 103.6,64.46 155.27,94.65 52.69,30.44 105.39,59.6 158.08,87.74 53.21,28.14 106.41,55.25 159.87,80.83 53.97,26.09 108.2,50.65 162.18,73.93 55,23.53 109.74,45.53 164.99,66.51 55.51,21.23 111.27,40.93 166.78,59.35 56.79,18.67 113.57,36.07 170.36,51.93 57.3,16.12 114.85,30.7 172.15,44 58.32,13.3 116.64,25.58 174.97,36.07 59.09,11 118.18,20.21 177.27,28.14 29.42,3.84 58.58,7.67 87.74,10.74 30.95,3.58 61.65,6.39 92.6,9.21 61.14,5.12 122.27,8.95 183.15,11.51 62.16,2.3 124.06,3.33 185.97,2.81 63.18,-0.51 125.85,-2.56 188.52,-5.88 64.72,-3.58 128.92,-8.7 193.13,-15.35 65.23,-6.65 129.95,-14.84 194.92,-24.56 66.25,-9.72 132.25,-21.23 198.24,-34.02 67.27,-13.3 134.29,-27.88 201.31,-44 68.55,-16.37 136.85,-34.79 205.15,-54.23 69.58,-20.21 138.9,-41.7 208.22,-64.46 70.86,-23.53 141.2,-48.6 211.8,-75.2 72.39,-27.11 144.53,-56.02 216.41,-86.2 73.41,-30.7 146.32,-63.18 218.96,-96.95 74.69,-34.53 148.87,-70.6 223.06,-107.95 75.72,-38.63 151.43,-78.53 226.89,-119.71 77,-42.21 153.73,-85.95 230.22,-130.97 78.27,-46.3 156.55,-93.88 234.31,-142.48 79.81,-50.14 159.11,-101.81 237.89,-154.25l26.86 -17.65c71.88,-48.6 144.01,-98.23 215.64,-148.62 82.37,-58.07 164.73,-117.16 246.59,-177.52 83.39,-61.14 166.27,-123.55 248.89,-186.73 84.67,-64.97 169.08,-130.71 252.73,-197.22 85.69,-67.79 170.87,-136.6 255.29,-205.92 73.93,-60.62 147.6,-121.76 220.5,-183.15l37.86 -31.97c88.51,-74.95 175.73,-149.64 261.68,-224.08 89.27,-77.25 177.01,-153.99 263.47,-230.22 89.79,-79.04 178.04,-157.57 265.01,-235.33 90.3,-80.32 178.8,-160.13 266.29,-238.92l217.94 -196.45 7.42 -7.42 1.02 1.02 41.44 -37.09c90.04,-81.34 179.06,-161.41 266.54,-240.19 89.79,-80.32 178.29,-159.36 265.52,-236.36 89.27,-79.04 177.01,-155.78 263.73,-230.47 87.99,-75.97 174.97,-149.39 260.4,-220.24 86.2,-71.37 171.38,-140.18 255.29,-205.92 84.41,-66.25 167.55,-129.18 249.4,-188.52 82.11,-59.6 163.2,-115.62 242.75,-167.55 79.81,-51.93 158.34,-100.02 235.33,-143.25 76.23,-43.23 151.43,-81.86 225.1,-115.62 73.16,-33.51 145.04,-62.41 215.64,-85.95 69.58,-23.53 137.88,-41.95 205.15,-55 66,-13.05 130.71,-20.98 194.66,-23.28l3.58 0c62.41,-2.3 122.78,-0.26 181.11,5.63 60.88,6.65 119.46,17.39 176.24,33.25 57.81,15.86 113.32,37.09 166.27,63.44 53.97,26.86 105.64,58.83 154.5,96.69 50.14,38.63 97.71,82.88 142.74,133.53 45.79,51.42 88.51,109.48 128.92,173.94l11 18.42c36.58,60.62 71.11,126.88 103.34,198.76 36.07,80.06 69.58,167.04 100.27,261.43 30.95,94.9 59.09,197.22 84.67,307.21 25.58,110.76 48.35,229.2 68.3,355.82 19.95,128.15 37.09,264.75 51.16,409.53 14.07,145.55 25.07,299.8 33,462.74 2.81,58.32 5.12,117.41 7.16,178.04 3.84,110.76 6.14,224.33 7.16,340.21 1.53,186.99 -0.51,380.37 -6.14,579.13 -5.88,210.78 -15.86,427.69 -29.67,651.01 -14.58,237.12 -33.51,481.67 -56.53,732.35 -24.81,268.59 -54.49,544.59 -88.76,827.51 -37.09,307.21 -79.81,622.61 -127.64,945.17 -52.69,356.07 -111.53,720.84 -176.5,1094.05 -72.9,417.72 -152.97,845.67 -240.19,1282.57 -90.55,454.3 -188.78,918.32 -294.17,1390.26l-37.35 166.78c-148.87,659.45 -311.05,1333.99 -485.25,2019.53 -258.36,1017.56 -543.06,2059.17 -848.99,3112.3 -548.43,1886.77 -1164.9,3809.35 -1821.54,5692.02 -293.91,842.34 -596.27,1677.27 -904.5,2498.12 -394.95,1052.1 -799.88,2080.92 -1209.16,3072.39 -281.12,680.42 -564.03,1343.2 -847.46,1983.97 -230.99,522.6 -462.48,1030.35 -692.96,1520.98 -200.29,426.42 -400.32,840.04 -599.08,1238.83l-60.62 121.5c-158.34,315.65 -315.91,621.33 -472.2,917.04 -161.66,305.42 -321.79,599.85 -480.64,882.5 -147.6,262.7 -293.91,515.18 -438.44,756.4 -136.6,227.66 -271.66,445.6 -404.93,652.8 -125.85,195.94 -250.17,382.42 -372.95,559.17 -116.64,168.06 -232.01,326.91 -345.33,476.81 -108.71,143.5 -215.89,278.31 -321.28,403.91 -101.55,120.99 -201.31,233.54 -299.28,337.65 -94.65,100.27 -187.76,192.36 -279.08,276.01 -75.46,69.07 -149.64,132.76 -222.8,190.06l-36.83 28.91c-84.16,64.46 -165.76,123.04 -245.31,175.48 -80.32,52.95 -158.59,99.76 -234.31,140.43 -75.97,40.67 -149.9,75.2 -221.27,103.85 -72.14,28.91 -141.97,51.42 -209.75,68.3 -68.04,16.88 -134.04,27.88 -197.73,32.74 -32.23,2.56 -63.95,3.84 -95.16,3.07 -30.7,-0.26 -60.88,-2.3 -90.81,-5.88 -59.6,-6.65 -117.67,-19.44 -174.2,-38.11 -55.76,-18.42 -110.25,-42.46 -162.94,-71.62 -52.44,-29.16 -103.09,-63.44 -152.71,-102.83 -49.37,-39.14 -97.2,-83.13 -143.76,-131.74 -38.88,-41.18 -77,-85.18 -114.34,-132.76 -6.65,-8.44 -13.05,-17.14 -19.7,-25.84 -43.49,-58.32 -84.16,-122.78 -122.78,-192.62 -39.14,-71.37 -75.72,-148.62 -109.74,-231.24 -34.79,-84.41 -67.27,-174.45 -97.2,-269.87 -30.7,-96.95 -58.83,-199.52 -84.92,-307.21 -26.35,-108.97 -50.39,-223.57 -72.65,-342.77 -22.25,-120.74 -42.72,-246.59 -61.14,-376.79 -18.16,-125.85 -34.28,-255.8 -48.86,-389.84l-2.3 -20.46c-15.35,-142.22 -28.91,-288.28 -40.93,-438.18 -12.28,-150.67 -23.02,-305.17 -32.74,-462.99 -9.72,-158.34 -18.16,-319.75 -25.58,-484.48 -7.67,-164.73 -14.07,-332.54 -19.95,-503.15 -5.88,-169.08 -10.74,-340.47 -15.6,-514.41 -4.6,-172.41 -8.7,-346.86 -12.53,-523.11 -3.84,-168.57 -7.42,-339.19 -11,-511.08l-0.26 -16.37c-3.84,-175.22 -7.42,-351.98 -11.26,-530.01 -3.84,-173.69 -7.67,-348.65 -12.28,-524.13 -4.35,-172.15 -9.21,-344.56 -14.58,-517.48 -5.37,-169.59 -11,-339.44 -17.65,-508.78 -6.39,-166.27 -13.3,-332.03 -21.23,-497.53 -7.67,-162.18 -16.37,-324.1 -25.84,-484.99 -9.21,-157.57 -19.44,-314.12 -30.7,-469.9 -11,-152.2 -23.02,-303.38 -35.81,-453.27 -12.79,-146.83 -26.86,-292.12 -41.95,-435.88 -14.84,-140.94 -30.7,-280.1 -47.83,-417.72 -16.88,-134.81 -34.79,-267.82 -54.23,-399.05 -12.28,-84.41 -25.32,-168.06 -38.88,-250.68 -7.16,-42.97 -14.32,-85.69 -21.74,-128.15 -21.23,-121.5 -43.74,-241.22 -67.53,-358.37 -23.53,-115.36 -48.35,-228.43 -74.69,-339.19 -25.58,-107.95 -52.69,-213.59 -81.34,-317.19 -27.88,-101.04 -57.3,-200.03 -88.25,-296.47 -30.18,-94.65 -61.65,-186.73 -94.9,-276.26 -32.49,-87.74 -66.25,-172.92 -101.81,-255.8 -34.79,-80.83 -70.86,-159.62 -108.46,-235.59 -36.83,-74.44 -75.2,-146.32 -115.11,-215.64 -39.14,-68.3 -79.81,-133.78 -122.02,-196.71 -41.18,-61.39 -83.9,-120.48 -127.9,-176.5 -43.49,-55.25 -88.25,-107.95 -134.55,-157.83 -45.28,-49.11 -92.09,-95.41 -140.43,-139.15 -47.58,-42.97 -96.44,-83.13 -146.83,-120.74 -49.37,-36.83 -100.27,-71.37 -152.71,-102.83 -51.42,-31.21 -104.37,-59.35 -158.59,-85.18 -38.63,-18.42 -78.27,-35.56 -118.43,-51.16 -15.35,-5.88 -30.44,-11.26 -45.79,-17.14 -56.53,-21.23 -112.55,-40.93 -167.55,-59.35 -57.3,-18.93 -113.83,-36.58 -169.34,-52.18 -58.32,-16.63 -115.88,-31.46 -172.15,-44.76 -59.35,-13.81 -117.67,-25.84 -174.71,-36.07 -60.88,-10.74 -119.97,-19.44 -178.29,-26.09 -62.16,-7.16 -122.78,-12.02 -182.13,-14.84 -63.69,-2.81 -125.85,-3.33 -186.48,-1.28 -65.48,2.05 -129.43,7.16 -191.59,14.58 -68.3,8.44 -134.55,19.7 -198.76,34.02 -71.37,16.37 -140.18,36.32 -206.68,59.6 -75.72,26.6 -148.11,57.55 -217.68,92.34 -81.86,41.44 -159.62,88.25 -233.54,140.43 -92.6,64.97 -178.8,138.13 -259.64,217.94 -116.13,114.6 -220.5,243.26 -314.12,382.16 -148.36,220.24 -270.12,466.06 -369.88,723.65 -180.85,467.6 -285.21,974.59 -345.07,1425.05 -38.11,286.24 -58.07,549.97 -68.3,766.37 -14.58,307.47 -9.21,519.53 -7.67,564.8l-1.02 0 0 2.05 0 1.28 1.02 6.39 0.26 9.72c1.28,101.81 -33.25,197.48 -90.81,272.94 -8.19,10.74 -17.14,21.23 -26.09,31.21 -57.55,60.62 -130.97,104.88 -213.08,125.6 -26.86,6.65 -54.49,11 -82.62,12.53l0 -1.02 -6.39 1.02 -1.28 0c-33.51,1.28 -66.51,-1.53 -98.23,-7.67 -60.11,-11.26 -115.62,-34.79 -164.22,-68.04 -18.16,-12.28 -35.3,-26.09 -51.42,-41.18 -34.28,-30.95 -63.18,-68.04 -85.69,-108.97 -30.7,-56.02 -49.37,-119.71 -52.44,-186.48l0 -2.3 -1.02 -6.39c-0.26,-9.21 -2.56,-80.32 -2.3,-199.78 0.26,-145.04 4.35,-361.44 21.23,-625.17 15.09,-236.87 40.16,-511.85 81.86,-807.55 74.95,-532.06 202.85,-1131.14 421.04,-1694.66 112.3,-290.33 250.17,-570.94 418.23,-826.74 97.97,-149.39 206.43,-290.33 326.4,-419.76 84.92,-91.58 175.48,-177.01 272.17,-256.05 78.02,-63.69 160.13,-122.78 246.33,-177.01 73.41,-46.3 149.64,-89.27 229.71,-127.9 69.83,-34.02 142.48,-64.97 217.43,-92.6 67.53,-24.81 137.11,-47.07 208.99,-66.76 65.48,-17.65 133.02,-32.74 202.08,-45.53 64.21,-11.77 129.69,-21.74 196.71,-29.16 62.41,-6.91 126.36,-11.77 191.85,-14.84 61.39,-2.81 124.06,-3.58 187.76,-2.81 60.62,0.77 122.27,3.33 184.94,7.67 59.6,3.84 119.71,9.46 181.36,16.37 58.58,7.16 117.92,15.09 178.55,24.81 57.81,9.46 116.64,20.21 176.5,32.49 57.04,11.51 115.11,24.56 173.69,38.63 56.79,13.81 114.09,28.39 172.15,44.51 56.02,15.6 112.81,32.49 170.36,50.39 55.51,17.14 111.53,35.3 168.32,54.74 55.25,19.18 111.02,39.14 167.55,60.11 27.63,10.49 55.25,20.72 83.39,31.46 27.37,10.74 54.74,22.25 81.86,33.51 55,23.53 108.97,48.86 161.66,75.97 53.72,27.37 106.41,56.53 157.83,87.48 52.18,31.46 103.6,64.97 153.48,100.02 51.16,35.81 100.78,73.41 149.39,112.81 49.62,40.16 97.97,82.11 145.04,125.85 48.09,44.76 94.9,91.32 140.43,139.41 46.81,49.62 92.09,100.78 136.34,153.99 45.02,53.97 88.51,109.99 130.97,167.55 43.49,59.09 85.44,119.71 126.11,182.13 41.7,63.95 82.11,129.95 121.25,197.48 39.9,69.32 78.79,140.43 116.13,213.34 38.11,74.44 74.95,150.92 110.5,228.94 36.58,79.81 71.62,161.66 105.39,245.31 34.53,85.69 68.04,173.69 99.76,262.96 32.74,91.32 63.95,184.43 94.13,279.33 30.44,97.2 59.86,195.94 87.99,296.73 28.65,103.09 56.28,208.22 82.11,314.63 26.86,109.23 52.18,219.99 76.23,332.54 9.72,45.28 19.44,90.55 28.65,136.08 14.32,70.86 28.14,142.22 41.7,214.1 22.77,121.25 44.25,244.03 64.46,368.09 20.46,127.64 40.16,256.57 58.32,386.77 18.67,134.04 36.07,269.36 52.18,405.7 16.63,139.67 31.97,280.61 46.04,422.58 14.58,145.8 28.14,292.89 40.42,440.48 12.79,151.43 24.3,303.63 34.79,456.86 10.74,156.8 20.72,314.38 29.42,472.46 9.21,162.69 17.39,325.89 24.81,489.09 7.42,166.52 14.32,333.56 20.21,500.34 6.39,170.62 11.77,340.98 16.88,511.08 4.86,173.69 9.46,347.12 13.81,519.53 4.35,176.5 8.19,352.23 12.02,526.69l7.67 356.84 3.33 171.13c3.58,177.78 7.42,353.77 11.26,527.46 4.09,177.01 8.19,351.47 12.79,522.85 5.12,175.22 10.23,347.37 16.12,515.69 5.88,171.13 12.53,338.17 20.21,500.6 7.67,166.01 16.12,327.17 26.09,482.69 8.95,142.99 18.93,281.38 30.18,414.14l3.84 45.02c13.05,149.13 27.63,292.38 44.25,428.97 16.88,137.62 35.56,268.33 56.53,391.88 20.98,124.32 44.51,241.22 70.34,349.93 26.09,109.23 54.74,210.01 86.2,301.84 31.97,92.85 66.76,175.99 104.62,249.66 32.74,63.18 67.79,119.2 105.39,167.29l0 1.02c5.88,7.42 12.02,14.58 18.16,21.49 43.74,47.32 96.18,76.48 158.34,86.2 56.79,8.95 122.02,1.02 195.43,-24.81 20.72,-7.16 42.21,-15.86 64.21,-26.09 46.56,-20.98 100.02,-50.65 161.15,-89.79 71.62,-46.3 153.22,-105.13 245.82,-177.52l7.67 -5.88c83.13,-65.23 168.06,-139.15 254.52,-220.75 92.6,-87.23 186.99,-183.66 282.91,-288.8 100.53,-109.99 203.1,-229.71 307.21,-358.63 108.2,-134.29 218.45,-278.56 330.49,-432.04 117.67,-161.41 237.12,-333.3 358.12,-515.18 128.41,-192.62 258.61,-396.23 390.35,-610.59 140.43,-227.92 282.66,-467.85 426.42,-719.05 154.5,-269.87 310.79,-552.52 468.62,-846.95 172.15,-321.54 346.09,-656.89 521.57,-1005.54 55.76,-111.02 111.78,-223.31 167.8,-337.14 139.92,-283.42 280.87,-575.03 422.07,-873.81 227.66,-481.67 456.86,-982.52 686.56,-1500 278.56,-627.73 557.9,-1279.5 836.2,-1951.23 395.72,-954.64 788.88,-1948.93 1174.88,-2968.54 354.28,-935.71 702.17,-1892.65 1039.82,-2860.33 695.52,-1994.97 1346.01,-4033.17 1916.7,-6022.26 287.52,-1002.22 554.57,-1991.64 797.07,-2956.77 155.27,-619.03 300.56,-1227.83 434.6,-1823.33l30.18 -134.29c115.11,-517.74 221.78,-1024.98 318.72,-1520.21 83.65,-426.42 160.13,-843.62 229.2,-1250.6 61.39,-361.95 116.9,-715.47 166.27,-1060.28 44.76,-313.35 84.16,-619.29 118.43,-917.04 31.46,-274.98 58.32,-542.8 80.32,-803.21 20.46,-243.52 36.83,-480.13 48.6,-709.84 11.26,-215.13 18.42,-423.86 21.74,-626.45 3.07,-191.34 2.56,-376.79 -1.53,-556.11 -1.02,-46.3 -2.3,-92.34 -4.09,-137.88 -4.09,-131.22 -9.21,-253.5 -14.84,-367.58 -8.95,-174.97 -19.44,-330.24 -31.46,-467.34 -14.32,-162.69 -30.7,-299.54 -49.37,-412.6 -2.81,-18.42 -5.88,-35.81 -9.21,-52.95 -18.67,-105.39 -42.72,-194.41 -71.11,-268.08 -33.77,-87.48 -73.93,-152.97 -120.23,-199.01 -47.32,-46.81 -101.04,-73.16 -160.64,-81.09 -16.37,-2.05 -33.25,-3.07 -50.65,-2.56 -44.76,1.53 -92.6,9.21 -143.25,23.28 -66.51,18.16 -138.39,46.56 -214.87,84.67 -72.9,35.81 -149.9,80.32 -231.24,132.5 -77.25,49.62 -158.34,105.9 -242.75,168.32 -59.35,44.25 -120.74,91.06 -183.41,140.94l1.02 0c-23.02,18.42 -46.56,37.09 -70.34,56.02 -83.13,67.02 -169.08,138.39 -257.59,213.34 -85.18,72.14 -173.18,147.85 -262.96,226.38 -86.2,75.46 -174.71,153.48 -264.75,234.06 -86.97,77.51 -175.73,157.06 -266.29,238.4 -78.27,70.86 -157.83,142.48 -238.4,215.38l-28.39 25.84c-87.99,79.04 -177.01,159.36 -267.05,240.19 -87.74,79.04 -176.5,158.59 -266.54,238.66 -86.97,77.51 -175.22,155.27 -264.24,233.29 -86.72,75.97 -174.2,151.69 -262.45,227.66 -86.46,73.67 -173.43,147.6 -261.43,221.01l-1.79 1.53c-84.67,71.11 -170.11,141.71 -256.05,211.8 -84.16,69.07 -169.08,137.36 -254.77,204.89 -83.65,66 -167.55,131.22 -252.47,195.94 -82.37,62.93 -165.25,125.09 -248.89,186.22 -81.34,59.86 -163.2,118.69 -245.57,176.76 -80.32,56.28 -161.15,112.04 -242.24,166.78l-1.02 0.51c-78.79,52.95 -158.34,105.13 -238.15,156.04 -78.27,50.14 -156.8,99.25 -235.85,147.34 -77.51,46.81 -155.27,93.11 -233.29,137.88 -76.48,43.74 -152.97,86.46 -229.71,128.15 -75.2,40.42 -150.67,80.06 -226.13,118.18 -74.18,37.6 -148.62,73.93 -223.06,108.71 -73.16,34.53 -146.32,67.79 -219.99,99.51 -72.14,31.46 -144.53,61.39 -216.92,90.3 -71.11,28.14 -142.48,55 -213.85,80.58 -70.09,25.32 -140.18,49.37 -210.78,71.88 -69.32,22.25 -138.9,43.49 -208.48,62.93 -68.3,19.44 -136.6,37.35 -204.89,53.97 -67.02,16.37 -134.29,31.46 -201.82,45.28 -66.25,13.56 -132.76,25.58 -199.27,36.58 -65.23,10.49 -130.71,19.95 -196.2,28.14 -64.46,7.93 -128.67,14.58 -193.38,19.95 -63.44,5.37 -126.88,9.21 -190.57,11.77 -63.18,2.56 -126.11,3.58 -189.03,3.58 -61.9,0 -123.81,-1.28 -185.71,-3.84 -60.88,-2.56 -121.76,-6.39 -182.64,-11.77 -27.11,-2.3 -53.97,-4.86 -80.83,-7.42 -33.25,-3.58 -66.51,-7.67 -100.02,-12.02 -59.09,-7.67 -118.43,-16.37 -177.78,-26.6 -58.58,-9.98 -116.9,-21.49 -175.48,-34.02 -57.55,-12.53 -115.36,-26.09 -173.43,-40.93 -56.79,-14.84 -113.83,-30.95 -170.87,-48.35 -56.28,-16.88 -112.55,-35.04 -169.08,-54.74 -55.51,-19.18 -110.76,-39.65 -166.27,-61.39 -54.74,-21.49 -109.74,-44.25 -164.48,-68.04 -53.97,-23.53 -107.95,-48.09 -162.18,-74.18 -53.21,-25.58 -106.67,-52.44 -160.13,-80.32 -52.69,-27.63 -105.39,-56.53 -158.08,-86.72 -51.93,-29.67 -104.11,-60.37 -156.04,-92.34 -51.42,-31.72 -102.58,-64.46 -153.99,-98.23 -50.9,-33.77 -101.81,-68.3 -152.97,-104.37 -50.14,-35.56 -100.27,-71.88 -150.41,-109.74 -49.37,-37.09 -98.99,-75.46 -148.62,-114.85 -48.86,-39.14 -97.71,-79.3 -146.83,-120.48 -48.35,-40.93 -96.69,-82.62 -145.04,-125.6 -47.83,-42.72 -95.67,-86.2 -143.25,-130.97 -47.32,-44 -94.39,-89.27 -141.46,-135.57 -47.07,-45.79 -93.62,-92.85 -140.43,-140.94 -46.04,-47.58 -92.34,-96.44 -138.9,-146.06 -45.53,-49.11 -91.06,-99.25 -136.6,-150.41 -45.02,-50.65 -90.3,-102.32 -135.32,-155.01 -44.51,-52.18 -89.27,-105.64 -133.78,-159.87 -44.25,-53.72 -88.25,-108.46 -132.25,-163.97 -43.49,-55.25 -87.23,-111.27 -130.71,-168.57 -43.23,-56.53 -86.2,-114.09 -129.43,-172.92 -42.72,-58.07 -85.44,-116.9 -127.9,-176.76 -42.46,-59.86 -84.67,-120.48 -127.13,-182.13 -28.14,-41.18 -56.28,-82.62 -84.41,-124.57l-40.67 -60.37 -125.09 -185.71c-41.95,-62.16 -83.9,-124.06 -125.34,-184.94 -42.21,-61.9 -83.9,-123.29 -125.6,-184.17 -42.21,-61.65 -84.16,-122.78 -126.11,-183.41 -42.21,-61.39 -84.16,-122.02 -126.11,-182.13 -42.21,-61.14 -84.41,-121.5 -126.36,-181.36 -42.72,-60.88 -85.18,-121.5 -127.64,-181.11 -42.46,-60.37 -84.92,-119.97 -127.13,-179.06 -42.72,-59.6 -85.18,-118.95 -127.64,-177.52 -42.97,-59.35 -85.69,-118.18 -128.15,-175.99 -43.23,-59.09 -86.2,-117.41 -128.92,-174.97 -43.23,-58.58 -86.46,-116.13 -129.18,-172.92 -43.49,-58.07 -86.72,-115.11 -129.95,-171.38 -43.74,-57.3 -87.23,-113.83 -130.46,-169.59 -44.25,-56.53 -88.25,-112.55 -131.74,-167.55 -44.25,-55.76 -88.25,-110.76 -131.99,-164.99 -44.51,-54.74 -88.76,-108.97 -132.76,-162.18 -44.76,-54.23 -89.53,-107.44 -133.78,-159.62 -45.02,-53.21 -90.04,-105.64 -134.81,-156.8 -45.28,-52.18 -90.55,-103.6 -135.57,-153.48 -46.04,-51.42 -91.58,-101.3 -137.11,-150.15 -46.3,-50.14 -92.34,-98.74 -137.88,-146.57 -47.07,-48.6 -93.88,-96.44 -140.18,-142.74 -47.32,-47.32 -94.13,-93.37 -140.94,-137.88 -47.83,-45.79 -95.41,-90.04 -142.74,-133.02 -48.35,-44 -96.44,-86.72 -144.27,-127.9 -48.86,-41.95 -97.71,-82.88 -146.06,-122.02 -49.62,-40.16 -99.25,-78.79 -148.62,-115.88 -50.14,-38.11 -100.27,-74.18 -150.41,-108.97 -19.18,-13.3 -38.63,-26.6 -57.81,-39.65 -31.72,-21.23 -63.69,-41.95 -95.16,-61.9 -52.44,-33.25 -104.37,-64.72 -156.55,-94.39 -52.95,-30.18 -105.64,-58.83 -158.34,-85.44 -53.97,-27.11 -107.69,-52.69 -161.41,-75.97 -55.25,-24.05 -110.25,-46.04 -165.25,-65.74 -56.28,-20.46 -112.55,-38.37 -168.57,-54.23 -57.81,-16.12 -115.62,-29.93 -173.18,-41.44 -59.35,-11.77 -118.43,-20.98 -177.52,-27.37 -61.14,-6.91 -122.27,-10.74 -183.15,-11.77 -63.44,-0.77 -126.62,1.28 -189.8,6.65 -65.23,5.37 -130.46,14.32 -195.43,26.35 -68.04,12.79 -135.83,29.16 -203.62,49.37 -70.6,20.98 -141.2,46.04 -211.8,75.2 -73.93,30.44 -147.85,65.74 -221.78,105.13 -77.51,41.7 -155.27,88.25 -233.29,139.92 -82.11,54.23 -164.48,114.09 -247.1,179.83 -86.97,69.32 -174.45,144.78 -262.19,226.89 -91.32,85.18 -182.9,177.52 -275.24,276.77l-6.91 7.42c-99.51,107.44 -199.78,221.78 -301.33,343.28 -105.9,126.88 -213.08,261.68 -321.28,404.16 -113.57,149.64 -228.17,307.47 -344.56,474.51 -122.27,174.97 -246.08,359.91 -371.67,554.57 -131.74,203.87 -265.52,418.49 -401.09,644.1 -142.74,237.12 -288.03,486.53 -435.88,747.7 -155.01,274.22 -312.84,561.99 -473.99,863.57 -112.81,210.78 -227.15,428.21 -343.03,652.54 -58.58,113.57 -117.67,229.2 -177.27,346.35 -184.17,362.72 -372.95,742.07 -565.83,1138.56 -200.8,412.6 -406.46,843.88 -617.24,1293.57 -218.45,465.81 -442.27,951.82 -672.49,1458.05 -235.59,519.27 -477.83,1059.77 -726.72,1622.53 -252.98,571.96 -513.13,1166.44 -780.7,1784.19 -120.74,279.08 -243.26,562.76 -367.33,851.55l-19.18 45.02 2.05 52.44 7.42 184.69c6.65,166.52 13.3,333.05 20.46,499.57 6.91,165.5 14.07,331.26 21.23,497.02 7.16,165.25 14.58,330.49 22.25,495.74 7.16,164.22 14.84,328.7 22.51,493.18 7.67,163.71 15.35,327.42 23.28,491.39 7.93,163.71 16.12,327.42 24.05,491.39 7.93,162.69 16.12,325.38 24.3,488.32 8.19,162.18 16.63,324.61 24.81,486.78l25.32 485.5 2.05 38.63 23.28 446.88 25.84 483.97 25.84 483.46 26.35 482.69 26.6 483.2 26.6 481.16 27.11 481.41 26.86 480.39 26.86 480.39 20.98 373.47 1.02 14.84 5.12 92.09 26.86 480.9 26.86 480.64 26.86 481.92 26.86 481.41 26.6 481.67 26.35 482.18 26.09 482.69 26.09 483.71 25.58 484.74 25.32 485.5 25.07 488.06c8.19,162.94 16.12,325.63 24.3,488.06 7.93,163.46 16.12,326.4 24.05,489.34 7.93,164.22 15.6,327.93 23.53,491.39 7.67,164.48 15.35,328.7 22.77,492.67 7.42,164.99 14.84,329.98 22.25,494.46 7.42,166.01 14.58,331.51 21.49,497.02 7.16,166.52 14.07,332.79 20.98,499.06 6.91,167.8 13.56,335.1 19.95,502.13 6.65,168.57 12.79,336.63 18.93,504.43 6.39,169.34 12.53,338.68 18.42,507.5 5.88,170.36 11.51,340.47 16.88,510.06 5.63,171.9 11,343.03 15.86,513.9 5.37,172.92 10.23,345.58 14.84,517.74 4.6,174.45 9.21,348.14 13.3,521.57 4.09,175.73 8.19,350.96 11.77,525.67 3.58,178.04 7.16,355.3 10.23,531.8 3.33,179.31 5.88,358.12 8.44,536.41 2.56,181.11 4.86,361.95 6.65,541.78 1.79,183.66 3.33,366.3 4.35,548.43 1.02,186.22 1.79,371.42 2.05,555.85 0,188.78 0,376.53 -0.77,563.78 -0.77,191.59 -1.79,382.16 -3.58,571.96 -1.79,194.92 -3.84,388.81 -6.65,581.68 -2.81,198.76 -6.14,396.74 -10.23,593.45 -4.09,203.1 -8.95,404.67 -14.58,605.22 -5.63,208.22 -12.28,414.9 -19.44,620.57 -7.67,213.34 -15.6,425.39 -24.81,635.91 -9.46,220.5 -20.21,439.21 -31.72,656.38 -11.77,228.17 -24.81,454.81 -39.14,679.14 -14.84,238.66 -31.21,474.76 -48.86,709.07 -18.67,250.17 -38.63,497.78 -60.37,742.84 -23.53,267.05 -49.11,531.04 -76.48,791.95 -30.44,289.31 -62.93,575.03 -97.97,856.16 -40.67,325.12 -84.67,644.1 -131.74,958.22 -58.07,385.49 -120.99,762.53 -189.55,1130.37 -104.37,561.48 -221.52,1101.98 -351.98,1619.71 -181.87,720.07 -389.84,1396.66 -627.47,2024.39 -88.25,233.8 -178.8,459.41 -271.91,677.1 -191.59,449.44 -392.65,864.34 -601.38,1245.48 -138.13,252.22 -279.59,489.6 -423.86,712.14 -117.67,181.36 -236.87,352.75 -358.12,514.67 -77,102.83 -154.76,201.82 -233.03,296.73 -29.16,35.3 -58.32,69.83 -87.48,104.11 -97.46,113.83 -195.69,221.78 -294.68,323.58 -91.32,94.13 -183.15,182.9 -275.75,266.8 -86.72,78.53 -173.69,152.71 -261.17,222.29 -82.37,66 -165.25,127.9 -248.64,185.97 -79.3,55.25 -158.85,106.92 -238.66,155.01 -76.23,46.04 -152.97,89.02 -229.71,128.67 -73.93,38.11 -147.85,73.41 -222.03,105.39 -71.88,31.21 -143.5,59.6 -215.13,84.92 -63.69,22.51 -127.39,42.97 -191.34,61.14l-17.65 4.86c-68.04,19.18 -135.83,36.07 -203.62,50.14 -66.25,14.07 -132.5,25.84 -198.76,35.3 -64.72,9.21 -129.43,16.37 -193.89,21.23 -63.44,4.86 -126.88,7.67 -189.8,8.19 -62.16,0.77 -123.81,-0.77 -185.71,-4.09 -60.62,-3.33 -121.25,-8.7 -181.62,-15.86 -59.6,-7.16 -118.95,-16.12 -178.04,-26.86 -46.04,-8.44 -92.34,-18.16 -138.39,-28.91 -11.77,-2.81 -24.05,-5.88 -36.07,-8.95 -57.04,-14.07 -114.09,-30.18 -170.87,-48.09 -56.02,-17.39 -111.78,-36.83 -167.55,-58.07 -55,-20.98 -109.99,-43.49 -164.48,-67.79 -53.97,-24.05 -107.69,-49.88 -161.41,-77.25 -52.95,-27.11 -105.64,-56.02 -158.08,-86.2 -51.93,-30.18 -103.6,-61.9 -155.27,-95.41 -50.9,-33 -101.81,-67.53 -152.2,-103.85 -50.39,-35.81 -100.27,-73.41 -149.64,-112.3 -30.44,-24.05 -60.88,-48.6 -91.06,-73.67 -18.67,-15.6 -37.09,-31.46 -55.76,-47.32 -48.09,-41.7 -96.18,-84.92 -143.76,-129.69 -47.32,-44.51 -94.13,-90.55 -140.94,-138.13 -46.3,-47.58 -92.34,-96.44 -138.13,-146.83 -45.53,-50.14 -90.55,-101.81 -135.06,-155.27 -44.76,-52.95 -89.02,-107.44 -132.76,-163.46 -43.49,-56.02 -86.72,-113.32 -129.69,-172.15 -42.72,-58.83 -84.92,-118.95 -126.88,-180.85 -41.7,-61.65 -82.88,-124.57 -123.81,-189.03 -13.56,-21.49 -27.11,-42.97 -40.42,-64.46 -27.11,-44 -53.97,-88.51 -80.83,-133.53 -39.9,-67.27 -79.3,-136.08 -118.18,-206.17 -39.14,-70.34 -77.51,-142.22 -115.36,-215.13 -38.11,-73.16 -75.46,-147.85 -112.3,-224.08 -37.09,-76.23 -73.67,-153.99 -109.48,-233.03 -36.07,-79.3 -71.62,-160.13 -106.41,-242.24 -35.04,-82.62 -69.32,-166.52 -103.09,-251.96 -33.77,-85.69 -67.27,-172.92 -100.02,-261.43 -29.16,-79.81 -57.81,-160.39 -86.2,-242.24l-10.23 -29.93c-31.46,-92.34 -62.41,-186.48 -92.85,-282.15 -30.7,-95.92 -60.37,-193.64 -89.53,-292.89 -29.16,-99.51 -58.07,-200.8 -85.95,-303.63 -27.88,-103.6 -55.51,-208.73 -81.86,-315.4 -26.86,-107.44 -52.95,-216.41 -78.27,-327.17 -25.32,-111.53 -49.88,-224.59 -73.93,-339.44 -24.05,-115.88 -47.32,-233.03 -69.58,-352.23 -22.77,-120.23 -44.51,-242.5 -65.23,-366.05 -21.23,-125.09 -41.18,-251.71 -60.37,-380.12 -19.7,-129.95 -38.11,-261.43 -55.76,-394.7 -17.65,-135.06 -34.53,-271.66 -50.14,-410.56 -16.12,-140.43 -30.95,-283.17 -44.76,-427.44 -14.07,-146.57 -26.86,-295.19 -38.63,-445.34 -12.02,-152.97 -23.02,-307.73 -32.49,-464.27 -9.72,-159.87 -18.42,-321.79 -25.32,-485.5 -7.42,-167.29 -13.56,-336.12 -18.16,-507.5 -4.86,-175.48 -7.93,-352.75 -9.72,-532.06 -2.05,-184.17 -2.56,-370.4 -1.28,-558.66 1.53,-194.15 4.6,-390.6 9.21,-589.36 4.86,-204.89 11.77,-412.6 20.21,-622.61 8.95,-217.43 19.95,-437.16 32.74,-659.96 13.56,-231.75 29.42,-466.58 47.58,-704.21 18.67,-248.64 40.42,-500.34 64.21,-755.12 25.32,-268.59 53.46,-540.5 84.41,-815.74 33.25,-292.38 69.32,-588.59 108.97,-888.39 23.02,-175.48 47.58,-352.23 72.9,-530.27 21.74,-149.9 44.25,-301.07 67.53,-453.02 55.51,-364.26 116.13,-733.37 181.62,-1108.12 73.93,-422.07 154.5,-851.04 241.22,-1286.41 102.83,-514.41 214.36,-1037.77 335.86,-1570.34 161.15,-707.54 339.44,-1431.45 535.39,-2170.96 725.96,-2741.64 1694.92,-5699.18 2948.84,-8860.08 152.97,-385.49 310.03,-774.05 471.44,-1165.67 180.59,-437.67 359.14,-870.23 535.9,-1298.18 324.1,-784.53 642.05,-1553.46 955.15,-2308.58 317.7,-766.63 630.29,-1519.19 939.03,-2260.23l50.65 -120.99c294.17,-705.75 581.17,-1391.03 861.02,-2056.11 299.8,-712.4 591.66,-1402.03 875.34,-2068.38 146.32,-343.79 290.84,-681.45 432.81,-1012.96l19.18 -46.3 -1.79 -50.14 -8.44 -218.2c-6.39,-168.32 -12.53,-336.63 -18.67,-504.43 -6.39,-169.59 -12.28,-338.93 -18.16,-507.76 -5.88,-170.62 -11.51,-340.72 -17.14,-510.57 -5.37,-171.38 -10.74,-342.77 -15.86,-513.64 -5.12,-173.18 -9.98,-345.84 -14.84,-518.5 -4.6,-174.2 -9.21,-347.89 -13.3,-521.32 -4.35,-175.22 -8.44,-350.19 -12.28,-524.9 -3.84,-176.76 -7.42,-353 -10.74,-528.99 -3.33,-178.55 -6.39,-356.58 -9.21,-534.36 -2.81,-180.08 -5.12,-359.91 -7.42,-538.97 -2.05,-182.13 -4.09,-363.49 -5.63,-544.34 -1.53,-184.17 -2.81,-367.84 -3.58,-550.99 -0.77,-186.73 -1.53,-372.95 -1.53,-558.66 0,-188.78 0.26,-376.79 1.02,-564.03 0.51,-191.08 1.79,-381.91 3.33,-571.71 1.53,-194.41 3.58,-388.05 6.39,-581.17 2.56,-197.22 5.88,-393.67 9.46,-589.61 3.84,-200.8 7.93,-401.09 13.05,-600.36 4.86,-205.15 10.74,-409.53 16.88,-612.89 6.39,-209.5 13.56,-417.97 21.23,-625.43 8.19,-215.13 16.88,-429.49 26.6,-642.82 9.98,-220.24 20.72,-439.72 31.97,-657.91 12.28,-227.4 25.07,-453.53 38.88,-678.63 14.58,-235.08 29.93,-468.88 46.81,-701.14 17.39,-245.05 36.07,-488.32 56.02,-729.79l14.32 -172.15c16.88,-198.76 34.79,-396.49 53.21,-593.2 25.84,-271.66 53.21,-541.01 82.37,-808.32 31.72,-291.61 65.48,-580.41 101.55,-866.13 40.42,-322.05 83.65,-640.26 129.69,-954.38 53.46,-365.02 111.02,-724.68 172.15,-1078.7 78.27,-451.23 162.69,-892.74 254.26,-1324.78 178.8,-844.9 383.7,-1652.2 618.01,-2417.8zm-1472.37 60034.8c119.46,-490.11 226.89,-1000.94 323.07,-1531.97 64.46,-357.35 123.81,-723.91 178.55,-1098.65 44.76,-306.45 86.2,-618.26 124.57,-935.97 33.51,-276.52 64.72,-557.38 93.37,-842.09 26.09,-257.33 50.65,-517.74 73.16,-781.46 20.72,-242.24 39.9,-487.3 57.55,-734.65 16.63,-230.99 31.97,-464.53 46.04,-699.86 13.56,-223.31 26.09,-447.9 37.35,-674.8 10.74,-214.87 20.46,-431.28 29.42,-649.47 8.44,-208.99 16.12,-419.51 23.02,-631.31 6.65,-204.13 13.05,-409.02 18.16,-615.96 5.12,-199.01 9.21,-399.3 13.05,-600.61 3.58,-195.17 6.65,-391.37 8.95,-588.85 2.3,-192.1 4.35,-384.72 5.63,-578.62 1.28,-189.03 2.3,-378.84 2.56,-569.41 0.26,-186.22 0.26,-373.47 -0.26,-561.48 -0.77,-183.41 -1.53,-367.58 -3.07,-552.27 -1.28,-181.36 -3.07,-363.23 -5.37,-545.87 -2.05,-179.06 -4.35,-359.14 -7.16,-539.73 -2.81,-177.52 -5.88,-355.56 -9.21,-534.11 -3.33,-175.73 -6.91,-352.23 -10.74,-528.73 -4.09,-174.45 -7.93,-349.16 -12.53,-524.64 -4.35,-172.66 -8.95,-346.09 -13.81,-520.04 -4.86,-171.64 -9.98,-343.79 -15.35,-516.46 -5.12,-170.62 -10.74,-341.49 -16.12,-512.62 -5.88,-169.34 -11.77,-339.19 -17.65,-509.29 -6.14,-168.06 -12.02,-336.63 -18.67,-505.71 -6.14,-167.29 -12.79,-334.84 -19.44,-502.9 -6.39,-166.78 -13.3,-333.56 -20.21,-500.85 -6.91,-165.5 -13.81,-331.51 -21.23,-497.78 -6.91,-165.25 -14.32,-330.49 -21.74,-496.25 -7.42,-164.73 -15.09,-329.72 -22.51,-494.97 -7.67,-163.71 -15.35,-327.68 -23.28,-491.9 -7.67,-163.2 -15.6,-326.65 -23.79,-490.37 -7.93,-162.69 -15.86,-325.63 -24.05,-488.83l-24.81 -487.55 -25.07 -486.02 -25.32 -485.25 -25.84 -484.23 -26.09 -484.48 -26.35 -482.44 -26.35 -482.18 -26.86 -481.16 -26.6 -480.9 -27.11 -480.64 -26.86 -480.9 -21.23 -375.51 0 -14.07 -2.56 -43.74 -2.81 -48.35 -27.11 -481.41 -26.86 -480.9 -26.86 -480.39 -26.86 -480.9 -26.86 -481.67 -26.35 -481.67 -26.35 -482.69 -25.84 -483.2 -26.09 -485.76 -25.32 -484.99c-8.44,-162.18 -16.63,-324.35 -25.07,-486.27 -8.19,-162.69 -16.37,-325.38 -24.56,-487.81 -8.19,-163.2 -16.12,-326.14 -24.3,-488.83l-9.46 -196.45 -14.07 -293.66 -23.79 -490.88 -9.72 -200.03 -382.42 907.57 -142.99 338.93c-301.84,717.77 -605.22,1441.68 -911.15,2175.05 -211.03,506.22 -423.6,1016.8 -637.45,1533 -97.97,235.59 -197.99,476.81 -300.31,723.14 -301.33,726.47 -620.82,1498.72 -956.17,2311.14 -199.52,483.2 -404.93,980.99 -615.45,1491.56 -128.15,310.54 -253.5,619.29 -376.02,926.25 -1336.03,3340.47 -2351.55,6446.11 -3095.92,9301.84 -184.69,707.79 -352.49,1399.98 -504.43,2077.08 -116.64,519.27 -224.08,1029.59 -322.56,1530.44 -83.39,425.39 -160.39,843.88 -230.99,1255.97 -63.18,367.58 -121.25,729.54 -174.45,1086.12l-12.28 83.13c-44,296.98 -83.9,589.87 -120.99,879.18 -37.6,294.42 -72.39,585.27 -103.34,872.27 -28.91,269.36 -55.25,535.39 -78.53,797.83 -22.51,249.66 -41.95,495.74 -59.09,739 -16.37,232.78 -30.7,462.48 -42.46,689.38 -11.51,218.2 -20.98,433.83 -28.39,646.4 -6.91,205.66 -12.28,408.77 -15.6,609.31 -3.33,194.41 -4.86,386.26 -4.6,576.06 0,184.17 1.79,366.3 5.12,545.87 3.07,175.73 7.67,349.16 13.81,520.29 5.88,167.29 13.56,332.03 22.25,494.97 8.44,159.87 18.16,317.96 29.16,473.48 11,152.97 23.02,303.63 36.32,452.51 13.05,146.32 27.37,291.1 42.72,433.58 15.09,140.69 31.21,279.59 48.35,416.44 17.14,134.81 35.3,267.56 54.23,398.79 18.93,129.69 38.63,257.59 59.6,383.44 20.46,124.57 41.7,247.61 64.21,368.86 22,119.97 45.02,238.15 68.81,354.79 23.79,115.11 48.09,228.68 73.41,340.72 25.07,110.76 51.16,220.24 77.76,327.93 26.6,106.92 53.72,212.31 81.86,315.91 27.88,102.83 56.53,204.13 85.95,303.89 28.91,99.25 59.09,196.71 89.53,292.63 30.44,95.41 61.39,189.29 93.11,281.38l1.02 2.3c31.46,91.06 63.69,180.34 96.18,268.08 33,87.99 66.51,174.45 100.53,259.38 34.02,84.67 68.81,167.8 103.85,249.15 35.3,81.34 71.11,161.15 107.69,239.17 36.32,78.02 73.16,154.25 110.76,228.94 37.35,74.69 75.46,147.6 113.83,218.96 38.63,71.37 77.76,140.94 117.41,208.99 20.46,35.04 40.93,69.58 61.65,103.34 19.7,32.49 39.39,64.46 59.35,95.67 40.67,64.97 82.11,127.9 123.81,189.29 42.21,61.39 84.41,121.25 127.39,179.31 42.97,58.32 86.46,114.85 130.46,169.59 44.25,55 88.76,108.2 133.78,159.62 45.28,51.93 91.06,101.81 137.11,149.9 46.56,48.35 93.37,94.9 140.43,139.41 47.83,45.02 95.67,87.99 144.01,129.18l25.07 21.23c40.67,33.77 81.34,66 122.53,97.2 50.14,37.6 100.53,73.16 151.43,106.92 51.42,33.77 103.09,65.48 155.27,95.16 52.69,29.93 105.64,57.81 159.36,83.13 53.97,26.09 108.46,49.62 163.2,70.86 55.76,21.74 111.78,40.93 167.8,57.81 32.23,9.46 64.21,18.42 96.44,26.6 25.32,6.14 50.65,12.02 75.72,17.39 59.09,12.53 117.92,22.51 177.27,29.67 60.62,7.67 121.25,12.28 182.13,14.32 62.41,2.05 125.09,1.28 187.76,-2.56 64.72,-3.84 129.18,-10.74 193.89,-20.72 67.02,-10.49 134.04,-24.3 200.8,-41.44 20.98,-5.37 41.7,-11 62.67,-17.14 48.6,-13.81 96.95,-29.42 145.55,-46.56 72.14,-25.58 144.01,-54.74 215.89,-87.48 75.2,-34.28 150.15,-72.39 225.1,-114.34 78.53,-44 157.06,-92.6 235.33,-145.55 82.88,-55.76 165.25,-116.39 247.61,-182.13 87.99,-70.34 175.48,-146.06 262.7,-227.4 94.39,-88.25 188.27,-183.15 281.63,-284.7 103.34,-112.3 205.92,-232.78 307.21,-361.44l35.04 -44.76c104.11,-133.78 207.2,-276.77 309.52,-428.72 138.39,-205.41 274.73,-427.18 408.51,-665.33 195.17,-347.37 385.23,-729.54 568.64,-1147.25 113.32,-257.84 223.82,-528.99 331.77,-813.69 246.59,-652.8 460.44,-1362.64 645.38,-2122.1z"/>
 </g>
</svg>
