<?xml version="1.0" encoding="UTF-8"?>
<!DOCTYPE svg PUBLIC "-//W3C//DTD SVG 1.1//EN" "http://www.w3.org/Graphics/SVG/1.1/DTD/svg11.dtd">
<!-- Creator: CorelDRAW -->
<svg xmlns="http://www.w3.org/2000/svg" xml:space="preserve" width="189.468mm" height="105.947mm" version="1.1" style="shape-rendering:geometricPrecision; text-rendering:geometricPrecision; image-rendering:optimizeQuality; fill-rule:evenodd; clip-rule:evenodd"
viewBox="0 0 56763.88 31741.18"
 xmlns:xlink="http://www.w3.org/1999/xlink"
 xmlns:xodm="http://www.corel.com/coreldraw/odm/2003">
 <defs>
  <style type="text/css">
   <![CDATA[
    .fil2 {fill:#EDA335;fill-rule:nonzero}
    .fil1 {fill:#EDA335;fill-rule:nonzero}
    .fil3 {fill:#EDA335;fill-rule:nonzero}
    .fil4 {fill:#EBA135;fill-rule:nonzero}
    .fil5 {fill:#EAA135;fill-rule:nonzero}
    .fil6 {fill:#EAA135;fill-rule:nonzero}
    .fil7 {fill:#EAA035;fill-rule:nonzero}
    .fil8 {fill:#E89F35;fill-rule:nonzero}
    .fil9 {fill:#E89F35;fill-rule:nonzero}
    .fil10 {fill:#E79F35;fill-rule:nonzero}
    .fil11 {fill:#E79E35;fill-rule:nonzero}
    .fil12 {fill:#E59E35;fill-rule:nonzero}
    .fil13 {fill:#E49D36;fill-rule:nonzero}
    .fil14 {fill:#E49D36;fill-rule:nonzero}
    .fil15 {fill:#E39C36;fill-rule:nonzero}
    .fil16 {fill:#E29C36;fill-rule:nonzero}
    .fil17 {fill:#E29C36;fill-rule:nonzero}
    .fil18 {fill:#E29B36;fill-rule:nonzero}
    .fil19 {fill:#E19B36;fill-rule:nonzero}
    .fil20 {fill:#E09A36;fill-rule:nonzero}
    .fil21 {fill:#DF9A36;fill-rule:nonzero}
    .fil22 {fill:#DF9936;fill-rule:nonzero}
    .fil23 {fill:#DE9936;fill-rule:nonzero}
    .fil24 {fill:#DD9936;fill-rule:nonzero}
    .fil25 {fill:#DD9937;fill-rule:nonzero}
    .fil26 {fill:#DD9837;fill-rule:nonzero}
    .fil27 {fill:#DC9837;fill-rule:nonzero}
    .fil28 {fill:#DB9737;fill-rule:nonzero}
    .fil29 {fill:#DA9737;fill-rule:nonzero}
    .fil30 {fill:#DA9737;fill-rule:nonzero}
    .fil31 {fill:#DA9637;fill-rule:nonzero}
    .fil32 {fill:#D99637;fill-rule:nonzero}
    .fil33 {fill:#D89637;fill-rule:nonzero}
    .fil34 {fill:#D89537;fill-rule:nonzero}
    .fil35 {fill:#D79537;fill-rule:nonzero}
    .fil36 {fill:#D79537;fill-rule:nonzero}
    .fil37 {fill:#D69437;fill-rule:nonzero}
    .fil38 {fill:#D69437;fill-rule:nonzero}
    .fil39 {fill:#D59438;fill-rule:nonzero}
    .fil40 {fill:#D59338;fill-rule:nonzero}
    .fil41 {fill:#D49338;fill-rule:nonzero}
    .fil42 {fill:#D49238;fill-rule:nonzero}
    .fil43 {fill:#D39238;fill-rule:nonzero}
    .fil44 {fill:#D39238;fill-rule:nonzero}
    .fil45 {fill:#D29238;fill-rule:nonzero}
    .fil46 {fill:#D29138;fill-rule:nonzero}
    .fil47 {fill:#D19138;fill-rule:nonzero}
    .fil48 {fill:#D09138;fill-rule:nonzero}
    .fil49 {fill:#D09038;fill-rule:nonzero}
    .fil50 {fill:#CF9038;fill-rule:nonzero}
    .fil51 {fill:#CE9038;fill-rule:nonzero}
    .fil52 {fill:#CE8F38;fill-rule:nonzero}
    .fil53 {fill:#CD8E38;fill-rule:nonzero}
    .fil54 {fill:#CC8E39;fill-rule:nonzero}
    .fil55 {fill:#CB8D39;fill-rule:nonzero}
    .fil56 {fill:#CB8D39;fill-rule:nonzero}
    .fil57 {fill:#CA8D39;fill-rule:nonzero}
    .fil58 {fill:#C98C39;fill-rule:nonzero}
    .fil59 {fill:#C88C39;fill-rule:nonzero}
    .fil60 {fill:#C78C39;fill-rule:nonzero}
    .fil61 {fill:#C78B39;fill-rule:nonzero}
    .fil62 {fill:#C68A39;fill-rule:nonzero}
    .fil63 {fill:#C58A39;fill-rule:nonzero}
    .fil64 {fill:#C48939;fill-rule:nonzero}
    .fil65 {fill:#C48939;fill-rule:nonzero}
    .fil66 {fill:#C3893A;fill-rule:nonzero}
    .fil67 {fill:#C3883A;fill-rule:nonzero}
    .fil68 {fill:#C28839;fill-rule:nonzero}
    .fil69 {fill:#C2883A;fill-rule:nonzero}
    .fil70 {fill:#C1873A;fill-rule:nonzero}
    .fil71 {fill:#C0873A;fill-rule:nonzero}
    .fil72 {fill:#BF863A;fill-rule:nonzero}
    .fil73 {fill:#BF863A;fill-rule:nonzero}
    .fil74 {fill:#BE853A;fill-rule:nonzero}
    .fil75 {fill:#BD853A;fill-rule:nonzero}
    .fil76 {fill:#BC853A;fill-rule:nonzero}
    .fil77 {fill:#BC843A;fill-rule:nonzero}
    .fil78 {fill:#BB833A;fill-rule:nonzero}
    .fil79 {fill:#BA833A;fill-rule:nonzero}
    .fil80 {fill:#BA833A;fill-rule:nonzero}
    .fil81 {fill:#B9833A;fill-rule:nonzero}
    .fil82 {fill:#B9823A;fill-rule:nonzero}
    .fil83 {fill:#B8823B;fill-rule:nonzero}
    .fil84 {fill:#B8823A;fill-rule:nonzero}
    .fil85 {fill:#B7813B;fill-rule:nonzero}
    .fil86 {fill:#B6813B;fill-rule:nonzero}
    .fil87 {fill:#B6813A;fill-rule:nonzero}
    .fil88 {fill:#B5803B;fill-rule:nonzero}
    .fil89 {fill:#B5803B;fill-rule:nonzero}
    .fil90 {fill:#B4803B;fill-rule:nonzero}
    .fil91 {fill:#B47F3B;fill-rule:nonzero}
    .fil92 {fill:#B37F3B;fill-rule:nonzero}
    .fil93 {fill:#B27F3B;fill-rule:nonzero}
    .fil94 {fill:#B17E3B;fill-rule:nonzero}
    .fil95 {fill:#B17D3B;fill-rule:nonzero}
    .fil96 {fill:#B07D3B;fill-rule:nonzero}
    .fil97 {fill:#AF7D3B;fill-rule:nonzero}
    .fil98 {fill:#AF7C3B;fill-rule:nonzero}
    .fil99 {fill:#AE7C3B;fill-rule:nonzero}
    .fil100 {fill:#AE7C3B;fill-rule:nonzero}
    .fil101 {fill:#AD7B3B;fill-rule:nonzero}
    .fil102 {fill:#AC7B3B;fill-rule:nonzero}
    .fil0 {fill:#AC7B3B;fill-rule:nonzero}
   ]]>
  </style>
    <clipPath id="id0" style="clip-rule:nonzero">
     <path d="M24134.79 2442.82c975.93,-3193.75 3400.38,-2743.7 5754.7,-1527.19l61.54 73.49 0.27 0c19.92,65.97 -15.31,135.99 -81.73,156.75l0 0.3c-85.71,26.21 -470.88,-196.42 -573.31,-244.05 -4812.68,-2238.46 -5407.77,1868.55 -5396.68,6100.52l26 1451.12c371.86,-840.52 1378.32,-3315.27 2285.92,-3741.68 722,-339.2 1407.8,671.21 1788.05,1209.95 455.18,644.91 968.86,1552.39 2037.46,1103.2 368.38,-154.86 919.73,-593.5 1188.2,-867.03l0.33 0.33c582.12,-523.33 1229,-1065.39 1240.45,311.25 18.37,2209.28 -1916.67,8009.25 -3247.38,9596.42 -539.57,643.53 -909.6,471.26 -1000.14,-366.77 -97.94,-906.82 115.91,-3244.86 -689.31,-3547.64 -212.74,-79.99 -393.04,-82.12 -540.41,-24.87 -233.39,95.27 -345.82,-188.84 0,-289.2 375.27,-76.1 848.85,90.9 1073.09,479.29 555.93,962.81 221.43,3257.15 500,3796.03 138.35,267.66 533.94,-282.13 609.14,-385.34 1194.73,-1639.39 2498.3,-5795.27 2855.06,-7615.22 80.77,-412.15 296.24,-1770.67 138.05,-2180.58 -69,-178.8 -277.22,-9.05 -385.01,76.28l0.3 0c-914.58,727.24 -2222.46,2356.35 -3551.77,673.55 -482.35,-610.61 -1303.06,-2248.14 -2147.05,-1576.08 -728.14,579.75 -1778.94,3098.57 -2127.76,3912.66l286.08 5955.25c52.64,1778.28 140.9,5582.91 -1348.9,6621.67 -860.8,600.21 -1513.11,-295.1 -1770.04,-1103.56 -782.63,-2462.56 376.29,-6216.11 1240.75,-8312.05l1333.92 -3207.24c-74.15,-1977.18 -127.78,-4672.5 440.2,-6529.57zm6937.41 26339.4l-1152.19 0 -219.81 531.78 -588.5 0 1106.11 -2481.64 567.23 0 1109.64 2481.64 -602.67 0 -219.81 -531.78zm-180.81 -436.06l-393.52 -950.11 -393.52 950.11 787.04 0zm-5896.47 -1513.8l1127.38 0c269.43,0 507.55,51.41 714.36,154.2 206.78,102.82 367.51,247.59 482.14,434.29 114.63,186.71 171.94,404.15 171.94,652.31 0,248.19 -57.31,465.63 -171.94,652.34 -114.63,186.71 -275.36,331.47 -482.14,434.29 -206.81,102.79 -444.93,154.2 -714.36,154.2l-1127.38 0 0 -2481.64zm1099.01 2010.14c248.16,0 446.1,-69.15 593.83,-207.41 147.7,-138.26 221.55,-325.57 221.55,-561.92 0,-236.32 -73.85,-423.63 -221.55,-561.89 -147.73,-138.26 -345.67,-207.41 -593.83,-207.41l-524.68 0 0 1538.64 524.68 0zm-3237.58 -2010.14l0 2481.64 -471.5 0 -1237.27 -1506.73 0 1506.73 -567.23 0 0 -2481.64 475.04 0 1233.74 1506.7 0 -1506.7 567.23 0zm-4907.35 1949.86l-1152.19 0 -219.81 531.78 -588.5 0 1106.11 -2481.64 567.23 0 1109.64 2481.64 -602.67 0 -219.81 -531.78zm-180.81 -436.06l-393.52 -950.11 -393.52 950.11 787.04 0zm-3592.1 -1513.8l0 2481.64 -471.5 0 -1237.27 -1506.73 0 1506.73 -567.23 0 0 -2481.64 475.04 0 1233.74 1506.7 0 -1506.7 567.23 0zm-4850.64 2481.64l-478.6 -691.32 -28.34 0 -499.88 0 0 691.32 -574.33 0 0 -2481.64 1074.2 0c219.78,0 410.63,36.64 572.53,109.89 161.9,73.28 286.59,177.27 374.02,312 87.45,134.7 131.19,294.23 131.19,478.57 0,184.37 -44.31,343.31 -132.96,476.84 -88.62,133.53 -214.48,235.75 -377.55,306.67l556.59 797.67 -616.87 0zm-10.64 -1581.18c0,-139.43 -44.91,-246.39 -134.7,-320.84 -89.82,-74.45 -221.01,-111.66 -393.52,-111.66l-467.97 0 0 865.02 467.97 0c172.51,0 303.7,-37.81 393.52,-113.46 89.79,-75.62 134.7,-181.97 134.7,-319.07zm-3577.9 1120.31l0 460.87 -1921.49 0 0 -2481.64 1875.41 0 0 460.87 -1304.65 0 0 538.88 1152.19 0 0 446.7 -1152.19 0 0 574.33 1350.73 0zm-5162.61 -1559.91l0 655.88 1148.62 0 0 460.87 -1148.62 0 0 904.03 -574.33 0 0 -2481.64 1875.41 0 0 460.87 -1301.09 0zm55263.27 2042.05c-184.34,0 -361.01,-29.54 -530.02,-88.62 -168.97,-59.11 -299.57,-137.1 -391.72,-233.98l102.79 -202.08c89.82,89.79 209.18,162.47 358.08,218.02 148.9,55.55 302.53,83.32 460.87,83.32 222.18,0 388.79,-40.78 499.88,-122.3 111.09,-81.55 166.64,-187.31 166.64,-317.3 0,-99.29 -30.14,-178.44 -90.42,-237.55 -60.25,-59.08 -134.13,-104.56 -221.55,-136.47 -87.45,-31.91 -209.18,-66.78 -365.18,-104.59 -186.71,-47.28 -335.61,-92.78 -446.7,-136.5 -111.06,-43.71 -206.21,-110.49 -285.4,-200.31 -79.15,-89.82 -118.76,-211.51 -118.76,-365.15 0,-125.26 33.11,-239.32 99.29,-342.11 66.18,-102.82 167.8,-184.94 304.87,-246.39 137.1,-61.48 307.27,-92.19 510.51,-92.19 141.83,0 280.66,19.5 416.56,58.48 135.9,39.01 253.49,92.78 352.74,161.33l-88.62 209.15c-103.99,-68.55 -215.08,-119.93 -333.24,-154.2 -118.19,-34.27 -233.98,-51.41 -347.44,-51.41 -217.45,0 -381.12,41.94 -491.01,125.86 -109.89,83.89 -164.84,192.01 -164.84,324.37 0,99.26 30.11,179.04 90.39,239.32 60.28,60.25 135.9,106.36 226.88,138.26 91.02,31.91 213.31,66.75 366.95,104.56 181.97,44.91 329.11,89.25 441.36,132.96 112.29,43.71 207.41,109.89 285.4,198.54 77.98,88.62 116.99,208.58 116.99,359.81 0,125.26 -33.67,239.32 -101.02,342.14 -67.38,102.79 -170.77,184.34 -310.2,244.62 -139.46,60.25 -310.8,90.39 -514.08,90.39zm-2736.12 -248.16l0 226.88 -1754.88 0 0 -2481.64 1701.71 0 0 226.88 -1439.35 0 0 882.76 1283.35 0 0 223.35 -1283.35 0 0 921.77 1492.53 0zm-4175.5 -436.06l-1382.64 0 -297.8 662.95 -272.96 0 1134.45 -2481.64 258.82 0 1134.45 2481.64 -276.53 0 -297.8 -662.95zm-95.72 -212.71l-595.6 -1332.99 -595.6 1332.99 1191.19 0zm-3764.24 875.66l-567.23 -797.67c-63.81,7.1 -129.99,10.64 -198.54,10.64l-666.48 0 0 787.04 -262.36 0 0 -2481.64 928.84 0c316.7,0 564.89,75.62 744.5,226.88 179.64,151.27 269.43,359.25 269.43,623.97 0,193.81 -49.01,357.48 -147.1,491.01 -98.09,133.53 -238.12,229.85 -420.12,288.93l606.23 850.85 -287.16 0zm-772.84 -1010.39c245.79,0 433.7,-54.35 563.66,-163.07 129.99,-108.72 195.01,-261.16 195.01,-457.33 0,-200.91 -65.01,-355.11 -195.01,-462.67 -129.96,-107.53 -317.87,-161.3 -563.66,-161.3l-659.41 0 0 1244.37 659.41 0zm-4246.38 1031.66c-245.82,0 -468.57,-54.95 -668.28,-164.84 -199.71,-109.92 -355.71,-260.59 -467.97,-452.03 -112.26,-191.44 -168.4,-406.52 -168.4,-645.24 0,-238.69 56.14,-453.77 168.4,-645.21 112.26,-191.44 268.26,-342.11 467.97,-452.03 199.71,-109.89 422.46,-164.84 668.28,-164.84 245.79,0 467.37,54.35 664.71,163.07 197.37,108.72 352.74,259.39 466.2,452.03 113.46,192.61 170.17,408.29 170.17,646.98 0,238.72 -56.71,454.4 -170.17,647.01 -113.46,192.64 -268.83,343.31 -466.2,452.03 -197.34,108.72 -418.93,163.07 -664.71,163.07zm0 -233.98c196.18,0 373.42,-44.31 531.78,-132.93 158.34,-88.65 282.43,-211.54 372.25,-368.71 89.82,-157.17 134.7,-332.67 134.7,-526.48 0,-193.78 -44.88,-369.28 -134.7,-526.45 -89.82,-157.17 -213.91,-280.06 -372.25,-368.71 -158.37,-88.62 -335.61,-132.93 -531.78,-132.93 -196.18,0 -374.02,44.31 -533.55,132.93 -159.53,88.65 -284.8,211.54 -375.81,368.71 -90.99,157.17 -136.47,332.67 -136.47,526.45 0,193.81 45.48,369.31 136.47,526.48 91.02,157.17 216.28,280.06 375.81,368.71 159.53,88.62 337.38,132.93 533.55,132.93zm-3328.18 -2268.93l0 2481.64 -251.72 0 0 -1985.3 -974.92 1669.77 -124.09 0 -974.92 -1659.13 0 1974.67 -251.72 0 0 -2481.64 216.25 0 1077.77 1839.97 1067.1 -1839.97 216.25 0zm18701.05 3483.13l580.47 0c150.7,0 283.78,30.2 399.18,90.63 115.43,60.43 205.04,144.61 268.86,252.56 63.81,107.94 95.72,231.17 95.72,369.64 0,138.5 -31.91,261.73 -95.72,369.67 -63.81,107.94 -153.42,192.13 -268.86,252.56 -115.4,60.43 -248.48,90.63 -399.18,90.63l-580.47 0 0 -1425.69zm572.32 1295.33c124.9,0 234.22,-24.78 327.91,-74.33 93.68,-49.55 166.34,-118.13 217.93,-205.7 51.59,-87.6 77.39,-188.42 77.39,-302.47 0,-114.06 -25.8,-214.87 -77.39,-302.44 -51.59,-87.57 -124.24,-156.15 -217.93,-205.7 -93.68,-49.55 -203.01,-74.36 -327.91,-74.36l-421.59 0 0 1165.01 421.59 0zm-2305.09 -1295.33c181.94,0 324.52,43.44 427.7,130.32 103.21,86.91 154.8,206.39 154.8,358.47 0,152.07 -51.59,271.22 -154.8,357.45 -103.18,86.22 -245.76,129.34 -427.7,129.34l-382.88 0 0 450.11 -150.73 0 0 -1425.69 533.61 0zm-4.07 843.18c141.23,0 249.17,-30.89 323.83,-92.67 74.69,-61.78 112.02,-149.02 112.02,-261.73 0,-115.4 -37.33,-203.99 -112.02,-265.77 -74.66,-61.78 -182.6,-92.69 -323.83,-92.69l-378.81 0 0 712.86 378.81 0zm-2246.01 -712.86l-501.04 0 0 -130.32 1152.79 0 0 130.32 -501.04 0 0 1295.36 -150.7 0 0 -1295.36zm-27722.76 -10844.99c491.94,-2021.22 248.42,-5582.1 125.98,-7763.55l-120.56 -2271.87c-1230.83,2918.96 -2815.72,6367.88 -2585.15,9598.67 46.56,652.61 316.55,2338.23 1189.28,2366.84 783.47,25.65 1260.55,-1396.93 1390.45,-1930.09z"/>
    </clipPath>
 </defs>
 <g id="Camada_x0020_1">
  <metadata id="CorelCorpID_0Corel-Layer"/>
  <g>
   <g style="clip-path:url(#id0)">
    <polygon class="fil0" points="3821.29,41135.22 -8021.65,4498.88 46228.32,-5239.9 58071.26,31396.43 "/>
    <polygon id="_1" class="fil1" points="43951.03,21284.95 43909.69,21157.14 44211.02,21103.03 44252.37,21230.84 "/>
    <path id="_2" class="fil2" d="M43994.35 21254.63l200.88 -36.07 -27.53 -85.21 -200.88 36.07 27.53 85.21zm-129.99 90.96l-68.88 -213.04 502.21 -90.15 68.88 213.04 -502.21 90.15z"/>
    <path id="_3" class="fil2" d="M43907.68 21315.27l401.79 -72.11 -55.1 -170.44 -401.79 72.11 55.1 170.44zm-129.99 90.96l-96.41 -298.25 703.09 -126.22 96.41 298.25 -703.09 126.22z"/>
    <path id="_4" class="fil2" d="M43821.01 21375.9l602.67 -108.18 -82.63 -255.65 -602.67 108.18 82.63 255.65zm-129.99 90.96l-123.97 -383.45 904 -162.29 123.97 383.45 -904 162.29z"/>
    <path id="_5" class="fil3" d="M43734.33 21436.54l803.58 -144.26 -110.19 -340.85 -803.58 144.26 110.19 340.85zm-129.99 90.96l-151.51 -468.69 1104.88 -198.33 151.51 468.69 -1104.88 198.33z"/>
    <path id="_6" class="fil3" d="M43647.66 21497.18l1004.46 -180.33 -137.72 -426.06 -1004.46 180.33 137.72 426.06zm-129.99 90.96l-179.07 -553.89 1305.79 -234.4 179.07 553.89 -1305.79 234.4z"/>
    <path id="_7" class="fil3" d="M43560.99 21557.82l1205.33 -216.37 -165.26 -511.29 -1205.33 216.37 165.26 511.29zm-129.99 90.96l-206.6 -639.1 1506.67 -270.48 206.6 639.1 -1506.67 270.48z"/>
    <path id="_8" class="fil4" d="M43474.31 21618.46l1406.24 -252.44 -192.82 -596.5 -1406.24 252.44 192.82 596.5zm-129.99 90.96l-234.13 -724.3 1707.55 -306.55 234.13 724.3 -1707.55 306.55z"/>
    <path id="_9" class="fil4" d="M43387.64 21679.1l1607.12 -288.51 -220.35 -681.7 -1607.12 288.51 220.35 681.7zm-129.99 90.96l-261.7 -809.54 1908.46 -342.59 261.7 809.54 -1908.46 342.59z"/>
    <path id="_10" class="fil4" d="M43300.97 21739.73l1808.03 -324.58 -247.92 -766.91 -1808.03 324.58 247.92 766.91zm-129.99 90.96l-289.23 -894.74 2109.34 -378.66 289.23 894.74 -2109.34 378.66z"/>
    <path id="_11" class="fil5" d="M43214.3 21800.37l2008.91 -360.62 -275.45 -852.14 -2008.91 360.62 275.45 852.14zm-129.99 90.96l-316.79 -979.95 2310.24 -414.73 316.79 979.95 -2310.24 414.73z"/>
    <path id="_12" class="fil5" d="M43127.62 21861.01l2209.79 -396.7 -302.98 -937.35 -2209.79 396.7 302.98 937.35zm-129.99 90.96l-344.33 -1065.15 2511.12 -450.8 344.33 1065.15 -2511.12 450.8z"/>
    <path id="_13" class="fil5" d="M43040.95 21921.65l2410.7 -432.77 -330.54 -1022.55 -2410.7 432.77 330.54 1022.55zm-129.99 90.96l-371.86 -1150.39 2712 -486.84 371.86 1150.39 -2712 486.84z"/>
    <path id="_14" class="fil5" d="M42954.28 21982.29l2611.58 -468.81 -358.08 -1107.79 -2611.58 468.81 358.08 1107.79zm-129.99 90.96l-399.42 -1235.59 2912.91 -522.91 399.42 1235.59 -2912.91 522.91z"/>
    <path id="_15" class="fil5" d="M42867.6 22042.92l2812.49 -504.88 -385.64 -1192.99 -2812.49 504.88 385.64 1192.99zm-129.99 90.96l-426.95 -1320.8 3113.79 -558.99 426.95 1320.8 -3113.79 558.99z"/>
    <path id="_16" class="fil5" d="M42780.93 22103.56l3013.37 -540.95 -413.17 -1278.2 -3013.37 540.95 413.17 1278.2zm-129.99 90.96l-454.52 -1406.03 3314.7 -595.03 454.52 1406.03 -3314.7 595.03z"/>
    <path id="_17" class="fil6" d="M42694.29 22164.2l3214.22 -577.02 -440.71 -1363.4 -3214.25 577.02 440.74 1363.4zm-130.02 90.96l-482.05 -1491.24 3515.58 -631.1 482.05 1491.24 -3515.58 631.1z"/>
    <path id="_18" class="fil6" d="M42607.61 22224.84l3415.12 -613.06 -468.3 -1448.64 -3415.12 613.06 468.3 1448.64zm-130.02 90.96l-509.58 -1576.44 3716.46 -667.17 509.58 1576.44 -3716.46 667.17z"/>
    <path id="_19" class="fil6" d="M42520.94 22285.48l3616 -649.13 -495.83 -1533.84 -3616 649.13 495.83 1533.84zm-130.02 90.96l-537.15 -1661.65 3917.37 -703.24 537.15 1661.65 -3917.37 703.24z"/>
    <path id="_20" class="fil7" d="M42434.27 22346.12l3816.91 -685.21 -523.39 -1619.05 -3816.91 685.21 523.39 1619.05zm-130.02 90.96l-564.68 -1746.88 4118.25 -739.28 564.68 1746.88 -4118.25 739.28z"/>
    <path id="_21" class="fil8" d="M42347.59 22406.75l4017.79 -721.28 -550.93 -1704.25 -4017.79 721.28 550.93 1704.25zm-130.02 90.96l-592.24 -1832.09 4319.16 -775.35 592.24 1832.09 -4319.16 775.35z"/>
    <path id="_22" class="fil8" d="M42260.92 22467.39l4218.67 -757.32 -578.46 -1789.49 -4218.67 757.32 578.46 1789.49zm-130.02 90.96l-619.77 -1917.29 4520.03 -811.43 619.77 1917.29 -4520.03 811.43z"/>
    <path id="_23" class="fil9" d="M42174.25 22528.03l4419.58 -793.39 -606.02 -1874.69 -4419.58 793.39 606.02 1874.69zm-130.02 90.96l-647.31 -2002.5 4720.91 -847.5 647.31 2002.5 -4720.91 847.5z"/>
    <path id="_24" class="fil9" d="M42087.57 22588.67l4620.46 -829.46 -633.56 -1959.9 -4620.46 829.46 633.56 1959.9zm-130.02 90.96l-674.87 -2087.73 4921.82 -883.54 674.87 2087.73 -4921.82 883.54z"/>
    <path id="_25" class="fil9" d="M42000.9 22649.31l4821.37 -865.5 -661.12 -2045.13 -4821.37 865.5 661.12 2045.13zm-130.02 90.96l-702.4 -2172.94 5122.7 -919.61 702.4 2172.94 -5122.7 919.61z"/>
    <path id="_26" class="fil9" d="M41914.23 22709.95l5022.25 -901.57 -688.65 -2130.34 -5022.25 901.57 688.65 2130.34zm-130.02 90.96l-729.97 -2258.14 5323.61 -955.68 729.97 2258.14 -5323.61 955.68z"/>
    <path id="_27" class="fil9" d="M41827.56 22770.58l5223.13 -937.65 -716.18 -2215.54 -5223.13 937.65 716.18 2215.54zm-130.02 90.96l-757.5 -2343.38 5524.49 -991.72 757.5 2343.38 -5524.49 991.72z"/>
    <path id="_28" class="fil9" d="M41740.88 22831.22l5424.04 -973.72 -743.75 -2300.75 -5424.04 973.72 743.75 2300.75zm-130.02 90.96l-785.03 -2428.59 5725.37 -1027.79 785.03 2428.59 -5725.37 1027.79z"/>
    <path id="_29" class="fil10" d="M41654.21 22891.86l5624.91 -1009.76 -771.28 -2385.98 -5624.91 1009.76 771.28 2385.98zm-130.02 90.96l-812.59 -2513.79 5926.28 -1063.87 812.59 2513.79 -5926.28 1063.87z"/>
    <path id="_30" class="fil10" d="M41567.54 22952.5l5825.82 -1045.83 -798.84 -2471.19 -5825.82 1045.83 798.84 2471.19zm-130.02 90.96l-840.13 -2599 6127.16 -1099.94 840.13 2599 -6127.16 1099.94z"/>
    <path id="_31" class="fil10" d="M41480.86 23013.14l6026.7 -1081.9 -826.38 -2556.39 -6026.7 1081.9 826.38 2556.39zm-130.02 90.96l-867.69 -2684.23 6328.07 -1135.98 867.69 2684.23 -6328.07 1135.98z"/>
    <path id="_32" class="fil10" d="M41394.19 23073.77l6227.58 -1117.97 -853.91 -2641.6 -6227.58 1117.97 853.91 2641.6zm-129.99 90.96l-895.25 -2769.44 6528.92 -1172.05 895.25 2769.44 -6528.92 1172.05z"/>
    <path id="_33" class="fil11" d="M41307.52 23134.41l6428.49 -1154.01 -881.47 -2726.83 -6428.49 1154.01 881.47 2726.83zm-129.99 90.96l-922.79 -2854.64 6729.79 -1208.12 922.79 2854.64 -6729.79 1208.12z"/>
    <path id="_34" class="fil11" d="M41220.84 23195.05l6629.37 -1190.09 -909 -2812.04 -6629.37 1190.09 909 2812.04zm-129.99 90.96l-950.35 -2939.85 6930.7 -1244.19 950.35 2939.85 -6930.7 1244.19z"/>
    <path id="_35" class="fil12" d="M41134.17 23255.69l6830.28 -1226.16 -936.57 -2897.24 -6830.28 1226.16 936.57 2897.24zm-129.99 90.96l-977.88 -3025.08 7131.58 -1280.23 977.88 3025.08 -7131.58 1280.23z"/>
    <path id="_36" class="fil12" d="M41047.5 23316.33l7031.16 -1262.2 -964.1 -2982.48 -7031.16 1262.2 964.1 2982.48zm-129.99 90.96l-1005.44 -3110.29 7332.49 -1316.3 1005.44 3110.29 -7332.49 1316.3z"/>
    <path id="_37" class="fil12" d="M40960.82 23376.97l7232.04 -1298.27 -991.63 -3067.68 -7232.04 1298.27 991.63 3067.68zm-129.99 90.96l-1032.98 -3195.49 7533.37 -1352.38 1032.98 3195.49 -7533.37 1352.38z"/>
    <path id="_38" class="fil12" d="M40874.15 23437.6l7432.95 -1334.34 -1019.2 -3152.89 -7432.95 1334.34 1019.2 3152.89zm-129.99 90.96l-1060.51 -3280.73 7734.25 -1388.42 1060.51 3280.73 -7734.25 1388.42z"/>
    <path id="_39" class="fil12" d="M40787.48 23498.24l7633.83 -1370.41 -1046.73 -3238.09 -7633.83 1370.41 1046.73 3238.09zm-129.99 90.96l-1088.07 -3365.93 7935.16 -1424.49 1088.07 3365.93 -7935.16 1424.49z"/>
    <path id="_40" class="fil12" d="M40700.8 23558.88l7834.73 -1406.45 -1074.29 -3323.33 -7834.73 1406.45 1074.29 3323.33zm-129.99 90.96l-1115.61 -3451.14 8136.04 -1460.56 1115.61 3451.14 -8136.04 1460.56z"/>
    <path id="_41" class="fil13" d="M40614.13 23619.52l8035.61 -1442.52 -1101.82 -3408.53 -8035.61 1442.52 1101.82 3408.53zm-129.99 90.96l-1143.17 -3536.34 8336.95 -1496.63 1143.17 3536.34 -8336.95 1496.63z"/>
    <path id="_42" class="fil13" d="M40527.46 23680.16l8236.49 -1478.6 -1129.36 -3493.74 -8236.49 1478.6 1129.36 3493.74zm-129.99 90.96l-1170.7 -3621.58 8537.83 -1532.67 1170.7 3621.58 -8537.83 1532.67z"/>
    <path id="_43" class="fil13" d="M40440.79 23740.8l8437.4 -1514.67 -1156.92 -3578.94 -8437.4 1514.67 1156.92 3578.94zm-129.99 90.96l-1198.23 -3706.78 8738.71 -1568.74 1198.23 3706.78 -8738.71 1568.74z"/>
    <path id="_44" class="fil13" d="M40354.11 23801.43l8638.28 -1550.71 -1184.45 -3664.18 -8638.28 1550.71 1184.45 3664.18zm-129.99 90.96l-1225.8 -3791.99 8939.61 -1604.82 1225.8 3791.99 -8939.61 1604.82z"/>
    <path id="_45" class="fil14" d="M40267.44 23862.07l8839.19 -1586.78 -1212.02 -3749.38 -8839.19 1586.78 1212.02 3749.38zm-129.99 90.96l-1253.33 -3877.19 9140.49 -1640.89 1253.33 3877.19 -9140.49 1640.89z"/>
    <path id="_46" class="fil14" d="M40180.77 23922.71l9040.07 -1622.85 -1239.55 -3834.59 -9040.07 1622.85 1239.55 3834.59zm-129.99 90.96l-1280.89 -3962.43 9341.4 -1676.93 1280.89 3962.43 -9341.4 1676.93z"/>
    <path id="_47" class="fil15" d="M40094.09 23983.35l9240.95 -1658.89 -1267.08 -3919.82 -9240.95 1658.89 1267.08 3919.82zm-129.99 90.96l-1308.43 -4047.63 9542.28 -1713 1308.43 4047.63 -9542.28 1713z"/>
    <path id="_48" class="fil16" d="M40007.42 24043.99l9441.86 -1694.96 -1294.64 -4005.03 -9441.86 1694.96 1294.64 4005.03zm-129.99 90.96l-1335.96 -4132.84 9743.16 -1749.07 1335.96 4132.84 -9743.16 1749.07z"/>
    <path id="_49" class="fil16" d="M39920.78 24104.62l9642.71 -1731.04 -1322.18 -4090.23 -9642.74 1731.04 1322.21 4090.23zm-130.02 90.96l-1363.52 -4218.07 9944.07 -1785.11 1363.52 4218.07 -9944.07 1785.11z"/>
    <path id="_50" class="fil16" d="M39834.1 24165.26l9843.62 -1767.11 -1349.77 -4175.44 -9843.62 1767.11 1349.77 4175.44zm-130.02 90.96l-1391.05 -4303.28 10144.95 -1821.18 1391.05 4303.28 -10144.95 1821.18z"/>
    <path id="_51" class="fil16" d="M39747.43 24225.9l10044.49 -1803.15 -1377.3 -4260.67 -10044.49 1803.15 1377.3 4260.67zm-130.02 90.96l-1418.62 -4388.48 10345.86 -1857.26 1418.62 4388.48 -10345.86 1857.26z"/>
    <path id="_52" class="fil16" d="M39660.76 24286.54l10245.37 -1839.22 -1404.84 -4345.88 -10245.37 1839.22 1404.84 4345.88zm-130.02 90.96l-1446.15 -4473.69 10546.74 -1893.33 1446.15 4473.69 -10546.74 1893.33z"/>
    <path id="_53" class="fil17" d="M39574.08 24347.18l10446.28 -1875.29 -1432.4 -4431.08 -10446.28 1875.29 1432.4 4431.08zm-130.02 90.96l-1473.68 -4558.92 10747.62 -1929.37 1473.68 4558.92 -10747.62 1929.37z"/>
    <path id="_54" class="fil17" d="M39487.41 24407.82l10647.16 -1911.36 -1459.93 -4516.29 -10647.16 1911.36 1459.93 4516.29zm-130.02 90.96l-1501.25 -4644.13 10948.53 -1965.44 1501.25 4644.13 -10948.53 1965.44z"/>
    <path id="_55" class="fil17" d="M39400.74 24468.45l10848.07 -1947.4 -1487.49 -4601.52 -10848.07 1947.4 1487.49 4601.52zm-130.02 90.96l-1528.78 -4729.33 11149.4 -2001.51 1528.78 4729.33 -11149.4 2001.51z"/>
    <path id="_56" class="fil17" d="M39314.06 24529.09l11048.95 -1983.48 -1515.03 -4686.73 -11048.95 1983.48 1515.03 4686.73zm-130.02 90.96l-1556.34 -4814.54 11350.31 -2037.58 1556.34 4814.54 -11350.31 2037.58z"/>
    <path id="_57" class="fil18" d="M39227.39 24589.73l11249.83 -2019.55 -1542.56 -4771.93 -11249.83 2019.55 1542.56 4771.93zm-130.02 90.96l-1583.87 -4899.77 11551.19 -2073.62 1583.87 4899.77 -11551.19 2073.62z"/>
    <path id="_58" class="fil18" d="M39140.72 24650.37l11450.74 -2055.59 -1570.12 -4857.17 -11450.74 2055.59 1570.12 4857.17zm-130.02 90.96l-1611.41 -4984.98 11752.07 -2109.7 1611.41 4984.98 -11752.07 2109.7z"/>
    <path id="_59" class="fil19" d="M39054.05 24711.01l11651.62 -2091.66 -1597.66 -4942.38 -11651.62 2091.66 1597.66 4942.38zm-130.02 90.96l-1638.97 -5070.18 11952.98 -2145.77 1638.97 5070.18 -11952.98 2145.77z"/>
    <path id="_60" class="fil19" d="M38967.37 24771.65l11852.53 -2127.73 -1625.22 -5027.58 -11852.53 2127.73 1625.22 5027.58zm-130.02 90.96l-1666.5 -5155.42 12153.86 -2181.81 1666.5 5155.42 -12153.86 2181.81z"/>
    <path id="_61" class="fil20" d="M38880.7 24832.28l12053.41 -2163.8 -1652.75 -5112.79 -12053.41 2163.8 1652.75 5112.79zm-130.02 90.96l-1694.07 -5240.62 12354.77 -2217.88 1694.07 5240.62 -12354.77 2217.88z"/>
    <path id="_62" class="fil20" d="M38794.03 24892.92l12254.28 -2199.84 -1680.28 -5198.02 -12254.28 2199.84 1680.28 5198.02zm-130.02 90.96l-1721.6 -5325.83 12555.65 -2253.95 1721.6 5325.83 -12555.65 2253.95z"/>
    <path id="_63" class="fil20" d="M38707.35 24953.56l12455.19 -2235.91 -1707.85 -5283.23 -12455.19 2235.91 1707.85 5283.23zm-130.02 90.96l-1749.13 -5411.03 12756.53 -2290.02 1749.13 5411.03 -12756.53 2290.02z"/>
    <path id="_64" class="fil20" d="M38620.68 25014.2l12656.07 -2271.99 -1735.38 -5368.43 -12656.07 2271.99 1735.38 5368.43zm-129.99 90.96l-1776.72 -5496.27 12957.41 -2326.06 1776.72 5496.27 -12957.41 2326.06z"/>
    <path id="_65" class="fil20" d="M38534.01 25074.84l12856.98 -2308.06 -1762.94 -5453.64 -12856.95 2308.03 1762.91 5453.67zm-129.99 90.96l-1804.26 -5581.47 13158.29 -2362.13 1804.26 5581.47 -13158.29 2362.13z"/>
    <path id="_66" class="fil21" d="M38447.33 25135.47l13057.86 -2344.1 -1790.48 -5538.87 -13057.86 2344.1 1790.48 5538.87zm-129.99 90.96l-1831.79 -5666.68 13359.17 -2398.21 1831.79 5666.68 -13359.17 2398.21z"/>
    <path id="_67" class="fil21" d="M38360.66 25196.11l13258.74 -2380.17 -1818.01 -5624.08 -13258.74 2380.17 1818.01 5624.08zm-129.99 90.96l-1859.35 -5751.88 13560.07 -2434.28 1859.35 5751.88 -13560.07 2434.28z"/>
    <path id="_68" class="fil21" d="M38273.99 25256.75l13459.65 -2416.24 -1845.57 -5709.28 -13459.65 2416.24 1845.57 5709.28zm-129.99 90.96l-1886.89 -5837.12 13760.95 -2470.32 1886.89 5837.12 -13760.95 2470.32z"/>
    <path id="_69" class="fil21" d="M38187.31 25317.39l13660.53 -2452.28 -1873.1 -5794.52 -13660.53 2452.28 1873.1 5794.52zm-129.99 90.96l-1914.45 -5922.32 13961.86 -2506.39 1914.45 5922.32 -13961.86 2506.39z"/>
    <path id="_70" class="fil22" d="M38100.64 25378.03l13861.41 -2488.35 -1900.64 -5879.72 -13861.41 2488.35 1900.64 5879.72zm-129.99 90.96l-1941.98 -6007.53 14162.74 -2542.46 1941.98 6007.53 -14162.74 2542.46z"/>
    <path id="_71" class="fil22" d="M38013.97 25438.67l14062.32 -2524.43 -1928.2 -5964.93 -14062.32 2524.43 1928.2 5964.93zm-129.99 90.96l-1969.51 -6092.76 14363.62 -2578.5 1969.51 6092.76 -14363.62 2578.5z"/>
    <path id="_72" class="fil23" d="M37927.29 25499.3l14263.2 -2560.5 -1955.73 -6050.13 -14263.2 2560.5 1955.73 6050.13zm-129.99 90.96l-1997.08 -6177.97 14564.53 -2614.57 1997.08 6177.97 -14564.53 2614.57z"/>
    <path id="_73" class="fil23" d="M37840.62 25559.94l14464.1 -2596.54 -1983.3 -6135.37 -14464.1 2596.54 1983.3 6135.37zm-129.99 90.96l-2024.61 -6263.17 14765.41 -2650.65 2024.61 6263.17 -14765.41 2650.65z"/>
    <path id="_74" class="fil23" d="M37753.95 25620.58l14664.98 -2632.61 -2010.83 -6220.57 -14664.98 2632.61 2010.83 6220.57zm-129.99 90.96l-2052.17 -6348.38 14966.32 -2686.72 2052.17 6348.38 -14966.32 2686.72z"/>
    <path id="_75" class="fil24" d="M37667.28 25681.22l14865.86 -2668.68 -2038.36 -6305.78 -14865.86 2668.68 2038.36 6305.78zm-129.99 90.96l-2079.71 -6433.61 15167.2 -2722.76 2079.71 6433.61 -15167.2 2722.76z"/>
    <path id="_76" class="fil24" d="M37580.6 25741.86l15066.77 -2704.72 -2065.92 -6391.01 -15066.77 2704.72 2065.92 6391.01zm-129.99 90.96l-2107.24 -6518.82 15368.08 -2758.83 2107.24 6518.82 -15368.08 2758.83z"/>
    <path id="_77" class="fil24" d="M37493.93 25802.5l15267.65 -2740.79 -2093.46 -6476.22 -15267.65 2740.79 2093.46 6476.22zm-129.99 90.96l-2134.8 -6604.02 15568.99 -2794.9 2134.8 6604.02 -15568.99 2794.9z"/>
    <path id="_78" class="fil25" d="M37407.26 25863.13l15468.56 -2776.87 -2121.02 -6561.42 -15468.56 2776.87 2121.02 6561.42zm-129.99 90.96l-2162.33 -6689.23 15769.86 -2830.97 2162.33 6689.23 -15769.86 2830.97z"/>
    <path id="_79" class="fil25" d="M37320.58 25923.77l15669.44 -2812.94 -2148.55 -6646.63 -15669.44 2812.94 2148.55 6646.63zm-129.99 90.96l-2189.9 -6774.46 15970.77 -2867.01 2189.9 6774.46 -15970.77 2867.01z"/>
    <path id="_80" class="fil25" d="M37233.91 25984.41l15870.32 -2848.98 -2176.09 -6731.86 -15870.32 2848.98 2176.09 6731.86zm-129.99 90.96l-2217.43 -6859.67 16171.65 -2903.09 2217.43 6859.67 -16171.65 2903.09z"/>
    <path id="_81" class="fil25" d="M37147.27 26045.05l16071.2 -2885.05 -2203.65 -6817.07 -16071.23 2885.05 2203.68 6817.07zm-130.02 90.96l-2244.96 -6944.87 16372.53 -2939.16 2244.96 6944.87 -16372.53 2939.16z"/>
    <path id="_82" class="fil26" d="M37060.59 26105.69l16272.08 -2921.12 -2231.21 -6902.27 -16272.08 2921.12 2231.21 6902.27zm-130.02 90.96l-2272.53 -7030.11 16573.44 -2975.2 2272.53 7030.11 -16573.44 2975.2z"/>
    <path id="_83" class="fil26" d="M36973.92 26166.32l16472.99 -2957.19 -2258.77 -6987.48 -16472.99 2957.19 2258.77 6987.48zm-130.02 90.96l-2300.06 -7115.31 16774.32 -3011.27 2300.06 7115.31 -16774.32 3011.27z"/>
    <path id="_84" class="fil27" d="M36887.25 26226.96l16673.87 -2993.23 -2286.31 -7072.71 -16673.87 2993.23 2286.31 7072.71zm-130.02 90.96l-2327.62 -7200.52 16975.23 -3047.34 2327.62 7200.52 -16975.23 3047.34z"/>
    <path id="_85" class="fil27" d="M36800.57 26287.6l16874.74 -3029.3 -2313.84 -7157.92 -16874.74 3029.3 2313.84 7157.92zm-130.02 90.96l-2355.15 -7285.73 17176.11 -3083.41 2355.15 7285.73 -17176.11 3083.41z"/>
    <path id="_86" class="fil27" d="M36713.9 26348.24l17075.65 -3065.38 -2341.4 -7243.12 -17075.65 3065.38 2341.4 7243.12zm-130.02 90.96l-2382.69 -7370.96 17376.99 -3119.45 2382.69 7370.96 -17376.99 3119.45z"/>
    <path id="_87" class="fil27" d="M36627.23 26408.88l17276.53 -3101.42 -2368.94 -7328.36 -17276.53 3101.42 2368.94 7328.36zm-130.02 90.96l-2410.25 -7456.17 17577.9 -3155.52 2410.25 7456.17 -17577.9 3155.52z"/>
    <path id="_88" class="fil28" d="M36540.55 26469.52l17477.44 -3137.49 -2396.5 -7413.56 -17477.44 3137.49 2396.5 7413.56zm-130.02 90.96l-2437.78 -7541.37 17778.78 -3191.6 2437.78 7541.37 -17778.78 3191.6z"/>
    <path id="_89" class="fil28" d="M36453.88 26530.15l17678.32 -3173.56 -2424.03 -7498.77 -17678.32 3173.56 2424.03 7498.77zm-130.02 90.96l-2465.35 -7626.58 17979.68 -3227.67 2465.35 7626.58 -17979.68 3227.67z"/>
    <path id="_90" class="fil29" d="M36367.21 26590.79l17879.2 -3209.63 -2451.56 -7583.97 -17879.2 3209.63 2451.56 7583.97zm-130.02 90.96l-2492.88 -7711.81 18180.56 -3263.71 2492.88 7711.81 -18180.56 3263.71z"/>
    <path id="_91" class="fil29" d="M36280.54 26651.43l18080.11 -3245.67 -2479.13 -7669.21 -18080.11 3245.67 2479.13 7669.21zm-130.02 90.96l-2520.41 -7797.02 18381.44 -3299.78 2520.41 7797.02 -18381.44 3299.78z"/>
    <path id="_92" class="fil29" d="M36193.86 26712.07l18280.99 -3281.74 -2506.66 -7754.41 -18280.99 3281.74 2506.66 7754.41zm-130.02 90.96l-2547.97 -7882.22 18582.35 -3335.85 2547.97 7882.22 -18582.35 3335.85z"/>
    <path id="_93" class="fil29" d="M36107.19 26772.71l18481.9 -3317.82 -2534.22 -7839.62 -18481.9 3317.82 2534.22 7839.62zm-130.02 90.96l-2575.51 -7967.46 18783.23 -3371.89 2575.51 7967.46 -18783.23 3371.89z"/>
    <path id="_94" class="fil29" d="M36020.52 26833.34l18682.78 -3353.89 -2561.76 -7924.82 -18682.78 3353.89 2561.76 7924.82zm-130.02 90.96l-2603.07 -8052.66 18984.14 -3407.96 2603.07 8052.66 -18984.14 3407.96z"/>
    <path id="_95" class="fil30" d="M35933.84 26893.98l18883.66 -3389.93 -2589.29 -8010.06 -18883.66 3389.93 2589.29 8010.06zm-130.02 90.96l-2630.6 -8137.87 19185.02 -3444.04 2630.6 8137.87 -19185.02 3444.04z"/>
    <path id="_96" class="fil31" d="M35847.17 26954.62l19084.56 -3426 -2616.85 -8095.26 -19084.56 3426 2616.85 8095.26zm-129.99 90.96l-2658.17 -8223.07 19385.87 -3480.11 2658.17 8223.07 -19385.87 3480.11z"/>
    <path id="_97" class="fil31" d="M35760.5 27015.26l19285.44 -3462.07 -2644.38 -8180.47 -19285.44 3462.07 2644.38 8180.47zm-129.99 90.96l-2685.73 -8308.31 19586.78 -3516.15 2685.73 8308.31 -19586.78 3516.15z"/>
    <path id="_98" class="fil31" d="M35673.82 27075.9l19486.35 -3498.11 -2671.95 -8265.7 -19486.35 3498.11 2671.95 8265.7zm-129.99 90.96l-2713.26 -8393.51 19787.66 -3552.22 2713.26 8393.51 -19787.66 3552.22z"/>
    <path id="_99" class="fil31" d="M35587.15 27136.54l19687.23 -3534.18 -2699.48 -8350.91 -19687.23 3534.18 2699.48 8350.91zm-129.99 90.96l-2740.82 -8478.72 19988.57 -3588.29 2740.82 8478.72 -19988.57 3588.29z"/>
    <path id="_100" class="fil31" d="M35500.48 27197.17l19888.11 -3570.26 -2727.01 -8436.11 -19888.11 3570.26 2727.01 8436.11zm-129.99 90.96l-2768.36 -8563.92 20189.44 -3624.36 2768.36 8563.92 -20189.44 3624.36z"/>
    <path id="_101" class="fil32" d="M35413.8 27257.81l20089.02 -3606.33 -2754.58 -8521.32 -20089.02 3606.33 2754.58 8521.32zm-129.99 90.96l-2795.89 -8649.16 20390.32 -3660.4 2795.89 8649.16 -20390.32 3660.4z"/>
    <path id="_102" class="fil33" d="M35327.13 27318.45l20289.9 -3642.37 -2782.11 -8606.55 -20289.9 3642.37 2782.11 8606.55zm-129.99 90.96l-2823.45 -8734.36 20591.23 -3696.48 2823.45 8734.36 -20591.23 3696.48z"/>
    <path id="_103" class="fil33" d="M35240.46 27379.09l20490.81 -3678.44 -2809.67 -8691.76 -20490.81 3678.44 2809.67 8691.76zm-129.99 90.96l-2850.99 -8819.57 20792.11 -3732.55 2850.99 8819.57 -20792.11 3732.55z"/>
    <path id="_104" class="fil33" d="M35153.78 27439.73l20691.69 -3714.51 -2837.2 -8776.96 -20691.69 3714.51 2837.2 8776.96zm-129.99 90.96l-2878.55 -8904.8 20993.02 -3768.59 2878.55 8904.8 -20993.02 3768.59z"/>
    <path id="_105" class="fil33" d="M35067.11 27500.37l20892.57 -3750.58 -2864.74 -8862.17 -20892.57 3750.58 2864.74 8862.17zm-129.99 90.96l-2906.08 -8990.01 21193.9 -3804.66 2906.08 8990.01 -21193.9 3804.66z"/>
    <path id="_106" class="fil33" d="M34980.44 27561l21093.48 -3786.62 -2892.3 -8947.4 -21093.48 3786.62 2892.3 8947.4zm-129.99 90.96l-2933.61 -9075.21 21394.78 -3840.73 2933.61 9075.21 -21394.78 3840.73z"/>
    <path id="_107" class="fil34" d="M34893.77 27621.64l21294.35 -3822.7 -2919.83 -9032.61 -21294.35 3822.7 2919.83 9032.61zm-129.99 90.96l-2961.18 -9160.42 21595.69 -3876.8 2961.18 9160.42 -21595.69 3876.8z"/>
    <path id="_108" class="fil35" d="M34807.09 27682.28l21495.26 -3858.77 -2947.4 -9117.81 -21495.26 3858.77 2947.4 9117.81zm-129.99 90.96l-2988.71 -9245.65 21796.57 -3912.84 2988.71 9245.65 -21796.57 3912.84z"/>
    <path id="_109" class="fil35" d="M34720.42 27742.92l21696.14 -3894.81 -2974.93 -9203.05 -21696.14 3894.81 2974.93 9203.05zm-129.99 90.96l-3016.27 -9330.86 21997.48 -3948.91 3016.27 9330.86 -21997.48 3948.91z"/>
    <path id="_110" class="fil35" d="M34633.75 27803.56l21897.02 -3930.88 -3002.46 -9288.25 -21897.02 3930.88 3002.46 9288.25zm-129.99 90.96l-3043.81 -9416.06 22198.36 -3984.99 3043.81 9416.06 -22198.36 3984.99z"/>
    <path id="_111" class="fil35" d="M34547.07 27864.19l22097.93 -3966.95 -3030.02 -9373.46 -22097.93 3966.95 3030.02 9373.46zm-129.99 90.96l-3071.34 -9501.27 22399.23 -4021.06 3071.34 9501.27 -22399.23 4021.06z"/>
    <path id="_112" class="fil35" d="M34460.4 27924.83l22298.81 -4003.02 -3057.56 -9458.66 -22298.81 4003.02 3057.56 9458.66zm-129.99 90.96l-3098.9 -9586.5 22600.14 -4057.1 3098.9 9586.5 -22600.14 4057.1z"/>
    <path id="_113" class="fil35" d="M34373.76 27985.47l22499.69 -4039.06 -3085.12 -9543.9 -22499.72 4039.06 3085.15 9543.9zm-130.02 90.96l-3126.43 -9671.71 22801.02 -4093.17 3126.43 9671.71 -22801.02 4093.17z"/>
    <path id="_114" class="fil36" d="M34287.08 28046.11l22700.57 -4075.13 -3112.68 -9629.11 -22700.57 4075.13 3112.68 9629.11zm-130.02 90.96l-3154 -9756.91 23001.93 -4129.24 3154 9756.91 -23001.93 4129.24z"/>
    <path id="_115" class="fil37" d="M34200.41 28106.75l22901.45 -4111.21 -3140.22 -9714.31 -22901.45 4111.21 3140.22 9714.31zm-130.02 90.96l-3181.53 -9842.15 23202.81 -4165.28 3181.53 9842.15 -23202.81 4165.28z"/>
    <path id="_116" class="fil37" d="M34113.74 28167.39l23102.36 -4147.28 -3167.78 -9799.52 -23102.36 4147.28 3167.78 9799.52zm-130.02 90.96l-3209.06 -9927.35 23403.69 -4201.35 3209.06 9927.35 -23403.69 4201.35z"/>
    <path id="_117" class="fil37" d="M34027.06 28228.02l23303.24 -4183.32 -3195.31 -9884.75 -23303.24 4183.32 3195.31 9884.75zm-130.02 90.96l-3236.63 -10012.56 23604.6 -4237.43 3236.63 10012.56 -23604.6 4237.43z"/>
    <path id="_118" class="fil37" d="M33940.39 28288.66l23504.14 -4219.39 -3222.87 -9969.96 -23504.14 4219.39 3222.87 9969.96zm-130.02 90.96l-3264.16 -10097.76 23805.48 -4273.5 3264.16 10097.76 -23805.48 4273.5z"/>
    <path id="_119" class="fil38" d="M33853.72 28349.3l23705.02 -4255.46 -3250.41 -10055.16 -23705.02 4255.46 3250.41 10055.16zm-130.02 90.96l-3291.72 -10183 24006.39 -4309.54 3291.72 10183 -24006.39 4309.54z"/>
    <path id="_120" class="fil38" d="M33767.04 28409.94l23905.9 -4291.5 -3277.94 -10140.4 -23905.9 4291.5 3277.94 10140.4zm-130.02 90.96l-3319.25 -10268.2 24207.27 -4345.61 3319.25 10268.2 -24207.27 4345.61z"/>
    <path id="_121" class="fil39" d="M33680.37 28470.58l24106.81 -4327.57 -3305.5 -10225.6 -24106.81 4327.57 3305.5 10225.6zm-130.02 90.96l-3346.79 -10353.41 24408.15 -4381.68 3346.79 10353.41 -24408.15 4381.68z"/>
    <path id="_122" class="fil39" d="M33593.7 28531.22l24307.69 -4363.65 -3333.04 -10310.81 -24307.69 4363.65 3333.04 10310.81zm-130.02 90.96l-3374.35 -10438.61 24609.05 -4417.75 3374.35 10438.61 -24609.05 4417.75z"/>
    <path id="_123" class="fil39" d="M33507.03 28591.85l24508.6 -4399.72 -3360.6 -10396.01 -24508.6 4399.72 3360.6 10396.01zm-130.02 90.96l-3401.88 -10523.85 24809.93 -4453.79 3401.88 10523.85 -24809.93 4453.79z"/>
    <path id="_124" class="fil39" d="M33420.35 28652.49l24709.48 -4435.76 -3388.13 -10481.25 -24709.48 4435.76 3388.13 10481.25zm-130.02 90.96l-3429.45 -10609.05 25010.84 -4489.87 3429.45 10609.05 -25010.84 4489.87z"/>
    <path id="_125" class="fil39" d="M33333.68 28713.13l24910.36 -4471.83 -3415.66 -10566.45 -24910.36 4471.83 3415.66 10566.45zm-130.02 90.96l-3456.98 -10694.26 25211.72 -4525.94 3456.98 10694.26 -25211.72 4525.94z"/>
    <path id="_126" class="fil39" d="M33247.01 28773.77l25111.27 -4507.9 -3443.23 -10651.66 -25111.27 4507.9 3443.23 10651.66zm-130.02 90.96l-3484.51 -10779.49 25412.6 -4561.98 3484.51 10779.49 -25412.6 4561.98z"/>
    <path id="_127" class="fil40" d="M33160.33 28834.41l25312.15 -4543.97 -3470.76 -10736.86 -25312.15 4543.97 3470.76 10736.86zm-130.02 90.96l-3512.07 -10864.7 25613.51 -4598.05 3512.07 10864.7 -25613.51 4598.05z"/>
    <path id="_128" class="fil41" d="M33073.66 28895.04l25513.06 -4580.01 -3498.32 -10822.1 -25513.06 4580.01 3498.32 10822.1zm-129.99 90.96l-3539.64 -10949.9 25814.36 -4634.12 3539.64 10949.9 -25814.36 4634.12z"/>
    <path id="_129" class="fil41" d="M32986.99 28955.68l25713.93 -4616.09 -3525.86 -10907.3 -25713.93 4616.09 3525.86 10907.3zm-129.99 90.96l-3567.2 -11035.11 26015.27 -4670.19 3567.2 11035.11 -26015.27 4670.19z"/>
    <path id="_130" class="fil41" d="M32900.31 29016.32l25914.81 -4652.16 -3553.39 -10992.51 -25914.81 4652.16 3553.39 10992.51zm-129.99 90.96l-3594.73 -11120.34 26216.15 -4706.23 3594.73 11120.34 -26216.15 4706.23z"/>
    <path id="_131" class="fil41" d="M32813.64 29076.96l26115.72 -4688.2 -3580.95 -11077.74 -26115.72 4688.2 3580.95 11077.74zm-129.99 90.96l-3622.27 -11205.55 26417.03 -4742.3 3622.27 11205.55 -26417.03 4742.3z"/>
    <path id="_132" class="fil42" d="M32726.97 29137.6l26316.6 -4724.27 -3608.48 -11162.95 -26316.6 4724.27 3608.48 11162.95zm-129.99 90.96l-3649.83 -11290.75 26617.94 -4778.38 3649.83 11290.75 -26617.94 4778.38z"/>
    <path id="_133" class="fil43" d="M32640.29 29198.24l26517.51 -4760.34 -3636.05 -11248.15 -26517.51 4760.34 3636.05 11248.15zm-129.99 90.96l-3677.36 -11375.99 26818.81 -4814.42 3677.36 11375.99 -26818.81 4814.42z"/>
    <path id="_134" class="fil43" d="M32553.62 29258.87l26718.39 -4796.41 -3663.58 -11333.36 -26718.39 4796.41 3663.58 11333.36zm-129.99 90.96l-3704.92 -11461.19 27019.72 -4850.49 3704.92 11461.19 -27019.72 4850.49z"/>
    <path id="_135" class="fil43" d="M32466.95 29319.51l26919.27 -4832.45 -3691.11 -11418.59 -26919.27 4832.45 3691.11 11418.59zm-129.99 90.96l-3732.46 -11546.4 27220.6 -4886.56 3732.46 11546.4 -27220.6 4886.56z"/>
    <path id="_136" class="fil43" d="M32380.27 29380.15l27120.18 -4868.52 -3718.68 -11503.8 -27120.18 4868.52 3718.68 11503.8zm-129.99 90.96l-3759.99 -11631.6 27421.48 -4922.63 3759.99 11631.6 -27421.48 4922.63z"/>
    <path id="_137" class="fil43" d="M32293.6 29440.79l27321.06 -4904.6 -3746.21 -11589 -27321.06 4904.6 3746.21 11589zm-129.99 90.96l-3787.55 -11716.84 27622.39 -4958.67 3787.55 11716.84 -27622.39 4958.67z"/>
    <path id="_138" class="fil43" d="M32206.93 29501.43l27521.97 -4940.67 -3773.77 -11674.21 -27521.97 4940.67 3773.77 11674.21zm-129.99 90.96l-3815.09 -11802.04 27823.27 -4994.74 3815.09 11802.04 -27823.27 4994.74z"/>
    <path id="_139" class="fil44" d="M32120.26 29562.07l27722.85 -4976.71 -3801.3 -11759.44 -27722.85 4976.71 3801.3 11759.44zm-129.99 90.96l-3842.65 -11887.25 28024.18 -5030.82 3842.65 11887.25 -28024.18 5030.82z"/>
    <path id="_140" class="fil44" d="M32033.58 29622.7l27923.72 -5012.78 -3828.84 -11844.65 -27923.72 5012.78 3828.84 11844.65zm-129.99 90.96l-3870.18 -11972.46 28225.06 -5066.89 3870.18 11972.46 -28225.06 5066.89z"/>
    <path id="_141" class="fil45" d="M31946.91 29683.34l28124.63 -5048.85 -3856.4 -11929.85 -28124.63 5048.85 3856.4 11929.85zm-129.99 90.96l-3897.71 -12057.69 28425.94 -5102.93 3897.71 12057.69 -28425.94 5102.93z"/>
    <path id="_142" class="fil45" d="M31860.24 29743.98l28325.51 -5084.89 -3883.93 -12015.09 -28325.51 5084.89 3883.93 12015.09zm-129.99 90.96l-3925.28 -12142.9 28626.85 -5139 3925.28 12142.9 -28626.85 5139z"/>
    <path id="_143" class="fil45" d="M31773.56 29804.62l28526.42 -5120.96 -3911.5 -12100.29 -28526.42 5120.96 3911.5 12100.29zm-129.99 90.96l-3952.81 -12228.1 28827.73 -5175.07 3952.81 12228.1 -28827.73 5175.07z"/>
    <path id="_144" class="fil46" d="M31686.89 29865.26l28727.3 -5157.04 -3939.03 -12185.5 -28727.3 5157.04 3939.03 12185.5zm-129.99 90.96l-3980.37 -12313.34 29028.63 -5211.11 3980.37 12313.34 -29028.63 5211.11z"/>
    <path id="_145" class="fil47" d="M31600.25 29925.89l28928.15 -5193.11 -3966.56 -12270.7 -28928.18 5193.11 3966.59 12270.7zm-130.02 90.96l-4007.91 -12398.54 29229.51 -5247.18 4007.91 12398.54 -29229.51 5247.18z"/>
    <path id="_146" class="fil47" d="M31513.57 29986.53l29129.06 -5229.15 -3994.15 -12355.94 -29129.06 5229.15 3994.15 12355.94zm-130.02 90.96l-4035.44 -12483.75 29430.39 -5283.26 4035.44 12483.75 -29430.39 5283.26z"/>
    <path id="_147" class="fil47" d="M31426.9 30047.17l29329.94 -5265.22 -4021.69 -12441.14 -29329.94 5265.22 4021.69 12441.14zm-130.02 90.96l-4063 -12568.95 29631.3 -5319.33 4063 12568.95 -29631.3 5319.33z"/>
    <path id="_148" class="fil47" d="M31340.23 30107.81l29530.85 -5301.29 -4049.25 -12526.35 -29530.85 5301.29 4049.25 12526.35zm-130.02 90.96l-4090.53 -12654.19 29832.18 -5355.37 4090.53 12654.19 -29832.18 5355.37z"/>
    <path id="_149" class="fil47" d="M31253.55 30168.45l29731.73 -5337.36 -4076.78 -12611.55 -29731.73 5337.36 4076.78 12611.55zm-130.02 90.96l-4118.1 -12739.39 30033.09 -5391.44 4118.1 12739.39 -30033.09 5391.44z"/>
    <path id="_150" class="fil47" d="M31166.88 30229.09l29932.61 -5373.4 -4104.32 -12696.79 -29932.61 5373.4 4104.32 12696.79zm-130.02 90.96l-4145.63 -12824.6 30233.97 -5427.51 4145.63 12824.6 -30233.97 5427.51z"/>
    <path id="_151" class="fil48" d="M31080.21 30289.72l30133.51 -5409.48 -4131.88 -12781.99 -30133.51 5409.48 4131.88 12781.99zm-130.02 90.96l-4173.16 -12909.8 30434.85 -5463.58 4173.16 12909.8 -30434.85 5463.58z"/>
    <path id="_152" class="fil48" d="M30993.53 30350.36l30334.39 -5445.55 -4159.41 -12867.2 -30334.39 5445.55 4159.41 12867.2zm-130.02 90.96l-4200.73 -12995.04 30635.76 -5499.62 4200.73 12995.04 -30635.76 5499.62z"/>
    <path id="_153" class="fil48" d="M30906.86 30411l30535.3 -5481.59 -4186.97 -12952.43 -30535.3 5481.59 4186.97 12952.43zm-130.02 90.96l-4228.26 -13080.24 30836.64 -5535.7 4228.26 13080.24 -30836.64 5535.7z"/>
    <path id="_154" class="fil49" d="M30820.19 30471.64l30736.18 -5517.66 -4214.51 -13037.64 -30736.18 5517.66 4214.51 13037.64zm-130.02 90.96l-4255.82 -13165.45 31037.55 -5571.77 4255.82 13165.45 -31037.55 5571.77z"/>
    <path id="_155" class="fil49" d="M30733.52 30532.28l30937.06 -5553.73 -4242.04 -13122.84 -30937.06 5553.73 4242.04 13122.84zm-130.02 90.96l-4283.35 -13250.68 31238.42 -5607.81 4283.35 13250.68 -31238.42 5607.81z"/>
    <path id="_156" class="fil49" d="M30646.84 30592.92l31137.97 -5589.8 -4269.6 -13208.05 -31137.97 5589.8 4269.6 13208.05zm-130.02 90.96l-4310.89 -13335.89 31439.3 -5643.88 4310.89 13335.89 -31439.3 5643.88z"/>
    <path id="_157" class="fil50" d="M30560.17 30653.55l31338.85 -5625.84 -4297.14 -13293.28 -31338.85 5625.84 4297.14 13293.28zm-130.02 90.96l-4338.45 -13421.09 31640.21 -5679.95 4338.45 13421.09 -31640.21 5679.95z"/>
    <path id="_158" class="fil50" d="M30473.5 30714.19l31539.76 -5661.91 -4324.7 -13378.49 -31539.76 5661.91 4324.7 13378.49zm-130.02 90.96l-4365.98 -13506.3 31841.09 -5716.02 4365.98 13506.3 -31841.09 5716.02z"/>
    <path id="_159" class="fil50" d="M30386.82 30774.83l31740.64 -5697.99 -4352.23 -13463.69 -31740.64 5697.99 4352.23 13463.69zm-130.02 90.96l-4393.55 -13591.53 32042 -5752.06 4393.55 13591.53 -32042 5752.06z"/>
    <path id="_160" class="fil50" d="M30300.15 30835.47l31941.52 -5734.06 -4379.76 -13548.9 -31941.52 5734.06 4379.76 13548.9zm-129.99 90.96l-4421.11 -13676.74 32242.85 -5788.13 4421.11 13676.74 -32242.85 5788.13z"/>
    <path id="_161" class="fil50" d="M30213.48 30896.11l32142.43 -5770.1 -4407.33 -13634.13 -32142.43 5770.1 4407.33 13634.13zm-129.99 90.96l-4448.64 -13761.94 32443.73 -5824.21 4448.64 13761.94 -32443.73 5824.21z"/>
    <path id="_162" class="fil50" d="M30126.8 30956.74l32343.3 -5806.17 -4434.86 -13719.34 -32343.3 5806.17 4434.86 13719.34zm-129.99 90.96l-4476.2 -13847.15 32644.64 -5860.28 4476.2 13847.15 -32644.64 5860.28z"/>
    <path id="_163" class="fil51" d="M30040.13 31017.38l32544.21 -5842.24 -4462.42 -13804.54 -32544.21 5842.24 4462.42 13804.54zm-129.99 90.96l-4503.74 -13932.38 32845.52 -5896.32 4503.74 13932.38 -32845.52 5896.32z"/>
    <path id="_164" class="fil51" d="M29953.46 31078.02l32745.09 -5878.28 -4489.96 -13889.78 -32745.09 5878.28 4489.96 13889.78zm-129.99 90.96l-4531.3 -14017.59 33046.43 -5932.39 4531.3 14017.59 -33046.43 5932.39z"/>
    <path id="_165" class="fil51" d="M29866.78 31138.66l32945.97 -5914.35 -4517.49 -13974.98 -32945.97 5914.35 4517.49 13974.98zm-129.99 90.96l-4558.83 -14102.79 33247.31 -5968.46 4558.83 14102.79 -33247.31 5968.46z"/>
    <path id="_166" class="fil51" d="M29780.11 31199.3l33146.88 -5950.43 -4545.05 -14060.19 -33146.88 5950.43 4545.05 14060.19zm-129.99 90.96l-4586.37 -14188.03 33448.18 -6004.5 4586.37 14188.03 -33448.18 6004.5z"/>
    <path id="_167" class="fil51" d="M29693.44 31259.94l33347.76 -5986.5 -4572.58 -14145.39 -33347.76 5986.5 4572.58 14145.39zm-129.99 90.96l-4613.93 -14273.23 33649.09 -6040.57 4613.93 14273.23 -33649.09 6040.57z"/>
    <path id="_168" class="fil52" d="M29606.76 31320.57l33548.67 -6022.54 -4600.15 -14230.63 -33548.67 6022.54 4600.15 14230.63zm-129.99 90.96l-4641.46 -14358.44 33849.97 -6076.65 4641.46 14358.44 -33849.97 6076.65z"/>
    <path id="_169" class="fil53" d="M29520.09 31381.21l33749.55 -6058.61 -4627.68 -14315.83 -33749.55 6058.61 4627.68 14315.83zm-129.99 90.96l-4669.02 -14443.64 34050.88 -6112.72 4669.02 14443.64 -34050.88 6112.72z"/>
    <path id="_170" class="fil53" d="M29433.42 31441.85l33950.43 -6094.68 -4655.21 -14401.04 -33950.43 6094.68 4655.21 14401.04zm-129.99 90.96l-4696.56 -14528.88 34251.76 -6148.76 4696.56 14528.88 -34251.76 6148.76z"/>
    <path id="_171" class="fil53" d="M29346.75 31502.49l34151.34 -6130.75 -4682.78 -14486.25 -34151.34 6130.75 4682.78 14486.25zm-129.99 90.96l-4724.09 -14614.08 34452.64 -6184.83 4724.09 14614.08 -34452.64 6184.83z"/>
    <path id="_172" class="fil53" d="M29260.07 31563.13l34352.22 -6166.79 -4710.31 -14571.48 -34352.22 6166.79 4710.31 14571.48zm-129.99 90.96l-4751.65 -14699.29 34653.55 -6220.9 4751.65 14699.29 -34653.55 6220.9z"/>
    <path id="_173" class="fil53" d="M29173.4 31623.76l34553.12 -6202.87 -4737.87 -14656.69 -34553.12 6202.87 4737.87 14656.69zm-129.99 90.96l-4779.19 -14784.49 34854.43 -6256.97 4779.19 14784.49 -34854.43 6256.97z"/>
    <path id="_174" class="fil53" d="M29086.73 31684.4l34754 -6238.94 -4765.4 -14741.89 -34754 6238.94 4765.4 14741.89zm-129.99 90.96l-4806.75 -14869.73 35055.34 -6293.01 4806.75 14869.73 -35055.34 6293.01z"/>
    <path id="_175" class="fil54" d="M29000.05 31745.04l34954.88 -6274.98 -4792.94 -14827.13 -34954.88 6274.98 4792.94 14827.13zm-129.99 90.96l-4834.28 -14954.93 35256.22 -6329.09 4834.28 14954.93 -35256.22 6329.09z"/>
    <path id="_176" class="fil54" d="M28913.38 31805.68l35155.79 -6311.05 -4820.5 -14912.33 -35155.79 6311.05 4820.5 14912.33zm-129.99 90.96l-4861.81 -15040.14 35457.1 -6365.16 4861.81 15040.14 -35457.1 6365.16z"/>
    <path id="_177" class="fil54" d="M28826.71 31866.32l35356.67 -6347.12 -4848.03 -14997.54 -35356.67 6347.12 4848.03 14997.54zm-129.99 90.96l-4889.38 -15125.37 35658 -6401.2 4889.38 15125.37 -35658 6401.2z"/>
    <path id="_178" class="fil54" d="M28740.06 31926.96l35557.55 -6383.19 -4875.63 -15082.74 -35557.55 6383.19 4875.63 15082.74zm-130.02 90.96l-4916.91 -15210.58 35858.88 -6437.27 4916.91 15210.58 -35858.88 6437.27z"/>
    <path id="_179" class="fil54" d="M28653.39 31987.59l35758.43 -6419.23 -4903.16 -15167.98 -35758.43 6419.23 4903.16 15167.98zm-130.02 90.96l-4944.47 -15295.78 36059.79 -6473.34 4944.47 15295.78 -36059.79 6473.34z"/>
    <path id="_180" class="fil54" d="M28566.72 32048.23l35959.31 -6455.3 -4930.69 -15253.18 -35959.31 6455.3 4930.69 15253.18zm-130.02 90.96l-4972.01 -15380.99 36260.67 -6509.41 4972.01 15380.99 -36260.67 6509.41z"/>
    <path id="_181" class="fil55" d="M28480.04 32108.87l36160.22 -6491.38 -4958.25 -15338.39 -36160.22 6491.38 4958.25 15338.39zm-130.02 90.96l-4999.54 -15466.22 36461.55 -6545.45 4999.54 15466.22 -36461.55 6545.45z"/>
    <path id="_182" class="fil56" d="M28393.37 32169.51l36361.1 -6527.45 -4985.79 -15423.59 -36361.1 6527.45 4985.79 15423.59zm-130.02 90.96l-5027.1 -15551.43 36662.46 -6581.52 5027.1 15551.43 -36662.46 6581.52z"/>
    <path id="_183" class="fil56" d="M28306.7 32230.15l36562.01 -6563.49 -5013.35 -15508.83 -36562.01 6563.49 5013.35 15508.83zm-130.02 90.96l-5054.63 -15636.63 36863.34 -6617.6 5054.63 15636.63 -36863.34 6617.6z"/>
    <path id="_184" class="fil56" d="M28220.02 32290.79l36762.88 -6599.56 -5040.88 -15594.03 -36762.88 6599.56 5040.88 15594.03zm-130.02 90.96l-5082.2 -15721.84 37064.25 -6653.67 5082.2 15721.84 -37064.25 6653.67z"/>
    <path id="_185" class="fil56" d="M28133.35 32351.42l36963.76 -6635.63 -5068.42 -15679.24 -36963.76 6635.63 5068.42 15679.24zm-130.02 90.96l-5109.73 -15807.07 37265.13 -6689.71 5109.73 15807.07 -37265.13 6689.71z"/>
    <path id="_186" class="fil56" d="M28046.68 32412.06l37164.67 -6671.67 -5095.98 -15764.47 -37164.67 6671.67 5095.98 15764.47zm-130.02 90.96l-5137.26 -15892.28 37466.01 -6725.78 5137.26 15892.28 -37466.01 6725.78z"/>
    <path id="_187" class="fil56" d="M27960.01 32472.7l37365.55 -6707.74 -5123.51 -15849.68 -37365.55 6707.74 5123.51 15849.68zm-130.02 90.96l-5164.83 -15977.48 37666.92 -6761.85 5164.83 15977.48 -37666.92 6761.85z"/>
    <path id="_188" class="fil57" d="M27873.33 32533.34l37566.46 -6743.82 -5151.07 -15934.88 -37566.46 6743.82 5151.07 15934.88zm-130.02 90.96l-5192.36 -16062.72 37867.79 -6797.89 5192.36 16062.72 -37867.79 6797.89z"/>
    <path id="_189" class="fil57" d="M27786.66 32593.98l37767.34 -6779.89 -5178.61 -16020.09 -37767.34 6779.89 5178.61 16020.09zm-130.02 90.96l-5219.92 -16147.92 38068.7 -6833.96 5219.92 16147.92 -38068.7 6833.96z"/>
    <path id="_190" class="fil58" d="M27699.99 32654.61l37968.22 -6815.93 -5206.14 -16105.32 -37968.22 6815.93 5206.14 16105.32zm-130.02 90.96l-5247.45 -16233.13 38269.58 -6870.04 5247.45 16233.13 -38269.58 6870.04z"/>
    <path id="_191" class="fil58" d="M27613.31 32715.25l38169.13 -6852 -5233.7 -16190.53 -38169.13 6852 5233.7 16190.53zm-130.02 90.96l-5274.99 -16318.33 38470.46 -6906.11 5274.99 16318.33 -38470.46 6906.11z"/>
    <path id="_192" class="fil59" d="M27526.64 32775.89l38370.01 -6888.07 -5261.24 -16275.73 -38370.01 6888.07 5261.24 16275.73zm-129.99 90.96l-5302.58 -16403.57 38671.34 -6942.15 5302.58 16403.57 -38671.34 6942.15z"/>
    <path id="_193" class="fil59" d="M27439.97 32836.53l38570.92 -6924.14 -5288.8 -16360.94 -38570.92 6924.14 5288.8 16360.94zm-129.99 90.96l-5330.11 -16488.77 38872.22 -6978.22 5330.11 16488.77 -38872.22 6978.22z"/>
    <path id="_194" class="fil60" d="M27353.29 32897.17l38771.8 -6960.18 -5316.33 -16446.17 -38771.8 6960.18 5316.33 16446.17zm-129.99 90.96l-5357.65 -16573.98 39073.1 -7014.29 5357.65 16573.98 -39073.1 7014.29z"/>
    <path id="_195" class="fil61" d="M27266.62 32957.81l38972.67 -6996.26 -5343.86 -16531.38 -38972.67 6996.26 5343.86 16531.38zm-129.99 90.96l-5385.21 -16659.18 39274.01 -7050.36 5385.21 16659.18 -39274.01 7050.36z"/>
    <path id="_196" class="fil61" d="M27179.95 33018.44l39173.58 -7032.33 -5371.43 -16616.58 -39173.58 7032.33 5371.43 16616.58zm-129.99 90.96l-5412.74 -16744.42 39474.89 -7086.4 5412.74 16744.42 -39474.89 7086.4z"/>
    <path id="_197" class="fil62" d="M27093.27 33079.08l39374.46 -7068.37 -5398.96 -16701.82 -39374.46 7068.37 5398.96 16701.82zm-129.99 90.96l-5440.3 -16829.63 39675.8 -7122.48 5440.3 16829.63 -39675.8 7122.48z"/>
    <path id="_198" class="fil62" d="M27006.6 33139.72l39575.34 -7104.44 -5426.49 -16787.02 -39575.34 7104.44 5426.49 16787.02zm-129.99 90.96l-5467.84 -16914.83 39876.68 -7158.55 5467.84 16914.83 -39876.68 7158.55z"/>
    <path id="_199" class="fil63" d="M26919.93 33200.36l39776.25 -7140.51 -5454.06 -16872.23 -39776.25 7140.51 5454.06 16872.23zm-129.99 90.96l-5495.37 -17000.07 40077.55 -7194.59 5495.37 17000.07 -40077.55 7194.59z"/>
    <path id="_200" class="fil64" d="M26833.26 33261l39977.13 -7176.58 -5481.59 -16957.43 -39977.13 7176.58 5481.59 16957.43zm-129.99 90.96l-5522.93 -17085.27 40278.46 -7230.66 5522.93 17085.27 -40278.46 7230.66z"/>
    <path id="_201" class="fil65" d="M26746.58 33321.64l40178.04 -7212.62 -5509.15 -17042.67 -40178.04 7212.62 5509.15 17042.67zm-129.99 90.96l-5550.47 -17170.48 40479.34 -7266.73 5550.47 17170.48 -40479.34 7266.73z"/>
    <path id="_202" class="fil65" d="M26659.91 33382.27l40378.92 -7248.7 -5536.68 -17127.87 -40378.92 7248.7 5536.68 17127.87zm-129.99 90.96l-5578.03 -17255.68 40680.25 -7302.8 5578.03 17255.68 -40680.25 7302.8z"/>
    <path id="_203" class="fil66" d="M26573.24 33442.91l40579.8 -7284.77 -5564.22 -17213.08 -40579.8 7284.77 5564.22 17213.08zm-129.99 90.96l-5605.56 -17340.92 40881.13 -7338.84 5605.56 17340.92 -40881.13 7338.84z"/>
    <path id="_204" class="fil67" d="M26486.56 33503.55l40780.71 -7320.81 -5591.78 -17298.31 -40780.71 7320.81 5591.78 17298.31zm-129.99 90.96l-5633.09 -17426.12 41082.01 -7374.91 5633.09 17426.12 -41082.01 7374.91z"/>
    <path id="_205" class="fil68" d="M26399.89 33564.19l40981.59 -7356.88 -5619.31 -17383.52 -40981.59 7356.88 5619.31 17383.52zm-129.99 90.96l-5660.66 -17511.33 41282.92 -7410.99 5660.66 17511.33 -41282.92 7410.99z"/>
    <path id="_206" class="fil69" d="M26313.22 33624.83l41182.49 -7392.95 -5646.88 -17468.72 -41182.49 7392.95 5646.88 17468.72zm-129.99 90.96l-5688.19 -17596.53 41483.8 -7447.06 5688.19 17596.53 -41483.8 7447.06z"/>
    <path id="_207" class="fil69" d="M26226.54 33685.46l41383.37 -7429.02 -5674.41 -17553.93 -41383.37 7429.02 5674.41 17553.93zm-129.99 90.96l-5715.75 -17681.77 41684.71 -7483.1 5715.75 17681.77 -41684.71 7483.1z"/>
    <path id="_208" class="fil70" d="M26139.87 33746.1l41584.25 -7465.06 -5701.94 -17639.16 -41584.25 7465.06 5701.94 17639.16zm-129.99 90.96l-5743.29 -17766.97 41885.59 -7519.17 5743.29 17766.97 -41885.59 7519.17z"/>
    <path id="_209" class="fil70" d="M26053.2 33806.74l41785.16 -7501.13 -5729.5 -17724.37 -41785.16 7501.13 5729.5 17724.37zm-129.99 90.96l-5770.82 -17852.18 42086.47 -7555.24 5770.82 17852.18 -42086.47 7555.24z"/>
    <path id="_210" class="fil71" d="M25966.55 33867.38l41986.01 -7537.21 -5757.07 -17809.57 -41986.01 7537.21 5757.07 17809.57zm-130.02 90.96l-5798.38 -17937.41 42287.37 -7591.28 5798.38 17937.41 -42287.37 7591.28z"/>
    <path id="_211" class="fil71" d="M25879.88 33928.02l42186.92 -7573.28 -5784.63 -17894.78 -42186.92 7573.28 5784.63 17894.78zm-130.02 90.96l-5825.91 -18022.62 42488.25 -7627.35 5825.91 18022.62 -42488.25 7627.35z"/>
    <path id="_212" class="fil72" d="M25793.21 33988.66l42387.8 -7609.32 -5812.16 -17980.01 -42387.8 7609.32 5812.16 17980.01zm-130.02 90.96l-5853.48 -18107.82 42689.16 -7663.43 5853.48 18107.82 -42689.16 7663.43z"/>
    <path id="_213" class="fil73" d="M25706.53 34049.29l42588.68 -7645.39 -5839.7 -18065.22 -42588.68 7645.39 5839.7 18065.22zm-130.02 90.96l-5881.01 -18193.03 42890.04 -7699.5 5881.01 18193.03 -42890.04 7699.5z"/>
    <path id="_214" class="fil73" d="M25619.86 34109.93l42789.59 -7681.46 -5867.26 -18150.42 -42789.59 7681.46 5867.26 18150.42zm-130.02 90.96l-5908.54 -18278.26 43090.92 -7735.54 5908.54 18278.26 -43090.92 7735.54z"/>
    <path id="_215" class="fil74" d="M25533.19 34170.57l42990.47 -7717.5 -5894.79 -18235.66 -42990.47 7717.5 5894.79 18235.66zm-130.02 90.96l-5936.11 -18363.47 43291.83 -7771.61 5936.11 18363.47 -43291.83 7771.61z"/>
    <path id="_216" class="fil74" d="M25446.52 34231.21l43191.38 -7753.57 -5922.35 -18320.86 -43191.38 7753.57 5922.35 18320.86zm-130.02 90.96l-5963.64 -18448.67 43492.71 -7807.68 5963.64 18448.67 -43492.71 7807.68z"/>
    <path id="_217" class="fil75" d="M25359.84 34291.85l43392.26 -7789.65 -5949.89 -18406.07 -43392.26 7789.65 5949.89 18406.07zm-130.02 90.96l-5991.2 -18533.88 43693.62 -7843.75 5991.2 18533.88 -43693.62 7843.75z"/>
    <path id="_218" class="fil75" d="M25273.17 34352.49l43593.13 -7825.72 -5977.42 -18491.27 -43593.13 7825.72 5977.42 18491.27zm-130.02 90.96l-6018.73 -18619.11 43894.5 -7879.79 6018.73 18619.11 -43894.5 7879.79z"/>
    <path id="_219" class="fil76" d="M25186.5 34413.12l43794.04 -7861.76 -6004.98 -18576.51 -43794.04 7861.76 6004.98 18576.51zm-130.02 90.96l-6046.27 -18704.32 44095.38 -7915.87 6046.27 18704.32 -44095.38 7915.87z"/>
    <path id="_220" class="fil77" d="M25099.82 34473.76l43994.92 -7897.83 -6032.52 -18661.71 -43994.92 7897.83 6032.52 18661.71zm-130.02 90.96l-6073.83 -18789.52 44296.29 -7951.94 6073.83 18789.52 -44296.29 7951.94z"/>
    <path id="_221" class="fil77" d="M25013.15 34534.4l44195.83 -7933.9 -6060.08 -18746.92 -44195.83 7933.9 6060.08 18746.92zm-130.02 90.96l-6101.36 -18874.76 44497.17 -7987.98 6101.36 18874.76 -44497.17 7987.98z"/>
    <path id="_222" class="fil78" d="M24926.48 34595.04l44396.71 -7969.97 -6087.61 -18832.12 -44396.71 7969.97 6087.61 18832.12zm-130.02 90.96l-6128.93 -18959.96 44698.07 -8024.05 6128.93 18959.96 -44698.07 8024.05z"/>
    <path id="_223" class="fil78" d="M24839.8 34655.68l44597.59 -8006.01 -6115.14 -18917.36 -44597.59 8006.01 6115.14 18917.36zm-130.02 90.96l-6156.46 -19045.17 44898.95 -8060.12 6156.46 19045.17 -44898.95 8060.12z"/>
    <path id="_224" class="fil79" d="M24753.13 34716.31l44798.5 -8042.09 -6142.71 -19002.56 -44798.5 8042.09 6142.71 19002.56zm-129.99 90.96l-6184.02 -19130.37 45099.8 -8096.19 6184.02 19130.37 -45099.8 8096.19z"/>
    <path id="_225" class="fil80" d="M24666.46 34776.95l44999.38 -8078.16 -6170.24 -19087.77 -44999.38 8078.16 6170.24 19087.77zm-129.99 90.96l-6211.58 -19215.61 45300.71 -8132.23 6211.58 19215.61 -45300.71 8132.23z"/>
    <path id="_226" class="fil81" d="M24579.78 34837.59l45200.29 -8114.2 -6197.8 -19173 -45200.29 8114.2 6197.8 19173zm-129.99 90.96l-6239.12 -19300.81 45501.59 -8168.3 6239.12 19300.81 -45501.59 8168.3z"/>
    <path id="_227" class="fil82" d="M24493.11 34898.23l45401.17 -8150.27 -6225.34 -19258.21 -45401.17 8150.27 6225.34 19258.21zm-129.99 90.96l-6266.68 -19386.02 45702.5 -8204.38 6266.68 19386.02 -45702.5 8204.38z"/>
    <path id="_228" class="fil83" d="M24406.44 34958.87l45602.05 -8186.34 -6252.87 -19343.42 -45602.05 8186.34 6252.87 19343.42zm-129.99 90.96l-6294.21 -19471.22 45903.38 -8240.45 6294.21 19471.22 -45903.38 8240.45z"/>
    <path id="_229" class="fil84" d="M24319.76 35019.51l45802.95 -8222.41 -6280.43 -19428.62 -45802.95 8222.41 6280.43 19428.62zm-129.99 90.96l-6321.75 -19556.46 46104.26 -8276.49 6321.75 19556.46 -46104.26 8276.49z"/>
    <path id="_230" class="fil84" d="M24233.09 35080.14l46003.83 -8258.45 -6307.96 -19513.86 -46003.83 8258.45 6307.96 19513.86zm-129.99 90.96l-6349.31 -19641.66 46305.17 -8312.56 6349.31 19641.66 -46305.17 8312.56z"/>
    <path id="_231" class="fil85" d="M24146.42 35140.78l46204.74 -8294.52 -6335.53 -19599.06 -46204.74 8294.52 6335.53 19599.06zm-129.99 90.96l-6376.84 -19726.87 46506.05 -8348.63 6376.84 19726.87 -46506.05 8348.63z"/>
    <path id="_232" class="fil85" d="M24059.75 35201.42l46405.62 -8330.6 -6363.06 -19684.27 -46405.62 8330.6 6363.06 19684.27zm-129.99 90.96l-6404.4 -19812.1 46706.96 -8384.67 6404.4 19812.1 -46706.96 8384.67z"/>
    <path id="_233" class="fil86" d="M23973.07 35262.06l46606.5 -8366.67 -6390.59 -19769.47 -46606.5 8366.67 6390.59 19769.47zm-129.99 90.96l-6431.94 -19897.31 46907.83 -8420.74 6431.94 19897.31 -46907.83 8420.74z"/>
    <path id="_234" class="fil87" d="M23886.4 35322.7l46807.41 -8402.71 -6418.16 -19854.71 -46807.41 8402.71 6418.16 19854.71zm-129.99 90.96l-6459.47 -19982.51 47108.71 -8456.82 6459.47 19982.51 -47108.71 8456.82z"/>
    <path id="_235" class="fil88" d="M23799.73 35383.34l47008.29 -8438.78 -6445.69 -19939.91 -47008.29 8438.78 6445.69 19939.91zm-129.99 90.96l-6487.03 -20067.72 47309.62 -8492.89 6487.03 20067.72 -47309.62 8492.89z"/>
    <path id="_236" class="fil89" d="M23713.05 35443.97l47209.2 -8474.85 -6473.25 -20025.12 -47209.2 8474.85 6473.25 20025.12zm-129.99 90.96l-6514.57 -20152.95 47510.5 -8528.93 6514.57 20152.95 -47510.5 8528.93z"/>
    <path id="_237" class="fil90" d="M23626.38 35504.61l47410.08 -8510.89 -6500.78 -20110.35 -47410.08 8510.89 6500.78 20110.35zm-129.99 90.96l-6542.13 -20238.16 47711.41 -8565 6542.13 20238.16 -47711.41 8565z"/>
    <path id="_238" class="fil90" d="M23539.71 35565.25l47610.96 -8546.96 -6528.32 -20195.56 -47610.96 8546.96 6528.32 20195.56zm-129.99 90.96l-6569.66 -20323.36 47912.29 -8601.07 6569.66 20323.36 -47912.29 8601.07z"/>
    <path id="_239" class="fil91" d="M23453.03 35625.89l47811.87 -8583.04 -6555.88 -20280.76 -47811.87 8583.04 6555.88 20280.76zm-129.99 90.96l-6597.19 -20408.57 48113.17 -8637.14 6597.19 20408.57 -48113.17 8637.14z"/>
    <path id="_240" class="fil92" d="M23366.36 35686.53l48012.74 -8619.11 -6583.41 -20365.97 -48012.74 8619.11 6583.41 20365.97zm-129.99 90.96l-6624.76 -20493.8 48314.08 -8673.18 6624.76 20493.8 -48314.08 8673.18z"/>
    <path id="_241" class="fil92" d="M23279.69 35747.16l48213.65 -8655.15 -6610.98 -20451.2 -48213.65 8655.15 6610.98 20451.2zm-129.99 90.96l-6652.29 -20579.01 48514.96 -8709.26 6652.29 20579.01 -48514.96 8709.26z"/>
    <path id="_242" class="fil93" d="M23193.04 35807.8l48414.5 -8691.22 -6638.54 -20536.41 -48414.5 8691.22 6638.54 20536.41zm-130.02 90.96l-6679.85 -20664.21 48715.87 -8745.33 6679.85 20664.21 -48715.87 8745.33z"/>
    <path id="_243" class="fil93" d="M23106.37 35868.44l48615.38 -8727.29 -6666.07 -20621.61 -48615.38 8727.29 6666.07 20621.61zm-130.02 90.96l-6707.39 -20749.45 48916.75 -8781.37 6707.39 20749.45 -48916.75 8781.37z"/>
    <path id="_244" class="fil94" d="M23019.7 35929.08l48816.29 -8763.36 -6693.63 -20706.82 -48816.29 8763.36 6693.63 20706.82zm-130.02 90.96l-6734.92 -20834.65 49117.62 -8817.44 6734.92 20834.65 -49117.62 8817.44z"/>
    <path id="_245" class="fil95" d="M22933.02 35989.72l49017.17 -8799.4 -6721.17 -20792.05 -49017.17 8799.4 6721.17 20792.05zm-130.02 90.96l-6762.48 -20919.86 49318.53 -8853.51 6762.48 20919.86 -49318.53 8853.51z"/>
    <path id="_246" class="fil96" d="M22846.35 36050.36l49218.08 -8835.48 -6748.73 -20877.26 -49218.08 8835.48 6748.73 20877.26zm-130.02 90.96l-6790.01 -21005.06 49519.41 -8889.58 6790.01 21005.06 -49519.41 8889.58z"/>
    <path id="_247" class="fil96" d="M22759.68 36110.99l49418.96 -8871.55 -6776.26 -20962.46 -49418.96 8871.55 6776.26 20962.46zm-130.02 90.96l-6817.58 -21090.3 49720.32 -8925.62 6817.58 21090.3 -49720.32 8925.62z"/>
    <path id="_248" class="fil96" d="M22673.01 36171.63l49619.84 -8907.59 -6803.8 -21047.7 -49619.84 8907.59 6803.8 21047.7zm-130.02 90.96l-6845.11 -21175.5 49921.2 -8961.7 6845.11 21175.5 -49921.2 8961.7z"/>
    <path id="_249" class="fil97" d="M22586.33 36232.27l49820.75 -8943.66 -6831.36 -21132.9 -49820.75 8943.66 6831.36 21132.9zm-130.02 90.96l-6872.64 -21260.71 50122.08 -8997.77 6872.64 21260.71 -50122.08 8997.77z"/>
    <path id="_250" class="fil98" d="M22499.66 36292.91l50021.63 -8979.73 -6858.89 -21218.11 -50021.63 8979.73 6858.89 21218.11zm-130.02 90.96l-6900.2 -21345.91 50322.99 -9033.84 6900.2 21345.91 -50322.99 9033.84z"/>
    <path id="_251" class="fil99" d="M22412.99 36353.55l50222.53 -9015.8 -6886.45 -21303.31 -50222.53 9015.8 6886.45 21303.31zm-130.02 90.96l-6927.74 -21431.15 50523.87 -9069.88 6927.74 21431.15 -50523.87 9069.88z"/>
    <path id="_252" class="fil99" d="M22326.31 36414.19l50423.41 -9051.84 -6913.99 -21388.55 -50423.41 9051.84 6913.99 21388.55zm-130.02 90.96l-6955.3 -21516.35 50724.78 -9105.95 6955.3 21516.35 -50724.78 9105.95z"/>
    <path id="_253" class="fil100" d="M22239.64 36474.82l50624.29 -9087.91 -6941.52 -21473.75 -50624.29 9087.91 6941.52 21473.75zm-130.02 90.96l-6982.83 -21601.56 50925.66 -9142.02 6982.83 21601.56 -50925.66 9142.02z"/>
    <path id="_254" class="fil101" d="M22152.97 36535.46l50825.2 -9123.99 -6969.08 -21558.96 -50825.2 9123.99 6969.08 21558.96zm-130.02 90.96l-7010.37 -21686.8 51126.54 -9178.06 7010.37 21686.8 -51126.54 9178.06z"/>
    <path id="_255" class="fil102" d="M22066.29 36596.1l51026.08 -9160.06 -6996.61 -21644.16 -51026.08 9160.06 6996.61 21644.16zm-130.02 90.96l-7037.93 -21772 51327.44 -9214.13 7037.93 21772 -51327.44 9214.13z"/>
    <path id="_256" class="fil0" d="M21979.62 36656.74l51226.99 -9196.1 -7024.18 -21729.4 -51226.99 9196.1 7024.18 21729.4zm-86.67 60.64l-7051.71 -21814.6 51427.87 -9232.17 7051.71 21814.6 -51427.87 9232.17z"/>
   </g>
  </g>
 </g>
</svg>
