<?xml version="1.0" encoding="UTF-8"?>
<!DOCTYPE svg PUBLIC "-//W3C//DTD SVG 1.1//EN" "http://www.w3.org/Graphics/SVG/1.1/DTD/svg11.dtd">
<!-- Creator: CorelDRAW -->
<svg xmlns="http://www.w3.org/2000/svg" xml:space="preserve" width="269.175mm" height="505.528mm" version="1.1" style="shape-rendering:geometricPrecision; text-rendering:geometricPrecision; image-rendering:optimizeQuality; fill-rule:evenodd; clip-rule:evenodd"
viewBox="0 0 28533.5 53587.82"
 xmlns:xlink="http://www.w3.org/1999/xlink"
 xmlns:xodm="http://www.corel.com/coreldraw/odm/2003">
 <defs>
  <style type="text/css">
   <![CDATA[
    .fil0 {fill:url(#id0);fill-rule:nonzero}
   ]]>
  </style>
  <linearGradient id="id0" gradientUnits="userSpaceOnUse" x1="5198.17" y1="18030.63" x2="26628.27" y2="23444.38">
   <stop offset="0" style="stop-opacity:1; stop-color:#EDA335"/>
   <stop offset="1" style="stop-opacity:1; stop-color:#B37F3B"/>
  </linearGradient>
 </defs>
 <g id="Camada_x0020_1">
  <metadata id="CorelCorpID_0Corel-Layer"/>
  <path class="fil0" d="M8036.95 6008.83c78.01,-255.29 160.72,-503.91 248.13,-745.57 176.2,-487.04 371.8,-945.97 588.57,-1373.92 17.34,-34.1 34.79,-68.11 52.32,-101.91 90.06,-172.97 183.56,-340.74 280.47,-503.32 89.07,-149.44 181,-294.48 276.05,-434.91 80.26,-118.67 162.67,-234.12 247.35,-346.12 73.69,-97.41 149.05,-192.38 226.07,-284.68 69.38,-83.11 140.04,-164.24 212.26,-243.13 66.05,-72.33 133.37,-142.88 201.87,-211.57 63.31,-63.41 127.69,-125.24 193.05,-185.52 61.15,-56.34 123.28,-111.32 186.2,-164.93 59.49,-50.66 119.75,-100.05 180.81,-148.16 57.81,-45.38 116.32,-89.57 175.51,-132.7 56.74,-41.26 114.07,-81.43 172.18,-120.63 55.17,-37.14 111.03,-73.5 167.48,-108.78 54.19,-33.9 109.07,-66.84 164.44,-98.98 53.2,-30.77 106.92,-60.66 161.2,-89.76 52.33,-28.03 105.16,-55.27 158.56,-81.82 51.64,-25.58 103.68,-50.47 156.3,-74.57 50.86,-23.33 102.22,-45.96 153.96,-67.92 50.17,-21.26 100.84,-42.04 151.89,-61.94 49.78,-19.4 100.06,-38.02 150.72,-56.25 49.1,-17.54 98.58,-34.49 148.47,-50.96 48.51,-15.88 97.41,-31.37 146.7,-46.16 47.92,-14.41 96.34,-28.12 145.04,-41.35 47.72,-13.03 95.64,-25.67 144.05,-37.63 47.14,-11.66 94.57,-22.54 142.39,-33.22 46.74,-10.39 93.78,-20.38 141.21,-29.79 46.36,-9.21 93.2,-17.84 140.24,-26.07 21.66,-3.83 43.31,-7.75 65.16,-11.27 24.7,-4.12 49.59,-7.94 74.48,-11.77 45.67,-6.95 91.53,-13.72 137.88,-19.89 45.28,-5.98 90.95,-11.47 136.81,-16.66 45.18,-5.1 90.55,-9.81 136.21,-14.01 44.88,-4.22 89.87,-8.13 135.14,-11.56 44.49,-3.33 89.28,-6.17 134.25,-8.72 44.29,-2.54 88.79,-4.6 133.67,-6.37 43.9,-1.76 88.19,-3.13 132.59,-4.11 44,-0.98 88.19,-1.76 132.68,-2.06 43.51,-0.2 87.32,-0.2 131.22,0.19 43.41,0.39 87.02,1.28 130.82,2.35 43.03,1.08 86.34,2.55 129.85,4.22 42.83,1.76 86.03,3.72 129.25,6.07 42.83,2.35 85.75,5 128.96,7.94 42.43,2.84 85.16,6.07 128.08,9.51 42.34,3.42 84.87,7.25 127.6,11.27 42.43,4.02 85.06,8.33 127.88,12.93 41.95,4.51 84.18,9.31 126.52,14.41 41.84,5.1 83.79,10.39 126.03,15.97 41.65,5.49 83.49,11.27 125.43,17.34 41.65,6.07 83.39,12.25 125.34,18.82 41.35,6.47 82.91,13.23 124.55,20.19 41.26,6.86 82.61,14.01 124.16,21.46 41.16,7.36 82.51,14.89 123.96,22.83 41.16,7.75 82.51,15.78 123.97,24.11 40.77,8.14 81.73,16.57 122.89,25.19 40.77,8.53 81.63,17.35 122.69,26.46 40.57,8.93 81.34,18.14 122.2,27.44 40.47,9.31 81.05,18.91 121.71,28.61 40.38,9.71 80.85,19.6 121.52,29.69 40.27,10.1 80.65,20.29 121.22,30.77 40.19,10.39 80.36,20.87 120.74,31.76 40.27,10.77 80.65,21.66 121.12,32.83 39.98,10.97 80.06,22.24 120.35,33.71 39.69,11.27 79.67,22.93 119.75,34.68 39.59,11.66 79.47,23.52 119.46,35.57 39.5,11.96 79.28,24.11 119.06,36.45 39.59,12.25 79.28,24.79 119.17,37.44 39.39,12.54 78.89,25.19 118.58,38.12 39.3,12.84 78.79,25.77 118.28,39 39.5,13.13 79.18,26.56 118.97,40.08 39.1,13.34 78.4,26.96 117.7,40.67 39.1,13.62 78.21,27.43 117.5,41.45 39.09,13.92 78.2,28.03 117.49,42.24 38.9,14.11 77.91,28.32 117.01,42.83 38.9,14.41 77.82,28.91 116.82,43.61 38.71,14.6 77.62,29.49 116.52,44.49 38.7,14.8 77.51,29.88 116.52,45.07 38.81,15.19 77.62,30.48 116.71,45.96 38.51,15.38 77.13,30.77 115.83,46.36 38.52,15.58 77.13,31.36 115.84,47.24 38.31,15.77 76.83,31.75 115.44,47.82 38.21,15.88 76.63,31.95 115.14,48.32 38.32,16.17 76.74,32.34 115.25,48.9 38.12,16.37 76.44,33.02 114.76,49.68 38.12,16.56 76.33,33.32 114.65,50.17 38.21,16.85 76.53,33.82 114.95,50.96 38.12,17.06 76.24,34.11 114.46,51.45 37.93,17.06 75.95,34.49 114.07,51.94 37.82,17.34 75.75,34.79 113.77,52.43 37.92,17.64 75.85,35.17 113.87,53.01 37.73,17.73 75.56,35.67 113.48,53.61 37.63,17.94 75.46,35.97 113.29,54.09 37.74,18.13 75.37,36.16 113.19,54.49 37.82,18.42 75.75,36.85 113.77,55.46 37.44,18.42 75.07,37.05 112.8,55.66 37.43,18.62 74.97,37.24 112.6,56.05 37.54,18.82 75.06,37.63 112.69,56.65 37.33,18.91 74.77,38.02 112.31,57.13 37.33,19.02 74.67,38.13 112.2,57.43 37.24,19.3 74.67,38.61 112.2,58.11l20.97 10.78c32.83,17.05 61.35,39.3 84.97,65.17 30.67,33.51 53.2,73.1 66.43,115.63l0.69 0c4.71,15.58 8.24,31.56 10.48,47.83 8.82,62.22 -0.49,128.08 -31.55,187.17 -14.8,29.2 -34.01,54.78 -56.26,76.63 -35.18,34.6 -78.01,59.68 -123.77,73.99l0 0.78c-11.86,3.63 -23.81,6.57 -36.06,8.82 -42.62,7.94 -87.02,7.25 -130.24,-3.14 -23.62,-5.78 -46.94,-14.3 -69.38,-26.07l-45.57 -23.51c-37.44,-19.41 -74.87,-38.91 -112.01,-58.02 -37.63,-19.31 -74.97,-38.22 -112.3,-57.23 -37.63,-19.21 -75.07,-38.12 -112.5,-57.04 -37.63,-18.91 -75.17,-37.73 -112.6,-56.45 -37.63,-18.71 -75.17,-37.43 -112.61,-55.85 -38.01,-18.72 -75.85,-37.24 -113.77,-55.66 -37.73,-18.42 -75.45,-36.75 -112.99,-54.88 -37.82,-18.23 -75.65,-36.45 -113.29,-54.39 -37.82,-18.03 -75.65,-35.97 -113.38,-53.7 -38.02,-17.94 -75.94,-35.67 -113.77,-53.31 -38.02,-17.64 -75.94,-35.18 -113.77,-52.62 -38.12,-17.45 -76.14,-34.9 -113.98,-52.04 -38.21,-17.35 -76.33,-34.6 -114.36,-51.64 -38.51,-17.25 -76.74,-34.21 -114.95,-51.06 -38.32,-16.95 -76.53,-33.61 -114.65,-50.27 -38.32,-16.66 -76.64,-33.22 -114.76,-49.68 -38.51,-16.47 -76.93,-32.94 -115.14,-49.1 -38.52,-16.27 -76.94,-32.34 -115.25,-48.32 -38.62,-16.07 -77.03,-31.94 -115.44,-47.63 -38.71,-15.87 -77.33,-31.55 -115.84,-47.13 -38.7,-15.58 -77.41,-31.07 -115.93,-46.36 -39.01,-15.38 -77.91,-30.77 -116.72,-45.87 -38.9,-15.18 -77.81,-30.18 -116.52,-44.98 -39,-14.99 -77.81,-29.6 -116.61,-44.1 -39.09,-14.7 -78.01,-29.11 -116.91,-43.41 -39.09,-14.41 -78.2,-28.62 -117.1,-42.63 -39.3,-14.11 -78.5,-28.12 -117.6,-41.84 -39.3,-13.92 -78.5,-27.64 -117.59,-41.07 -39.4,-13.62 -78.7,-27.15 -117.9,-40.27 -39.78,-13.43 -79.47,-26.76 -119.06,-39.7 -39.59,-13.03 -79.08,-25.77 -118.48,-38.41 -39.69,-12.74 -79.28,-25.29 -118.77,-37.63 -39.89,-12.44 -79.67,-24.6 -119.36,-36.66 -39.89,-12.15 -79.67,-24.01 -119.37,-35.77 -40.08,-11.77 -79.96,-23.43 -119.75,-34.79 -40.18,-11.47 -80.16,-22.74 -120.04,-33.71 -40.38,-11.17 -80.55,-22.15 -120.64,-32.83 -40.57,-10.88 -81.04,-21.56 -121.31,-31.95 -40.58,-10.48 -80.85,-20.68 -121.13,-30.68 -40.66,-10.09 -81.24,-19.99 -121.71,-29.6 -40.77,-9.7 -81.34,-19.2 -121.81,-28.41 -40.86,-9.32 -81.63,-18.42 -122.2,-27.24 -41.07,-8.93 -81.93,-17.65 -122.69,-26.08 -41.26,-8.52 -82.32,-16.75 -123.19,-24.78 -41.35,-8.14 -82.51,-15.88 -123.47,-23.52 -41.75,-7.64 -83.3,-15.19 -124.66,-22.35 -41.65,-7.16 -83.19,-14.11 -124.55,-20.78 -41.84,-6.76 -83.39,-13.23 -124.84,-19.4 -41.95,-6.28 -83.8,-12.25 -125.34,-17.94 -42.24,-5.79 -84.28,-11.36 -126.03,-16.56 -42.34,-5.19 -84.47,-10.2 -126.31,-14.8 -42.54,-4.71 -84.87,-9.02 -127.01,-13.13 -42.72,-4.11 -85.15,-7.94 -127.49,-11.47 -43.22,-3.53 -86.14,-6.76 -128.96,-9.7 -43.12,-3.04 -86.04,-5.68 -128.67,-7.94 -43.31,-2.35 -86.44,-4.41 -129.26,-6.07 -43.61,-1.66 -87.02,-3.04 -130.24,-4.02 -43.81,-0.99 -87.32,-1.47 -130.73,-1.76 -43.99,-0.3 -87.8,-0.2 -131.31,0.19 -44.39,0.49 -88.49,1.27 -132.3,2.45 -44.68,1.27 -88.98,3.04 -133.08,5.1 -45.08,2.06 -89.86,4.51 -134.45,7.44 -45.07,2.95 -90.06,6.18 -134.55,9.9 -45.67,3.83 -90.85,8.24 -135.92,13.04 -45.76,4.8 -91.24,10 -136.51,15.68 -37.82,4.8 -75.56,9.7 -112.99,15.09 -8.24,1.17 -16.37,2.54 -24.6,3.72 -46.55,6.86 -92.9,14.31 -138.85,22.14 -46.95,8.04 -93.59,16.56 -139.85,25.58 -47.33,9.21 -94.27,18.91 -141.02,29.11 -48.02,10.58 -95.74,21.75 -143.07,33.32 -48.32,11.85 -96.33,24.31 -143.86,37.24 -48.8,13.32 -97.22,27.43 -145.24,41.95 -49.39,14.89 -98.29,30.37 -146.79,46.55 -49.98,16.65 -99.66,33.8 -148.77,51.74 -50.66,18.52 -100.74,37.73 -150.53,57.53 -51.25,20.48 -102.11,41.74 -152.48,63.7 -52.14,22.73 -103.78,46.25 -154.93,70.46 -53.31,25.28 -105.94,51.35 -158.07,78.29 -53.89,27.84 -107.21,56.54 -159.93,86.14 -54.98,30.87 -109.36,62.52 -163.07,95.25 -56.35,34.4 -111.92,69.88 -166.89,106.23 -57.62,38.13 -114.46,77.43 -170.52,117.79 -59.19,42.63 -117.49,86.44 -175.02,131.42 -61.25,48.02 -121.42,97.31 -180.8,147.97 -63.31,54.19 -125.64,109.85 -186.88,167.08 -66.44,62.03 -131.71,125.83 -195.7,191.48 -69.68,71.35 -137.88,144.94 -204.71,220.5 -74.38,84.08 -147.09,170.71 -217.94,259.79 -81.04,101.82 -159.74,206.96 -236.27,315.25 -91.24,129.06 -179.43,262.73 -264.6,400.61 -109.07,176.59 -213.14,360.24 -312.41,550.94l-7.05 13.81c-187.18,360.43 -358.38,744.88 -514.69,1151.57 -151.2,393.36 -288.4,807.49 -412.96,1240.74 -136.01,473.42 -256.75,969.58 -363.37,1486.62 -60.76,294.19 -116.91,595.04 -168.85,902.26 -41.06,243.13 -79.38,490.09 -115.24,740.86 -30.77,215.69 -59.68,434.13 -86.73,655.21 -24.31,198.25 -47.14,398.55 -68.5,601.01 -4.41,41.85 -8.82,83.89 -13.13,125.93 -14.8,143.86 -28.81,288.89 -42.14,434.71 -16.17,176.31 -31.26,353.87 -45.48,532.91 -13.32,167.87 -25.86,336.91 -37.53,507.24 -11.08,161.79 -21.37,324.66 -31.07,488.51 -9.21,156.31 -17.73,313.59 -25.67,471.86 -7.64,151.89 -14.7,304.57 -21.17,458.14 -6.26,148.27 -12.05,297.32 -17.25,447.06 -5.1,144.74 -9.7,290.27 -13.92,436.38 -4.02,141.69 -7.64,284.09 -10.78,427.07 -3.13,139.74 -5.87,279.98 -8.23,420.8 -2.26,136.89 -4.22,274.39 -5.79,412.36 -1.46,134.75 -2.73,269.89 -3.63,405.52 -0.78,132.89 -1.46,266.15 -1.66,399.82 -0.29,131.32 -0.29,262.93 0.11,394.93 0.29,129.46 0.88,259.4 1.66,389.54 0.78,128.08 1.76,256.56 3.13,385.32 1.28,126.91 2.75,254.11 4.52,381.51 1.66,126.02 3.63,252.25 5.78,378.75 2.06,124.36 4.31,249.01 6.86,373.86 2.45,123.38 5.1,247.05 7.94,370.92 2.75,122.5 5.79,245.19 8.91,368.08l5.88 221.58 3.92 143.75 10.09 364.46 5.29 192.27 251.27 -568 31.94 -72.22c164.74,-372.39 325.36,-731.65 482.15,-1077.87 163.17,-360.15 322.31,-706.27 477.55,-1038.68 149.54,-320.06 295.56,-627.48 438.24,-922.16 137.3,-283.5 271.55,-555.34 403.06,-815.72 125.54,-248.62 248.53,-486.76 369.16,-714.6 53.7,-101.42 106.92,-200.79 159.64,-298.1 60.46,-111.42 120.24,-220.11 179.53,-326.24 106.04,-189.92 210.21,-371.5 312.71,-544.67 97.7,-165.03 193.93,-322.51 288.7,-472.54 90.35,-143.07 179.43,-279.38 267.44,-409.04 84.37,-124.35 167.67,-242.55 250.08,-354.66 78.2,-106.51 155.62,-207.56 232.25,-303.3 73.3,-91.43 145.82,-177.96 217.75,-259.59 37.73,-42.73 75.16,-84.18 112.5,-124.36 31.06,-33.41 61.93,-65.94 92.7,-97.7 65.86,-68 131.13,-132.39 195.89,-193.24 62.72,-58.9 124.95,-114.37 186.79,-166.6 59.97,-50.67 119.55,-98.1 178.74,-142.49 57.62,-43.22 114.85,-83.49 171.69,-120.73 55.46,-36.45 110.64,-70.07 165.42,-100.84 53.11,-29.89 105.93,-57.14 158.56,-81.82 51.25,-24.12 102.4,-45.87 153.26,-65.08 49.4,-18.72 98.59,-35.08 147.68,-49.29 47.83,-13.81 95.45,-25.58 142.98,-35.18 46.36,-9.31 92.6,-16.76 138.77,-22.14 44.98,-5.19 89.95,-8.63 134.84,-10.09 43.71,-1.47 87.42,-1.08 131.02,0.98 42.73,2.06 85.46,5.88 128.19,11.27 41.54,5.29 83.1,12.16 124.65,20.59 40.47,8.23 81.04,18.03 121.61,29.2 39.59,10.97 79.28,23.32 118.98,37.13 38.8,13.43 77.71,28.13 116.51,44.3 38.13,15.77 76.25,33.02 114.46,51.44 37.35,17.94 74.77,37.05 112.2,57.43 11.37,6.17 22.64,12.35 34.01,18.72 25.39,14.3 50.77,29.19 76.25,44.49 36.36,21.94 72.71,44.68 109.27,68.69 35.56,23.32 71.23,47.83 107.01,73.21 35.08,24.79 70.16,50.66 105.54,77.41 34.6,26.27 69.39,53.42 104.28,81.54 34.2,27.64 68.59,55.96 102.99,85.26 33.8,28.81 67.72,58.41 101.82,88.88 33.42,29.88 66.93,60.56 100.64,92.01 33.13,30.97 66.44,62.82 99.87,95.25 32.92,32.04 65.94,64.87 99.07,98.39 32.53,32.73 65.17,66.24 97.9,100.54 32.24,33.71 64.67,68.11 97.21,103.09 31.95,34.5 63.99,69.58 96.24,105.35 31.75,35.18 63.59,70.96 95.64,107.41 31.56,35.96 63.21,72.52 94.97,109.65 31.36,36.45 62.81,73.6 94.36,111.32 31.07,37.05 62.33,74.77 93.69,113 31.07,37.82 62.22,76.24 93.5,115.14 30.87,38.32 61.74,77.02 92.8,116.33 30.68,38.7 61.34,77.9 92.22,117.69 30.48,39.1 61.05,78.79 91.72,118.87 30.37,39.69 60.86,79.77 91.52,120.35 30.18,39.98 60.46,80.35 90.94,121.32 30.08,40.37 60.27,81.24 90.55,122.39 29.99,40.77 60.07,81.83 90.26,123.48 29.99,41.26 60.17,82.91 90.45,124.95 29.69,41.35 59.68,83.19 89.66,125.23 29.7,41.75 59.49,83.69 89.38,126.12 29.59,41.85 59.38,84.28 89.27,127 29.5,42.15 59.1,84.58 88.88,127.5 29.41,42.33 59,85.06 88.69,128.18 29.39,42.62 58.9,85.54 88.59,128.96 29.3,42.72 58.7,85.94 88.3,129.36 29.3,43.11 58.79,86.53 88.39,130.43 29.2,43.12 58.5,86.64 88,130.34l29.99 44.59c19.4,28.91 38.81,57.33 58.21,85.56 29.69,43.02 59.39,85.35 89.18,126.71 30.08,41.95 60.07,83.11 90.25,123.38 30.48,40.77 61.06,80.75 91.53,119.95 30.87,39.59 61.83,78.29 92.7,116.13 31.26,38.42 62.63,75.94 93.89,112.6 31.84,37.24 63.7,73.49 95.54,109.07 32.25,35.87 64.39,70.76 96.63,104.95 32.63,34.5 65.16,68.11 97.7,100.94 33.02,33.13 66.04,65.56 99.07,97.03 33.61,31.84 67.03,62.71 100.64,92.8 33.91,30.48 67.82,60.07 101.82,88.69 34.4,29 68.8,57.23 103.19,84.47 34.98,27.64 69.97,54.28 104.86,80.06 35.57,26.26 71.04,51.64 106.62,76.05 35.87,24.59 71.73,48.21 107.7,70.95 36.36,23.12 72.81,45.37 109.17,66.54 37.04,21.56 73.98,42.04 111.03,61.74 37.43,19.9 74.87,38.9 112.41,56.84 38.02,18.33 76.04,35.57 114.06,51.94 38.62,16.56 77.22,32.14 115.94,46.84 39.1,14.89 78.29,28.81 117.4,41.74 39.89,13.13 79.77,25.28 119.66,36.45 40.38,11.36 80.74,21.66 121.12,30.96 41.07,9.41 82.03,17.94 122.99,25.39 41.65,7.64 83.2,14.2 124.76,19.79 20.58,2.75 41.16,5.29 61.64,7.55 21.75,2.45 43.41,4.51 65.06,6.37 43.03,3.72 85.95,6.47 128.87,8.13 43.61,1.66 87.22,2.45 130.63,2.06 44.39,-0.39 88.59,-1.76 132.7,-4.21 45.37,-2.45 90.55,-6.07 135.62,-10.69 45.87,-4.71 91.53,-10.48 137.09,-17.25 46.65,-6.95 93.01,-14.99 139.35,-24.01 47.34,-9.31 94.58,-19.6 141.61,-30.96 48.21,-11.56 96.34,-24.4 144.25,-38.13 48.9,-14.11 97.7,-29.19 146.41,-45.27 49.78,-16.56 99.37,-34.2 148.86,-52.81 50.96,-19.11 101.71,-39.4 152.28,-60.67 51.54,-21.66 102.9,-44.49 153.95,-68.2 52.52,-24.31 104.67,-49.68 156.69,-75.95 53.42,-27.04 106.63,-55.07 159.55,-84.08 54.19,-29.79 108.19,-60.46 161.89,-92.12 55.17,-32.53 110.15,-65.96 164.73,-100.15 56.16,-35.28 111.92,-71.54 167.38,-108.48l18.82 -12.44c50.67,-34.1 101.23,-68.99 151.61,-104.47 58.02,-40.77 115.83,-82.42 173.45,-124.75 58.6,-43.12 116.91,-86.92 175.02,-131.41 59.49,-45.57 118.78,-91.83 177.57,-138.57 60.27,-47.73 120.14,-96.13 179.54,-144.84 52.04,-42.62 103.78,-85.65 155.03,-128.77l26.65 -22.54c62.33,-52.72 123.58,-105.25 183.95,-157.48 62.81,-54.3 124.55,-108.28 185.41,-161.89 63.01,-55.57 125.14,-110.74 186.29,-165.42 63.4,-56.55 125.73,-112.6 187.27,-167.97l153.18 -138.18 5.19 -5.29 0.78 0.78 29.1 -26.16c63.32,-57.14 125.84,-113.49 187.48,-168.76 63.1,-56.54 125.33,-112.11 186.68,-166.3 62.62,-55.46 124.45,-109.57 185.3,-161.98 61.94,-53.42 122.99,-105.06 183.06,-154.84 60.76,-50.28 120.64,-98.68 179.54,-144.84 59.38,-46.55 117.89,-90.85 175.41,-132.59 57.81,-41.95 114.75,-81.24 170.71,-117.7 56.05,-36.65 111.23,-70.35 165.42,-100.83 53.7,-30.29 106.43,-57.43 158.26,-81.24 51.45,-23.52 102.02,-43.81 151.7,-60.46 48.9,-16.46 96.92,-29.41 144.15,-38.71 46.45,-9.01 92.02,-14.6 136.9,-16.27l2.45 -0.1c43.91,-1.57 86.34,-0.19 127.49,4.11 42.73,4.52 83.99,12.16 123.77,23.23 40.67,11.28 79.67,26.17 117.02,44.69 37.92,18.82 74.18,41.35 108.67,67.92 35.18,27.14 68.69,58.4 100.25,93.97 32.14,36.17 62.33,76.93 90.65,122.31l7.83 12.84c25.67,42.72 49.89,89.28 72.61,139.74 25.39,56.34 48.91,117.59 70.46,183.94 21.76,66.74 41.65,138.66 59.49,215.89 18.03,77.91 34.01,161.31 48.02,250.29 14.11,90.16 26.16,186.1 36.06,288.01 9.9,102.31 17.64,210.69 23.13,325.36 1.96,40.86 3.63,82.51 5.09,125.04 2.65,78.01 4.31,157.87 5,239.21 1.08,131.61 -0.3,267.44 -4.31,407.28 -4.11,148.17 -11.08,300.75 -20.78,457.65 -10.29,166.88 -23.62,338.67 -39.88,514.98 -17.45,188.93 -38.32,382.97 -62.33,581.8 -26.16,216.09 -56.15,437.86 -89.76,664.72 -37.05,250.29 -78.5,506.85 -124.16,769.09 -51.16,293.79 -107.51,594.74 -168.76,901.86 -63.79,319.47 -132.88,645.71 -206.87,977.52l-26.27 117.3c-104.66,463.63 -218.73,937.93 -341.12,1419.89 -181.69,715.47 -381.9,1448 -597,2188.37 -385.62,1326.58 -819.16,2678.46 -1280.82,4002.2 -206.58,592.3 -419.14,1179.4 -635.9,1756.5 -277.82,739.78 -562.51,1463.1 -850.32,2160.35 -197.57,478.42 -396.5,944.4 -595.73,1394.89 -162.48,367.39 -325.16,724.39 -487.25,1069.34 -140.91,299.86 -281.55,590.73 -421.28,871.19l-42.63 85.35c-111.32,221.87 -222.06,436.87 -332.01,644.72 -113.58,214.91 -226.28,421.87 -337.9,620.51 -103.87,184.73 -206.68,362.3 -308.4,531.94 -95.93,160.12 -190.89,313.29 -284.58,459.02 -88.49,137.69 -176.01,268.9 -262.24,393.06 -82.12,118.18 -163.17,230.01 -242.94,335.35 -76.44,100.83 -151.8,195.6 -225.88,283.99 -71.34,85.06 -141.5,164.24 -210.4,237.34 -66.54,70.57 -132.01,135.24 -196.19,194.13 -53.12,48.6 -105.25,93.29 -156.6,133.67l-25.97 20.18c-59.09,45.48 -116.52,86.64 -172.37,123.38 -56.65,37.35 -111.53,70.17 -164.84,98.78 -53.5,28.61 -105.35,52.92 -155.61,73 -50.77,20.29 -99.87,36.26 -147.39,48.12 -47.92,11.86 -94.28,19.6 -139.07,23.03 -22.73,1.76 -45.07,2.54 -66.93,2.15 -21.56,-0.29 -42.83,-1.66 -63.79,-4.11 -41.95,-4.8 -82.71,-13.81 -122.59,-26.95 -39.2,-12.94 -77.43,-29.8 -114.56,-50.37 -36.75,-20.38 -72.52,-44.49 -107.4,-72.22 -34.6,-27.44 -68.21,-58.41 -100.95,-92.71 -27.43,-28.81 -54.28,-59.87 -80.45,-93.29 -4.71,-5.98 -9.21,-12.05 -13.82,-18.13 -30.57,-41.07 -59.29,-86.34 -86.33,-135.53 -27.54,-50.18 -53.21,-104.47 -77.22,-162.58 -24.5,-59.29 -47.24,-122.6 -68.4,-189.73 -21.47,-68.2 -41.26,-140.23 -59.58,-215.89 -18.52,-76.74 -35.47,-157.29 -51.05,-241.17 -15.78,-84.87 -30.08,-173.26 -43.12,-264.89 -12.65,-88.4 -24.01,-179.82 -34.3,-274l-1.57 -14.5c-10.78,-99.87 -20.28,-202.66 -28.91,-308 -8.62,-106.04 -16.17,-214.61 -22.93,-325.64 -6.86,-111.23 -12.74,-224.81 -18.03,-340.64 -5.29,-115.83 -9.81,-233.82 -13.92,-353.67 -4.11,-118.87 -7.64,-239.5 -10.97,-361.81 -3.23,-121.12 -6.18,-243.81 -8.91,-367.78 -2.65,-118.58 -5.19,-238.42 -7.75,-359.26l-0.19 -11.56c-2.55,-123.18 -5.1,-247.44 -7.84,-372.58 -2.64,-122.2 -5.49,-245.19 -8.72,-368.56 -3.03,-121.03 -6.37,-242.36 -10.19,-363.96 -3.72,-119.17 -7.74,-238.53 -12.35,-357.69 -4.51,-116.82 -9.4,-233.43 -14.99,-349.76 -5.4,-114.17 -11.47,-227.94 -18.14,-341.12 -6.56,-110.74 -13.72,-220.89 -21.55,-330.25 -7.75,-107.12 -16.18,-213.44 -25.29,-318.78 -9.01,-103.19 -18.82,-205.4 -29.39,-306.44 -10.39,-99.08 -21.56,-197.07 -33.61,-293.7 -11.86,-94.85 -24.5,-188.44 -38.12,-280.56 -8.72,-59.38 -17.94,-118.29 -27.44,-176.4 -4.99,-30.18 -10.09,-60.17 -15.29,-90.05 -14.89,-85.46 -30.67,-169.54 -47.43,-252.06 -16.57,-81.04 -34.01,-160.52 -52.52,-238.33 -18.03,-75.95 -37.05,-150.32 -57.14,-223.04 -19.7,-71.15 -40.38,-140.72 -62.03,-208.54 -21.26,-66.43 -43.51,-131.21 -66.84,-194.23 -22.83,-61.63 -46.64,-121.61 -71.53,-179.82 -24.4,-56.93 -49.79,-112.2 -76.25,-165.61 -25.97,-52.33 -52.92,-102.9 -80.94,-151.7 -27.54,-47.92 -56.15,-93.98 -85.75,-138.27 -29,-43.22 -58.99,-84.68 -90.06,-124.16 -30.48,-38.81 -61.94,-75.86 -94.47,-110.93 -31.95,-34.49 -64.87,-67.13 -98.88,-97.9 -33.41,-30.08 -67.81,-58.4 -103.18,-84.76 -34.79,-25.97 -70.57,-50.18 -107.31,-72.42 -36.17,-21.86 -73.41,-41.65 -111.53,-59.78 -27.24,-12.94 -55.07,-25 -83.39,-35.97 -10.78,-4.11 -21.36,-8.04 -32.04,-12.05 -39.89,-15 -79.18,-28.92 -117.79,-41.75 -40.38,-13.32 -80.06,-25.67 -119.17,-36.74 -41.06,-11.66 -81.43,-22.15 -121.02,-31.46 -41.74,-9.7 -82.7,-18.22 -122.89,-25.38 -42.72,-7.55 -84.37,-13.62 -125.34,-18.33 -43.61,-4.99 -86.33,-8.52 -127.98,-10.39 -44.79,-2.06 -88.49,-2.35 -131.13,-0.98 -46.15,1.57 -91.13,4.99 -134.84,10.28 -47.92,5.88 -94.58,13.82 -139.65,24.01 -50.28,11.37 -98.58,25.39 -145.43,41.75 -53.12,18.71 -104.07,40.47 -152.97,65.06 -57.62,29.11 -112.31,62.03 -164.24,98.68 -65.08,45.77 -125.73,97.12 -182.47,153.18 -81.63,80.65 -155.03,171.1 -220.88,268.8 -104.28,154.84 -189.93,327.7 -260.09,508.81 -127.2,328.77 -200.6,685.19 -242.64,1001.91 -26.76,201.39 -40.86,386.8 -48.02,538.89 -10.19,216.28 -6.47,365.24 -5.38,397.18l-0.78 0 0 1.46 0 0.78 0.78 4.51 0.1 6.87c0.99,71.53 -23.32,138.85 -63.79,191.88 -5.79,7.64 -11.96,14.89 -18.42,21.95 -40.38,42.62 -91.93,73.69 -149.74,88.29 -18.82,4.71 -38.22,7.74 -58.11,8.82l0 -0.78 -4.51 0.78 -0.78 0c-23.72,0.88 -46.84,-0.98 -69.19,-5.29 -42.14,-7.94 -81.34,-24.6 -115.44,-47.92 -12.74,-8.72 -24.79,-18.33 -36.06,-28.91 -24.12,-21.86 -44.5,-47.82 -60.37,-76.63 -21.56,-39.4 -34.6,-84.19 -36.75,-131.22l0 -1.47 -0.78 -4.51c-0.19,-6.47 -1.87,-56.54 -1.66,-140.53 0.19,-102.02 3.14,-254.21 14.99,-439.62 10.49,-166.6 28.23,-359.84 57.43,-567.69 52.72,-374.26 142.78,-795.44 296.05,-1191.65 79.08,-204.12 175.9,-401.39 294.09,-581.31 69,-105.05 145.24,-204.13 229.61,-295.17 59.68,-64.29 123.38,-124.46 191.28,-179.92 54.88,-44.79 112.6,-86.44 173.17,-124.55 51.64,-32.54 105.35,-62.72 161.5,-89.97 49.2,-23.91 100.25,-45.57 152.97,-64.97 47.53,-17.54 96.43,-33.22 147,-46.94 46.06,-12.46 93.48,-23.03 142.1,-32.04 45.07,-8.33 91.04,-15.3 138.27,-20.59 43.91,-4.9 88.88,-8.23 134.85,-10.39 43.11,-1.96 87.21,-2.54 132.1,-1.96 42.53,0.59 85.84,2.35 129.94,5.3 41.85,2.84 84.27,6.66 127.49,11.66 41.26,4.9 83.01,10.48 125.64,17.44 40.67,6.57 82.03,14.22 123.97,22.74 40.18,8.13 80.94,17.25 122.3,27.24 39.78,9.6 80.06,19.9 120.93,31.26 39.39,10.88 79.38,22.83 119.75,35.37 39,12.16 78.5,24.9 118.48,38.62 38.7,13.32 78.01,27.43 117.7,42.23 19.4,7.36 38.9,14.5 58.6,22.15 19.4,7.54 38.61,15.48 57.62,23.51 38.71,16.57 76.63,34.3 113.68,53.31 37.82,19.31 74.76,39.79 110.93,61.55 36.75,22.25 72.81,45.67 107.99,70.37 35.87,25.19 70.85,51.64 105.06,79.38 34.79,28.22 68.79,57.72 101.91,88.49 33.82,31.36 66.64,64.09 98.69,98 32.92,34.78 64.77,70.85 95.84,108.19 31.65,38.02 62.33,77.41 92.21,117.89 30.48,41.46 60.07,84.08 88.69,128.08 29.3,44.98 57.72,91.33 85.15,138.86 28.12,48.7 55.38,98.68 81.63,149.93 26.85,52.33 52.82,106.04 77.81,161.01 25.58,56.15 50.28,113.68 73.99,172.38 24.4,60.36 47.83,122.09 70.27,185.02 22.93,64.19 44.98,129.64 66.05,196.29 21.55,68.39 42.23,137.88 61.93,208.64 20.19,72.52 39.5,146.4 57.82,221.27 18.82,76.83 36.65,154.73 53.6,233.82 6.76,31.75 13.53,63.7 19.99,95.74 10.2,49.78 19.9,99.96 29.41,150.43 15.97,85.26 31.06,171.59 45.27,258.9 14.5,89.67 28.22,180.31 40.96,271.85 13.13,94.27 25.38,189.43 36.75,285.36 11.66,98.2 22.44,197.27 32.44,297.13 10.28,102.51 19.7,205.8 28.42,309.68 8.91,106.42 17.05,213.53 24.4,321.13 7.64,110.35 14.5,221.19 20.78,332.31 6.36,114.37 12.15,229.02 17.34,343.78 5.29,117.2 10.09,234.6 14.31,351.9 4.41,119.95 8.23,239.8 11.76,359.36 3.53,122.11 6.76,244.01 9.7,365.33 3.04,124.07 5.88,247.54 8.52,370.23l5.3 250.97 2.45 120.34c2.54,124.95 5.19,248.73 7.94,370.82 2.84,124.46 5.78,247.16 9.01,367.59 3.43,123.28 7.06,244.31 11.17,362.6 4.22,120.34 8.91,237.73 14.22,351.9 5.48,116.82 11.46,230.2 18.42,339.47 6.26,100.64 13.32,197.86 21.16,291.15l2.75 31.75c9.21,104.86 19.5,205.6 31.17,301.63 11.86,96.73 24.99,188.64 39.69,275.47 14.8,87.52 31.26,169.64 49.49,246.08 18.32,76.83 38.51,147.67 60.66,212.26 22.44,65.16 46.84,123.77 73.5,175.41 23.02,44.49 47.72,83.88 74.18,117.7l0 0.68c4.11,5.3 8.43,10.29 12.74,15.09 30.67,33.32 67.62,53.9 111.22,60.76 40.09,6.17 85.85,0.68 137.4,-17.45 14.6,-5.1 29.69,-11.27 45.17,-18.42 32.73,-14.7 70.46,-35.67 113.29,-63.21 50.47,-32.44 107.9,-73.88 172.97,-124.75l5.29 -4.11c58.5,-45.87 118.18,-97.81 179.04,-155.23 65.08,-61.34 131.42,-129.06 198.94,-203.15 70.66,-77.32 142.68,-161.51 215.89,-252.15 76.25,-94.37 153.76,-195.8 232.46,-303.79 82.7,-113.49 166.69,-234.32 251.84,-362.2 90.26,-135.43 181.79,-278.61 274.5,-429.33 98.68,-160.22 198.64,-328.97 299.67,-505.47 108.67,-189.73 218.63,-388.46 329.57,-595.53 121.12,-226.08 243.43,-461.96 366.71,-707.05 39.2,-78.1 78.59,-157.09 118.09,-237.05 98.38,-199.33 197.36,-404.34 296.63,-614.45 160.13,-338.67 321.34,-690.78 482.84,-1054.54 195.89,-441.38 392.28,-899.81 587.89,-1371.96 278.21,-671.37 554.76,-1370.38 826.12,-2087.23 249.11,-657.95 493.7,-1330.91 731.15,-2011.3 489.01,-1402.63 946.36,-2835.84 1347.56,-4234.36 202.17,-704.69 390.03,-1400.37 560.44,-2079.01 109.27,-435.1 211.49,-863.16 305.66,-1281.9l21.17 -94.57c81.04,-363.86 155.91,-720.67 224.11,-1068.86 58.8,-299.77 112.6,-593.08 161.21,-879.23 43.22,-254.5 82.22,-503.11 116.81,-745.47 31.46,-220.39 59.29,-435.49 83.3,-644.82 22.15,-193.34 41.07,-381.7 56.55,-564.85 14.41,-171.1 25.86,-337.5 34.2,-499.1 7.84,-151.21 12.93,-298.01 15.29,-440.4 2.15,-134.55 1.77,-264.99 -1.18,-391.11 -0.69,-32.53 -1.57,-64.87 -2.75,-96.81 -3.03,-92.32 -6.56,-178.36 -10.58,-258.52 -6.28,-123.08 -13.62,-232.25 -22.05,-328.58 -10,-114.46 -21.56,-210.69 -34.69,-290.17 -2.06,-12.84 -4.21,-25.19 -6.47,-37.14 -13.23,-74.18 -29.99,-136.7 -49.98,-188.44 -23.71,-61.55 -52.04,-107.7 -84.67,-140.04 -33.22,-32.92 -70.95,-51.44 -112.89,-56.93 -11.56,-1.57 -23.43,-2.15 -35.67,-1.76 -31.36,0.98 -64.97,6.47 -100.64,16.26 -46.84,12.74 -97.31,32.83 -151.12,59.49 -51.15,25.28 -105.44,56.54 -162.47,93.2 -54.39,34.89 -111.43,74.47 -170.81,118.47 -41.74,30.97 -84.77,63.99 -128.96,98.99l0.78 0c-16.27,12.93 -32.73,26.07 -49.39,39.49 -58.5,47.14 -118.97,97.31 -181.2,149.94 -59.98,50.75 -121.71,103.97 -184.82,159.14 -60.76,53.12 -122.89,108 -186.2,164.54 -61.25,54.49 -123.67,110.54 -187.18,167.77 -55.16,49.68 -111.12,100.15 -167.76,151.4l-19.9 18.03c-61.84,55.66 -124.46,112.11 -187.86,169.04 -61.64,55.46 -124.07,111.42 -187.28,167.68 -61.25,54.49 -123.18,109.26 -185.9,164.14 -60.86,53.31 -122.4,106.63 -184.53,159.94 -60.66,51.93 -121.9,103.78 -183.84,155.42l-1.27 1.07c-59.38,49.98 -119.46,99.66 -180.03,149.06 -59.18,48.41 -118.86,96.42 -179.14,144.05 -58.69,46.26 -117.79,92.22 -177.38,137.69 -57.91,44.2 -116.32,87.91 -175.12,131.02 -57.14,41.95 -114.65,83.4 -172.67,124.16 -56.35,39.69 -113.19,78.79 -170.32,117.3l-0.59 0.39c-55.57,37.24 -111.42,73.9 -167.57,109.76 -54.98,35.18 -110.25,69.68 -165.72,103.49 -54.49,33.02 -109.27,65.46 -164.15,97.01 -53.7,30.77 -107.5,60.86 -161.5,90.06 -52.82,28.51 -105.84,56.25 -159.05,83.2 -52.14,26.35 -104.37,51.84 -156.8,76.43 -51.35,24.21 -102.9,47.53 -154.54,69.88 -50.77,22.05 -101.72,43.22 -152.68,63.5 -49.98,19.8 -100.06,38.71 -150.23,56.74 -49.29,17.73 -98.69,34.6 -148.17,50.47 -48.8,15.68 -97.7,30.48 -146.7,44.3 -47.92,13.53 -95.94,26.16 -143.96,37.92 -47.24,11.47 -94.57,22.06 -141.99,31.76 -46.56,9.5 -93.29,18.03 -140.04,25.77 -45.87,7.45 -91.93,14.11 -137.98,19.8 -45.27,5.58 -90.55,10.28 -135.92,14.01 -44.69,3.72 -89.37,6.47 -134.16,8.23 -44.3,1.87 -88.59,2.65 -132.89,2.65 -43.41,0 -86.92,-0.99 -130.44,-2.84 -42.81,-1.77 -85.64,-4.52 -128.57,-8.24 -18.91,-1.57 -37.82,-3.33 -56.73,-5.29 -23.32,-2.45 -46.75,-5.29 -70.27,-8.33 -41.65,-5.38 -83.3,-11.47 -125.04,-18.72 -41.16,-7.05 -82.22,-15.08 -123.38,-24.01 -40.57,-8.71 -81.24,-18.22 -121.9,-28.71 -39.98,-10.39 -80.06,-21.76 -120.14,-33.91 -39.59,-11.96 -79.28,-24.79 -118.97,-38.61 -39.01,-13.53 -77.91,-27.84 -116.91,-43.12 -38.52,-15.09 -77.13,-31.07 -115.64,-47.83 -37.93,-16.56 -75.95,-33.9 -113.98,-52.13 -37.53,-18.03 -75.06,-36.85 -112.6,-56.54 -37.04,-19.4 -74.09,-39.78 -111.23,-60.95 -36.55,-20.87 -73.1,-42.53 -109.65,-64.97 -36.17,-22.25 -72.23,-45.27 -108.39,-69.09 -35.77,-23.62 -71.54,-48.02 -107.4,-73.4 -35.28,-24.89 -70.56,-50.47 -105.83,-77.02 -34.79,-26.17 -69.68,-53.12 -104.47,-80.85 -34.4,-27.44 -68.8,-55.66 -103.19,-84.68 -34.01,-28.71 -68.01,-58.11 -102.02,-88.39 -33.61,-29.89 -67.23,-60.57 -100.84,-91.93 -33.12,-31.07 -66.34,-62.82 -99.46,-95.45 -32.92,-32.25 -65.75,-65.27 -98.58,-99.08 -32.53,-33.51 -65.08,-67.72 -97.7,-102.7 -32.04,-34.49 -64.09,-69.77 -96.13,-105.74 -31.65,-35.57 -63.4,-72.03 -95.05,-109.08 -31.37,-36.65 -62.72,-74.18 -94.08,-112.3 -31.07,-37.73 -62.03,-76.24 -93.01,-115.34 -30.57,-38.81 -61.24,-78.29 -91.92,-118.48 -30.38,-39.78 -60.67,-80.26 -91.04,-121.61 -29.99,-40.77 -59.98,-82.23 -89.97,-124.36 -29.79,-41.95 -59.49,-84.67 -89.28,-127.99 -19.79,-28.91 -39.59,-58.01 -59.38,-87.51l-28.62 -42.53 -87.99 -130.63c-29.5,-43.72 -58.9,-87.12 -88.1,-130.05 -29.6,-43.51 -59,-86.63 -88.3,-129.36 -29.69,-43.42 -59.19,-86.44 -88.59,-128.96 -29.69,-43.22 -59.29,-85.85 -88.69,-128.18 -29.79,-42.92 -59.38,-85.46 -88.87,-127.5 -30.09,-42.81 -59.98,-85.35 -89.67,-127.29 -29.99,-42.43 -59.79,-84.28 -89.48,-125.84 -30.08,-42.04 -59.98,-83.69 -89.76,-124.84 -30.18,-41.85 -60.26,-83.11 -90.06,-123.88 -30.38,-41.54 -60.56,-82.51 -90.64,-122.99 -30.48,-41.06 -60.76,-81.63 -90.85,-121.61 -30.57,-40.67 -61.05,-80.85 -91.33,-120.44 -30.77,-40.28 -61.34,-79.97 -91.82,-119.17 -31.07,-39.88 -61.94,-79.17 -92.62,-117.89 -31.06,-39.2 -62.02,-77.91 -92.8,-115.94 -31.26,-38.61 -62.33,-76.63 -93.29,-114.06 -31.56,-38.13 -62.91,-75.56 -94.17,-112.31 -31.65,-37.43 -63.21,-74.18 -94.67,-110.15 -31.95,-36.75 -63.7,-72.81 -95.35,-107.99 -32.34,-36.07 -64.48,-71.15 -96.43,-105.64 -32.53,-35.09 -64.87,-69.39 -97.01,-102.9 -33.02,-34.3 -65.85,-67.82 -98.49,-100.45 -33.22,-33.22 -66.24,-65.56 -99.17,-97.01 -33.61,-32.04 -67.04,-63.31 -100.26,-93.5 -34.01,-30.96 -67.81,-60.86 -101.42,-89.86 -34.4,-29.6 -68.7,-58.21 -102.8,-85.75 -34.89,-28.23 -69.68,-55.47 -104.36,-81.54 -35.38,-26.76 -70.66,-52.23 -105.84,-76.63 -13.52,-9.41 -27.14,-18.72 -40.66,-27.84 -22.35,-14.99 -44.69,-29.49 -66.93,-43.61 -36.75,-23.32 -73.41,-45.46 -109.96,-66.34 -37.24,-21.26 -74.38,-41.26 -111.32,-59.98 -38.02,-19.21 -75.85,-37.04 -113.57,-53.51 -38.81,-16.85 -77.52,-32.33 -116.13,-46.25 -39.69,-14.31 -79.18,-26.95 -118.58,-38.02 -40.67,-11.47 -81.24,-21.17 -121.71,-29.2 -41.75,-8.23 -83.4,-14.7 -124.85,-19.3 -43.02,-4.71 -86.04,-7.45 -128.87,-8.13 -44.49,-0.69 -88.98,0.88 -133.37,4.6 -45.86,3.83 -91.72,10 -137.49,18.52 -47.72,9.02 -95.46,20.48 -143.07,34.69 -49.68,14.8 -99.27,32.34 -148.96,52.92 -51.94,21.47 -103.88,46.15 -155.92,73.99 -54.58,29.2 -109.27,62.03 -164.04,98.29 -57.72,38.22 -115.64,80.27 -173.66,126.52 -61.25,48.71 -122.69,101.82 -184.43,159.44 -64.2,59.98 -128.68,124.85 -193.45,194.62l-4.91 5.29c-69.96,75.46 -140.53,155.92 -211.87,241.37 -74.48,89.18 -149.84,183.94 -225.98,284.2 -79.77,105.05 -160.43,216.18 -242.25,333.48 -85.94,123.19 -172.97,253.14 -261.35,389.93 -92.51,143.47 -186.59,294.38 -282.04,453.04 -100.34,166.7 -202.46,341.91 -306.34,525.66 -109.07,192.85 -220.1,395.13 -333.38,607.09 -79.28,148.27 -159.64,301.15 -241.07,458.92 -41.26,79.86 -82.81,161.1 -124.76,243.43 -129.55,255.08 -262.14,521.83 -397.77,800.63 -141.21,290.16 -285.86,593.27 -434.13,909.61 -153.56,327.51 -310.94,669.13 -472.73,1025.15 -165.72,365.03 -335.94,745.16 -510.96,1140.78 -177.96,402.08 -360.83,820.23 -548.89,1254.56 -85.06,196.19 -171.1,395.71 -258.32,598.67l-13.52 31.65 1.37 36.85 5.19 129.94c4.71,117.01 9.51,234.12 14.41,351.22 4.9,116.42 9.9,232.94 14.99,349.56 5.1,116.13 10.29,232.25 15.58,348.48 5.19,115.54 10.59,231.08 15.97,346.72 5.4,115.14 10.78,230.29 16.37,345.54 5.49,115.14 11.17,230.29 16.85,345.53 5.59,114.37 11.37,228.83 17.15,343.29 5.68,114.06 11.56,228.24 17.45,342.3l17.64 341.43 1.46 27.15 16.46 314.17 18.14 340.35 18.22 339.86 18.52 339.46 18.72 339.66 18.72 338.29 18.91 338.58 18.91 337.8 18.92 337.79 14.69 262.54 0.69 10.48 3.63 64.68 18.91 338.18 18.92 337.9 18.91 338.78 18.82 338.58 18.71 338.68 18.62 338.97 18.33 339.37 18.32 340.24 17.94 340.74 17.84 341.42 17.54 343.09c5.78,114.56 11.46,229.02 17.14,343.28 5.69,114.85 11.28,229.51 16.85,344.07 5.59,115.34 11.08,230.49 16.57,345.44 5.38,115.64 10.78,231.08 16.07,346.42 5.29,116.03 10.48,231.96 15.58,347.69 5.19,116.61 10.29,233.13 15.19,349.37 4.99,117.2 9.9,234.11 14.7,350.92 4.79,117.98 9.5,235.68 14.11,353.18 4.6,118.48 9.01,236.66 13.32,354.55 4.41,119.17 8.72,238.14 12.84,356.81 4.11,119.85 8.13,239.41 11.96,358.77 3.82,120.73 7.64,241.17 11.17,361.22 3.63,121.71 7.05,243.13 10.29,364.15 3.33,122.59 6.47,244.79 9.4,366.6 2.94,123.67 5.68,246.86 8.33,369.75 2.54,125.04 4.99,249.69 7.16,373.85 2.25,126.12 4.21,251.85 5.98,377.1 1.76,127.4 3.33,254.49 4.6,381.01 1.27,129.06 2.35,257.54 3.14,385.62 0.69,130.83 1.18,261.07 1.37,390.81 0.11,132.68 0,264.69 -0.49,396.29 -0.49,134.75 -1.37,268.81 -2.54,402.28 -1.18,137 -2.75,273.42 -4.71,409.04 -1.96,139.74 -4.31,278.91 -7.16,417.18 -2.94,142.78 -6.37,284.58 -10.29,425.6 -4.02,146.4 -8.62,291.73 -13.72,436.28 -5.29,150.04 -10.97,299.18 -17.34,447.17 -6.76,155.03 -14.22,308.79 -22.25,461.47 -8.43,160.52 -17.53,319.76 -27.53,477.54 -10.59,167.77 -22.05,333.88 -34.4,498.61 -13.13,175.81 -27.15,350.05 -42.43,522.32 -16.66,187.76 -34.6,373.38 -53.81,556.83 -21.36,203.44 -44.19,404.23 -68.89,601.99 -28.51,228.63 -59.57,452.85 -92.7,673.63 -40.77,271.06 -84.96,536.14 -133.18,794.76 -73.4,394.93 -155.71,774.96 -247.54,1138.91 -127.88,506.36 -274.09,982.13 -441.08,1423.42 -62.13,164.34 -125.83,322.99 -191.2,476.06 -134.74,315.94 -276.15,607.78 -422.85,875.8 -97.12,177.28 -196.58,344.17 -298.01,500.67 -82.71,127.5 -166.7,248.04 -251.96,361.91 -54.09,72.22 -108.67,141.8 -163.74,208.54 -20.49,24.89 -40.97,49.2 -61.55,73.3 -68.5,80.06 -137.59,155.91 -207.27,227.55 -64.19,66.05 -128.76,128.57 -193.84,187.56 -60.86,55.17 -122,107.31 -183.55,156.31 -58.02,46.34 -116.32,89.86 -174.83,130.63 -55.76,38.9 -111.72,75.26 -167.76,109.07 -53.71,32.44 -107.6,62.62 -161.51,90.45 -52.04,26.85 -104.07,51.55 -156.21,74.18 -50.47,21.86 -100.84,41.74 -151.31,59.58 -44.78,15.88 -89.56,30.29 -134.44,43.02l-12.44 3.53c-47.83,13.43 -95.55,25.19 -143.18,35.18 -46.64,9.9 -93.2,18.13 -139.65,24.79 -45.67,6.56 -91.13,11.47 -136.5,14.99 -44.6,3.34 -89.09,5.3 -133.37,5.69 -43.61,0.49 -87.12,-0.5 -130.53,-2.85 -42.73,-2.34 -85.36,-6.07 -127.79,-11.16 -41.85,-5 -83.5,-11.28 -125.05,-18.92 -32.53,-5.98 -64.97,-12.73 -97.31,-20.38 -8.43,-1.95 -16.95,-4.02 -25.38,-6.17 -40.18,-10 -80.26,-21.26 -120.14,-33.8 -39.39,-12.35 -78.7,-25.97 -117.79,-40.86 -38.71,-14.7 -77.32,-30.58 -115.64,-47.63 -38.02,-16.96 -75.85,-35.09 -113.48,-54.3 -37.24,-19.11 -74.29,-39.39 -111.23,-60.76 -36.55,-21.16 -72.91,-43.5 -109.17,-66.93 -35.86,-23.23 -71.63,-47.52 -107.11,-73 -35.28,-25.28 -70.37,-51.64 -105.16,-79.09 -21.46,-16.85 -42.83,-34.1 -64.09,-51.84 -13.03,-10.88 -26.07,-21.95 -39.09,-33.13 -33.91,-29.3 -67.62,-59.78 -101.14,-91.23 -33.22,-31.37 -66.24,-63.71 -99.07,-97.22 -32.64,-33.32 -64.97,-67.72 -97.12,-103.1 -31.94,-35.37 -63.6,-71.73 -95.05,-109.16 -31.36,-37.33 -62.43,-75.65 -93.2,-115.06 -30.67,-39.3 -61.05,-79.66 -91.24,-121.02 -29.98,-41.35 -59.68,-83.69 -89.17,-127.1 -29.3,-43.31 -58.41,-87.61 -87.12,-132.98 -9.51,-15.09 -19.01,-30.19 -28.42,-45.37 -19.1,-30.88 -38.02,-62.14 -56.84,-93.79 -28.03,-47.33 -55.76,-95.74 -83.1,-145.03 -27.44,-49.39 -54.49,-99.86 -81.15,-151.2 -26.76,-51.45 -53.01,-103.98 -78.98,-157.49 -26.07,-53.6 -51.74,-108.28 -76.93,-163.85 -25.38,-55.85 -50.28,-112.6 -74.77,-170.32 -24.59,-58.11 -48.8,-117.1 -72.52,-177.17 -23.81,-60.27 -47.24,-121.62 -70.26,-183.95 -20.59,-55.95 -40.77,-112.69 -60.67,-170.22l-7.16 -21.06c-22.24,-64.98 -44,-131.13 -65.36,-198.35 -21.46,-67.51 -42.43,-136.11 -62.91,-205.89 -20.58,-70.07 -40.77,-141.31 -60.37,-213.63 -19.7,-72.81 -39,-146.7 -57.62,-221.77 -18.91,-75.56 -37.13,-152.19 -54.97,-230 -17.83,-78.4 -35.18,-157.98 -52.04,-238.62 -16.85,-81.43 -33.22,-163.95 -48.99,-247.63 -15.88,-84.58 -31.17,-170.52 -45.76,-257.44 -14.9,-87.91 -29.01,-176.98 -42.54,-267.24 -13.72,-91.34 -26.74,-183.85 -39.09,-277.53 -12.44,-94.97 -24.31,-191.1 -35.38,-288.61 -11.16,-98.88 -21.66,-199.13 -31.36,-300.66 -9.9,-102.99 -18.91,-207.46 -27.24,-313.1 -8.43,-107.5 -16.07,-216.28 -22.83,-326.52 -6.86,-112.3 -12.84,-226.18 -17.83,-341.23 -5.19,-117.6 -9.51,-236.46 -12.74,-356.9 -3.34,-123.28 -5.59,-248.03 -6.86,-374.15 -1.38,-129.46 -1.67,-260.28 -0.78,-392.78 0.98,-136.42 3.13,-274.59 6.47,-414.34 3.42,-144.15 8.23,-290.07 14.2,-437.75 6.28,-152.87 13.92,-307.52 23.03,-464.12 9.51,-162.97 20.58,-328.09 33.32,-495.08 13.23,-174.82 28.42,-351.8 45.27,-531.05 17.73,-188.74 37.54,-379.94 59.38,-573.48 23.23,-205.59 48.61,-413.84 76.53,-624.73 16.27,-123.28 33.42,-247.54 51.36,-372.68 15.19,-105.55 30.96,-211.77 47.33,-318.59 39.09,-256.06 81.73,-515.76 127.79,-779.17 52.04,-296.84 108.58,-598.38 169.63,-904.52 72.23,-361.61 150.73,-729.59 236.08,-1104.04 113.38,-497.62 238.72,-1006.53 376.41,-1526.49 510.57,-1927.71 1191.84,-4007.2 2073.42,-6229.78 107.51,-271.06 217.94,-544.18 331.53,-819.55 126.91,-307.72 252.44,-611.9 376.7,-912.74 227.94,-551.73 451.56,-1092.28 671.67,-1623.33 223.43,-538.99 443.23,-1068.07 660.3,-1589.22l35.48 -85.06c206.97,-496.27 408.75,-978.01 605.52,-1445.66 210.79,-500.96 415.89,-985.76 615.43,-1454.38 102.9,-241.66 204.42,-479.1 304.38,-712.24l13.52 -32.44 -1.27 -35.37 -5.98 -153.37c-4.51,-118.38 -8.91,-236.66 -13.23,-354.75 -4.41,-119.17 -8.62,-238.23 -12.73,-357.01 -4.12,-119.85 -8.05,-239.4 -11.96,-358.96 -3.83,-120.54 -7.55,-240.87 -11.17,-361.02 -3.63,-121.82 -7.06,-243.33 -10.39,-364.75 -3.33,-122.4 -6.47,-244.51 -9.51,-366.51 -3.03,-123.19 -5.88,-246.27 -8.52,-369.06 -2.75,-124.26 -5.19,-248.23 -7.55,-372 -2.35,-125.43 -4.51,-250.68 -6.47,-375.62 -1.96,-126.61 -3.72,-253.02 -5.19,-379.05 -1.57,-127.88 -2.94,-255.48 -4.02,-382.68 -1.08,-129.45 -1.96,-258.61 -2.55,-387.38 -0.58,-131.32 -0.98,-262.24 -1.07,-392.87 0,-132.59 0.19,-264.79 0.68,-396.5 0.5,-134.45 1.28,-268.51 2.46,-402.08 1.07,-136.61 2.54,-272.82 4.41,-408.55 1.86,-138.66 4.11,-276.84 6.66,-414.62 2.65,-141.22 5.68,-281.94 9.12,-422.07 3.53,-144.25 7.55,-287.92 11.96,-430.99 4.51,-147.2 9.51,-293.8 14.99,-439.71 5.68,-151.31 11.86,-302.04 18.62,-451.97 6.95,-154.93 14.5,-309.18 22.54,-462.55 8.52,-159.93 17.64,-318.98 27.34,-477.14 10.2,-165.42 21.07,-329.77 32.83,-493.13 12.25,-172.18 25.39,-343.28 39.4,-513.11l10.09 -120.93c11.86,-139.84 24.4,-278.9 37.43,-417.07 18.14,-191.09 37.35,-380.52 57.82,-568.39 22.35,-205.11 46.15,-408.16 71.44,-609.04 28.51,-226.38 58.9,-450.1 91.24,-670.99 37.63,-256.75 78.01,-509.68 121.12,-758.59 54.88,-317.12 114.37,-627.67 178.65,-931.37 125.73,-594.05 269.89,-1161.75 434.52,-1700.04zm-1035.14 42211.75c83.88,-344.66 159.54,-703.72 227.06,-1077.08 45.37,-251.27 87.11,-509 125.53,-772.51 31.46,-215.49 60.67,-434.82 87.71,-658.16 23.52,-194.42 45.37,-391.88 65.66,-592.09 18.33,-180.91 35.57,-363.96 51.35,-549.37 14.61,-170.32 28.03,-342.7 40.47,-516.64 11.66,-162.48 22.44,-326.63 32.44,-492.14 9.41,-156.9 18.33,-314.86 26.27,-474.4 7.55,-151.01 14.31,-303.31 20.58,-456.67 5.98,-146.9 11.47,-294.87 16.27,-443.83 4.71,-143.56 9.12,-287.71 12.74,-433.14 3.53,-139.85 6.47,-280.77 9.12,-422.28 2.54,-137.3 4.7,-275.27 6.36,-414.04 1.67,-135.04 3.04,-270.56 4.02,-406.88 0.89,-132.89 1.47,-266.26 1.77,-400.31 0.19,-131.02 0.19,-262.54 -0.2,-394.74 -0.49,-128.96 -1.18,-258.51 -2.15,-388.46 -0.98,-127.4 -2.26,-255.28 -3.72,-383.66 -1.47,-126.03 -3.14,-252.64 -5.1,-379.64 -1.96,-124.75 -4.11,-249.99 -6.47,-375.53 -2.35,-123.57 -4.9,-247.54 -7.64,-371.8 -2.75,-122.59 -5.59,-245.48 -8.72,-368.86 -3.14,-121.42 -6.37,-243.32 -9.81,-365.53 -3.33,-120.73 -6.95,-241.86 -10.67,-363.27 -3.63,-119.85 -7.55,-239.99 -11.47,-360.43 -4.02,-118.97 -8.13,-238.33 -12.35,-357.98 -4.21,-118.18 -8.52,-236.76 -13.03,-355.53 -4.41,-117.7 -9.02,-235.49 -13.72,-353.67 -4.61,-117.21 -9.41,-234.51 -14.22,-352.11 -4.9,-116.52 -9.79,-233.23 -14.89,-350.14 -5,-116.13 -10.09,-232.25 -15.29,-348.77 -5.3,-115.83 -10.59,-231.86 -15.97,-348.08 -5.29,-115.05 -10.78,-230.39 -16.27,-345.83 -5.49,-114.76 -10.97,-229.71 -16.65,-344.86 -5.59,-114.36 -11.28,-229.01 -17.06,-343.77l-17.34 -342.7 -17.64 -341.81 -17.84 -341.13 -18.13 -340.54 -18.33 -340.55 -18.52 -339.16 -18.62 -339.07 -18.82 -338.38 -18.82 -338.09 -18.91 -337.9 -19.01 -338.18 -14.8 -264.11 0 -9.79 -1.87 -30.87 -1.96 -33.91 -19.01 -338.48 -19.02 -338.09 -18.91 -337.9 -18.82 -338.09 -18.82 -338.68 -18.61 -338.68 -18.42 -339.36 -18.33 -339.66 -18.23 -341.62 -17.83 -341.03c-5.88,-114.07 -11.77,-228.03 -17.54,-341.91 -5.88,-114.45 -11.66,-228.82 -17.34,-342.99 -5.69,-114.65 -11.37,-229.32 -17.06,-343.67l-6.67 -138.18 -10 -206.38 -16.65 -345.15 -6.76 -140.62 -269.01 637.96 -100.45 238.42c-212.36,504.68 -425.59,1013.68 -640.7,1529.24 -148.47,355.93 -297.82,714.99 -448.25,1077.88 -68.89,165.72 -139.25,335.25 -211.18,508.51 -211.77,510.76 -436.38,1053.76 -672.26,1625.08 -140.33,339.76 -284.67,689.61 -432.75,1048.67 -90.06,218.43 -178.16,435.49 -264.39,651.19 -939.4,2348.89 -1653.32,4532.46 -2176.82,6540.33 -129.75,497.73 -247.73,984.48 -354.65,1460.45 -82.03,365.13 -157.58,723.99 -226.76,1076.2 -58.7,299.09 -112.7,593.37 -162.39,883.05 -44.39,258.42 -85.26,512.91 -122.69,763.69l-8.72 58.5c-30.77,208.73 -58.9,414.62 -84.96,618.06 -26.56,207.07 -50.86,411.59 -72.62,613.26 -20.48,189.43 -38.9,376.5 -55.37,561.13 -15.68,175.41 -29.39,348.58 -41.45,519.49 -11.56,163.65 -21.56,325.14 -29.89,484.69 -8.04,153.46 -14.7,305.07 -19.9,454.61 -4.99,144.55 -8.71,287.43 -11.07,428.35 -2.35,136.7 -3.34,271.64 -3.23,405.02 0.1,129.55 1.27,257.54 3.63,383.96 2.15,123.47 5.38,245.48 9.7,365.82 4.21,117.49 9.51,233.43 15.58,347.99 5.98,112.3 12.84,223.43 20.67,332.89 7.65,107.51 16.18,213.44 25.48,318.1 9.21,103 19.21,204.72 29.99,304.97 10.69,98.88 21.95,196.49 34.1,292.72 11.96,94.76 24.7,188.16 38.12,280.46 13.23,91.14 27.15,181 41.75,269.59 14.41,87.61 29.39,174.14 45.17,259.4 15.49,84.28 31.65,167.38 48.41,249.31 16.66,81.04 33.91,160.81 51.64,239.6 17.64,78.01 35.97,154.83 54.69,230.59 18.61,75.16 37.82,149.24 57.62,222.15 19.6,72.33 39.69,143.57 60.26,213.64 20.48,69.77 41.55,138.37 63.01,205.8 21.37,67.03 43.22,133.08 65.56,197.86l0.59 1.66c22.14,63.99 44.78,126.71 67.72,188.35 23.12,61.94 46.74,122.79 70.65,182.47 24.01,59.58 48.32,117.98 73.11,175.21 24.79,57.23 49.97,113.19 75.55,168.07 25.58,54.88 51.55,108.58 77.91,161.01 26.36,52.52 53.11,103.87 80.16,153.95 27.15,50.28 54.69,99.18 82.51,147 14.41,24.6 28.81,48.8 43.31,72.72 13.82,22.74 27.64,45.18 41.65,67.23 28.72,45.57 57.72,89.86 87.12,132.98 29.6,43.31 59.38,85.35 89.56,126.12 30.29,40.96 60.76,80.74 91.72,119.26 31.07,38.7 62.43,76.14 94.08,112.2 31.85,36.45 63.99,71.53 96.43,105.35 32.64,34.01 65.56,66.74 98.78,98.1 33.51,31.65 67.23,61.93 101.23,90.85l17.64 14.89c28.51,23.71 57.22,46.45 86.14,68.3 35.18,26.46 70.65,51.55 106.42,75.17 36.17,23.82 72.52,46.15 109.17,66.93 37.05,21.07 74.38,40.67 112.01,58.61 38.02,18.22 76.33,34.78 114.84,49.78 39.1,15.19 78.5,28.72 117.9,40.57 22.63,6.76 45.27,13.04 67.91,18.72 17.74,4.41 35.48,8.52 53.21,12.24 41.46,8.72 82.91,15.78 124.55,20.88 42.63,5.29 85.35,8.62 128.08,10 44,1.46 88,0.88 132.1,-1.77 45.48,-2.64 90.85,-7.55 136.31,-14.6 47.04,-7.36 94.17,-17.06 141.12,-29.01 14.69,-3.82 29.39,-7.83 44.1,-12.05 34.1,-9.79 68.2,-20.78 102.3,-32.83 50.67,-18.03 101.33,-38.51 151.9,-61.55 52.81,-24 105.54,-50.75 158.26,-80.35 55.17,-30.96 110.45,-65.08 165.42,-102.31 58.21,-39.19 116.22,-81.92 174.14,-128.07 61.74,-49.4 123.38,-102.61 184.72,-159.94 66.35,-62.03 132.39,-128.67 198.05,-200.1 72.52,-78.99 144.65,-163.66 215.99,-254.21l24.59 -31.36c73.21,-94.18 145.72,-194.73 217.66,-301.54 97.21,-144.45 193.05,-300.27 287.23,-467.85 137.19,-244.11 270.86,-512.91 399.82,-806.51 79.58,-181.3 157.38,-372 233.13,-572.21 173.45,-459.02 323.79,-958.02 453.93,-1492.11z"/>
 </g>
</svg>
