<?xml version="1.0" encoding="UTF-8"?>
<!DOCTYPE svg PUBLIC "-//W3C//DTD SVG 1.1//EN" "http://www.w3.org/Graphics/SVG/1.1/DTD/svg11.dtd">
<!-- Creator: CorelDRAW -->
<svg xmlns="http://www.w3.org/2000/svg" xml:space="preserve" width="132.627mm" height="32.1694mm" version="1.1" style="shape-rendering:geometricPrecision; text-rendering:geometricPrecision; image-rendering:optimizeQuality; fill-rule:evenodd; clip-rule:evenodd"
viewBox="0 0 857127.68 207900.67"
 xmlns:xlink="http://www.w3.org/1999/xlink"
 xmlns:xodm="http://www.corel.com/coreldraw/odm/2003">
 <defs>
  <style type="text/css">
   <![CDATA[
    .fil0 {fill:#CF8F3A}
   ]]>
  </style>
 </defs>
 <g id="Camada_x0020_1">
  <metadata id="CorelCorpID_0Corel-Layer"/>
  <path class="fil0" d="M185274.16 80760.28l0 7842.47 13735.79 0 0 5511.38 -13735.79 0 0 10810.13 -6867.25 0 0 -29675.35 22425.51 0 0 5511.38 -15558.27 0zm432167.43 -5511.38l0 29675.35 -3009.67 0 0 -23740.02 -11658.04 19967.11 -1483.83 0 -11658.68 -19840.44 0 23613.35 -3009.67 0 0 -29675.35 2585.72 0 12887.88 22002.21 12760.57 -22002.21 2585.72 0zm178129.02 48853.37l-6590 0 0 -1714.55 15163.4 0 0 1714.55 -6590.65 0 0 17038.87 -1982.75 0 0 -17038.87zm-762019.59 -90713.46c8621.87,-28216.72 30041.79,-24240.23 50841.93,-13492.79l543.51 649.5 2.59 0c175.79,582.29 -135.72,1201.41 -722.53,1384.31l0 3.23c-757.43,231.36 -4160.03,-1735.88 -5064.81,-2156.6 -42519.29,-19776.46 -47776.68,16508.28 -47679.1,53897.49l230.07 12820.67c3284.98,-7426.27 12176.99,-29290.18 20195.89,-33057.27 6378.02,-2996.75 12437.44,5929.51 15796.74,10689.28 4021.73,5698.15 8559.82,13715.75 18001.16,9747.02 3254.61,-1368.15 8125.53,-5243.82 10497.34,-7660.22l2.59 2.59c5143,-4623.4 10858.6,-9412.25 10959.42,2750.52 162.21,19518.6 -16933.52,70760.57 -28690.44,84782.66 -4766.88,5685.87 -8035.7,4163.26 -8835.78,-3240.39 -865.35,-8011.14 1024.34,-28667.82 -6089.79,-31342.72 -1879.99,-706.37 -3473.05,-725.76 -4774.63,-219.73 -2062.24,842.09 -3055.56,-1668.66 0,-2554.7 3315.36,-672.77 7499.3,802.67 9480.76,4234.35 4911.64,8506.18 1956.25,28776.39 4417.24,33537.45 1222.09,2364.7 4717.11,-2492.66 5381.48,-3404.54 10555.5,-14483.52 22072,-51200.61 25223.86,-67279.12 714.13,-3641.72 2617.39,-15644.22 1220.15,-19265.26 -609.43,-1580.13 -2449.36,-80.14 -3401.96,673.41l2.59 0c-8079.65,6425.2 -19634.93,20818.24 -31378.92,5950.84 -4261.49,-5394.4 -11512.63,-19861.77 -18969.27,-13924.5 -6432.96,5122.32 -15716.6,27375.93 -18798.01,34567.6l2526.91 52614c465.31,15710.78 1245.36,49324.5 -11917.19,58502.15 -7605.29,5302.63 -13368.06,-2607.69 -15637.76,-9750.25 -6915.07,-21755.98 3324.4,-54918.6 10961.36,-73435.48l11785.35 -28335.64c-655.32,-17467.99 -1129.03,-41281.04 3889.24,-57687.86zm-3717.98 151588.71c4346.8,-17857.69 2195.37,-49317.39 1113.52,-68590.4l-1065.05 -20071.16c-10874.11,25788.69 -24876.81,56258.96 -22839.77,84802.69 411.67,5766.01 2797.05,20657.97 10507.03,20910.66 6922.18,226.84 11137.14,-12341.79 12284.27,-17051.79zm809613.38 -62589.8l7635.01 0c1982.75,0 3732.85,397.46 5250.93,1192.37 1518.08,794.91 2696.88,1901.97 3536.38,3321.82 839.5,1419.85 1258.93,3040.69 1258.93,4862.52 0,1821.83 -419.43,3442.67 -1258.93,4862.52 -839.5,1419.85 -2018.3,2526.91 -3536.38,3321.82 -1518.08,794.91 -3268.18,1192.37 -5250.93,1192.37l-7635.01 0 0 -18753.42zm7527.73 17038.87c1643.46,0 3081.41,-325.72 4313.2,-977.8 1232.43,-652.08 2188.26,-1553.63 2866.85,-2705.93 678.58,-1152.3 1017.87,-2477.79 1017.87,-3978.43 0,-1499.99 -339.29,-2826.13 -1017.87,-3978.43 -678.58,-1151.65 -1634.41,-2053.84 -2866.85,-2705.93 -1231.79,-651.44 -2669.73,-977.8 -4313.2,-977.8l-5545.63 0 0 15324.32 5545.63 0zm-26062.71 -17038.87c2393.13,0 4268.6,571.95 5625.77,1714.55 1357.16,1143.25 2036.39,2714.97 2036.39,4715.17 0,2000.2 -679.23,3567.4 -2036.39,4701.6 -1357.16,1134.2 -3232.63,1701.62 -5625.77,1701.62l-5037.02 0 0 5920.46 -1982.11 0 0 -18753.42 7019.12 0zm-53.64 11091.26c1857.38,0 3277.23,-406.5 4259.55,-1218.86 982.33,-812.36 1473.49,-1960.13 1473.49,-3442.67 0,-1518.08 -491.16,-2683.31 -1473.49,-3496.31 -982.33,-812.36 -2402.18,-1218.86 -4259.55,-1218.86l-4983.38 0 0 9376.71 4983.38 0zm25205.11 -28300.09c-2204.42,0 -4317.07,-353.51 -6337.31,-1059.88 -2020.88,-707.02 -3582.27,-1639.58 -4684.8,-2798.34l1229.2 -2416.4c1074.1,1074.1 2501.7,1943.33 4282.17,2607.05 1780.47,664.36 3617.16,996.55 5510.73,996.55 2656.81,0 4649.25,-487.29 5977.34,-1462.51 1328.73,-975.22 1993.09,-2239.97 1993.09,-3794.24 0,-1187.2 -360.62,-2133.98 -1081.21,-2840.35 -720.59,-706.37 -1604.04,-1250.53 -2649.7,-1632.47 -1045.66,-381.3 -2501.06,-798.14 -4366.84,-1250.53 -2232.21,-564.84 -4012.68,-1109 -5341.41,-1631.83 -1328.08,-522.83 -2465.51,-1321.62 -3412.3,-2395.07 -946.78,-1074.1 -1420.5,-2529.49 -1420.5,-4366.84 0,-1498.05 395.52,-2861.68 1187.2,-4090.88 791.03,-1229.2 2006.66,-2211.53 3645.6,-2946.34 1639.58,-734.81 3674.04,-1101.89 6104.65,-1101.89 1695.81,0 3356.07,232.66 4981.44,699.26 1624.72,465.96 3031,1109 4218.19,1929.11l-1059.88 2501.06c-1243.42,-819.47 -2572.15,-1434.72 -3984.89,-1844.45 -1413.39,-409.73 -2798.34,-614.6 -4154.86,-614.6 -2599.94,0 -4556.84,501.5 -5871.35,1505.16 -1313.86,1003.01 -1971.12,2296.19 -1971.12,3878.9 0,1187.2 359.97,2141.09 1081.21,2861.68 720.59,720.59 1624.72,1271.86 2713.03,1653.15 1087.67,381.3 2550.18,798.14 4387.52,1250.53 2175.99,537.05 3935.77,1066.99 5278.07,1589.82 1342.3,522.83 2479.73,1314.51 3412.3,2373.74 933.21,1059.88 1399.17,2494.6 1399.17,4303.5 0,1497.4 -402.63,2861.03 -1207.88,4090.88 -805.9,1229.2 -2042.21,2204.42 -3709.58,2925.01 -1667.37,720.59 -3716.69,1081.21 -6147.3,1081.21zm-32717.34 -2967.66l0 2713.03 -20984.98 0 0 -29675.35 20349.05 0 0 2713.03 -17212.07 0 0 10556.15 15346.29 0 0 2671.03 -15346.29 0 0 11022.11 17847.99 0zm-49930.05 -5214.74l-16533.48 0 -3560.94 7927.77 -3264.3 0 13565.82 -29675.35 3094.98 0 13565.82 29675.35 -3306.96 0 -3560.94 -7927.77zm-1144.54 -2543.07l-7121.88 -15940.21 -7122.52 15940.21 14244.4 0zm-45012.59 10470.84l-6782.59 -9538.28c-763.24,84.66 -1554.28,126.67 -2374.39,126.67l-7969.78 0 0 9411.61 -3136.99 0 0 -29675.35 11106.77 0c3787.13,0 6754.8,904.78 8902.99,2713.03 2147.55,1808.91 3221.65,4295.75 3221.65,7461.17 0,2317.52 -586.17,4275.07 -1759.14,5871.99 -1172.98,1596.28 -2847.46,2747.93 -5023.44,3454.95l7249.19 10174.2 -3434.27 0zm-9241.64 -12081.99c2939.23,0 5186.3,-650.15 6740.58,-1950.44 1554.28,-1299.65 2331.74,-3122.77 2331.74,-5468.72 0,-2402.18 -777.46,-4245.98 -2331.74,-5532.06 -1554.28,-1286.07 -3801.35,-1929.11 -6740.58,-1929.11l-7885.12 0 0 14880.33 7885.12 0zm-50777.31 12336.62c-2939.23,0 -5603.15,-657.25 -7991.11,-1971.76 -2388.61,-1313.86 -4253.74,-3115.66 -5596.04,-5404.74 -1342.3,-2289.73 -2013.77,-4861.23 -2013.77,-7715.8 0,-2854.57 671.47,-5426.07 2013.77,-7715.8 1342.3,-2289.08 3207.43,-4090.88 5596.04,-5404.74 2387.96,-1314.51 5051.88,-1971.12 7991.11,-1971.12 2939.23,0 5588.93,649.5 7948.45,1949.79 2360.17,1300.29 4218.19,3101.44 5574.71,5405.39 1356.52,2303.3 2035.1,4881.91 2035.1,7736.48 0,2854.57 -678.58,5433.18 -2035.1,7737.13 -1356.52,2303.3 -3214.54,4104.45 -5574.71,5404.74 -2359.53,1300.29 -5009.23,1950.44 -7948.45,1950.44zm0 -2798.34c2345.31,0 4465.07,-529.94 6358.63,-1589.82 1893.57,-1059.88 3377.4,-2529.49 4451.5,-4408.84 1074.1,-1879.35 1611.15,-3977.78 1611.15,-6295.3 0,-2317.52 -537.05,-4415.95 -1611.15,-6295.3 -1074.1,-1879.35 -2557.93,-3348.96 -4451.5,-4408.84 -1893.57,-1059.88 -4013.33,-1589.82 -6358.63,-1589.82 -2345.95,0 -4472.82,529.94 -6380.61,1589.82 -1907.14,1059.88 -3405.19,2529.49 -4493.5,4408.84 -1088.32,1879.35 -1631.83,3977.78 -1631.83,6295.3 0,2317.52 543.51,4415.95 1631.83,6295.3 1088.32,1879.35 2586.37,3348.96 4493.5,4408.84 1907.78,1059.88 4034.65,1589.82 6380.61,1589.82zm-107272.8 -3815.57l-13777.8 0 -2628.37 6359.28 -7037.22 0 13226.53 -29675.35 6782.59 0 13269.18 29675.35 -7206.54 0 -2628.37 -6359.28zm-2162.41 -5214.09l-4705.48 -11361.4 -4705.48 11361.4 9410.96 0zm-70509.17 -18101.98l13480.51 0c3222.29,0 6069.75,614.6 8542.38,1844.45 2473.27,1229.2 4394.63,2959.91 5765.36,5192.77 1370.74,2232.86 2056.43,4832.8 2056.43,7800.46 0,2967.66 -685.69,5567.6 -2056.43,7800.46 -1370.74,2232.86 -3292.09,3963.56 -5765.36,5193.41 -2472.62,1229.2 -5320.08,1843.8 -8542.38,1843.8l-13480.51 0 0 -29675.35zm13141.87 24037.31c2967.02,0 5334.3,-827.22 7100.55,-2480.38 1766.25,-1653.15 2649.7,-3893.12 2649.7,-6719.25 0,-2826.13 -883.45,-5066.1 -2649.7,-6719.25 -1766.25,-1653.15 -4133.53,-2479.73 -7100.55,-2479.73l-6274.62 0 0 18398.61 6274.62 0zm-38714.71 -24037.31l0 29675.35 -5638.69 0 -14795.02 -18017.32 0 18017.32 -6782.59 0 0 -29675.35 5680.7 0 14752.37 18017.32 0 -18017.32 6783.23 0zm-58681.82 23316.07l-13777.8 0 -2628.37 6359.28 -7037.22 0 13226.53 -29675.35 6782.59 0 13269.18 29675.35 -7206.54 0 -2628.37 -6359.28zm-2162.41 -5214.09l-4705.48 -11361.4 -4705.48 11361.4 9410.96 0zm-42953.58 -18101.98l0 29675.35 -5638.69 0 -14795.02 -18017.32 0 18017.32 -6782.59 0 0 -29675.35 5680.7 0 14752.37 18017.32 0 -18017.32 6783.23 0zm-58003.88 29675.35l-5723.35 -8266.42 -339.29 0 -5977.34 0 0 8266.42 -6867.25 0 0 -29675.35 12844.58 0c2628.37,0 4910.99,438.17 6846.57,1314.51 1936.22,875.69 3427.16,2119.11 4472.82,3730.26 1045.66,1611.15 1568.49,3518.93 1568.49,5723.35 0,2204.42 -529.94,4105.1 -1589.82,5702.03 -1059.88,1596.28 -2565.04,2819.02 -4514.83,3666.93l6655.92 9538.28 -7376.51 0zm-127.31 -18907.23c0,-1667.37 -537.05,-2946.34 -1611.15,-3836.9 -1073.45,-889.91 -2642.59,-1335.19 -4705.48,-1335.19l-5596.04 0 0 10344.17 5596.04 0c2062.89,0 3632.03,-452.39 4705.48,-1357.16 1074.1,-904.13 1611.15,-2175.99 1611.15,-3814.92zm-42784.91 13395.85l0 5511.38 -22976.78 0 0 -29675.35 22425.51 0 0 5511.38 -15600.27 0 0 6443.3 13777.8 0 0 5342.05 -13777.8 0 0 6867.25 16151.54 0z"/>
 </g>
</svg>
